{"glyphs":{"0":{"ha":675,"x_min":0,"x_max":0,"o":"m 338 -17 b 625 289 511 -17 625 79 l 625 706 b 338 1010 625 910 511 1010 b 50 706 163 1010 50 910 l 50 289 b 338 -17 50 79 160 -17 z m 338 149 b 236 299 264 149 236 197 l 236 699 b 338 851 236 799 264 851 b 439 699 410 851 439 801 l 439 299 b 338 149 439 196 410 149 z "},"1":{"ha":499,"x_min":0,"x_max":0,"o":"m 468 0 l 468 172 l 342 172 l 342 996 l 201 996 b 58 847 181 904 139 860 l 58 715 l 165 715 l 165 172 l 33 172 l 33 0 z "},"2":{"ha":639,"x_min":0,"x_max":0,"o":"m 596 0 l 596 172 l 250 172 l 250 179 b 404 385 251 269 325 324 b 599 694 497 456 599 535 l 599 765 b 325 1010 599 924 507 1010 b 49 765 144 1010 49 922 l 49 621 l 232 621 l 232 758 b 325 853 232 817 260 853 b 415 758 390 853 415 821 l 415 694 b 254 490 415 606 339 553 b 44 154 154 417 44 328 l 44 0 z "},"3":{"ha":649,"x_min":0,"x_max":0,"o":"m 317 -15 b 606 229 517 -15 606 86 l 606 338 b 493 515 606 432 567 489 b 593 688 564 544 593 603 l 593 785 b 319 1010 593 924 501 1010 b 46 772 144 1010 46 919 l 46 658 l 226 658 l 226 760 b 318 849 226 817 253 849 b 410 760 386 849 410 818 l 410 675 b 315 583 410 615 381 583 l 244 583 l 244 440 l 314 440 b 418 351 386 440 418 414 l 418 253 b 318 154 418 188 392 154 b 221 246 249 154 221 183 l 221 364 l 38 364 l 38 231 b 317 -15 38 72 122 -15 z "},"4":{"ha":663,"x_min":0,"x_max":0,"o":"m 347 631 l 378 732 l 365 628 l 365 354 l 206 354 z m 638 197 l 638 354 l 533 354 l 533 996 l 376 996 l 29 331 l 29 197 l 365 197 l 365 0 l 533 0 l 533 197 z "},"5":{"ha":639,"x_min":0,"x_max":0,"o":"m 322 -17 b 597 247 510 -17 597 81 l 597 451 b 401 690 597 597 540 692 b 222 588 301 692 256 646 b 249 832 228 642 240 751 l 404 832 b 581 986 553 832 581 847 l 581 996 l 101 996 l 47 492 l 217 447 b 226 472 218 449 226 472 b 325 539 246 510 275 539 b 415 442 383 539 415 506 l 415 264 b 322 150 415 192 393 150 b 231 256 253 150 231 182 l 231 351 l 42 351 l 42 242 b 322 -17 42 68 131 -17 z "},"6":{"ha":664,"x_min":0,"x_max":0,"o":"m 624 264 l 624 369 b 411 606 624 531 546 606 b 235 500 319 606 264 560 l 235 699 b 342 851 235 800 265 851 b 431 747 404 851 431 815 l 431 681 l 617 681 l 617 750 b 344 1010 615 918 526 1010 b 50 703 151 1010 50 908 l 50 290 b 336 -17 50 82 150 -17 b 624 264 517 -17 624 75 z m 336 151 b 235 297 264 151 235 197 l 235 396 b 339 463 251 436 288 463 b 440 356 413 463 440 418 l 440 274 b 336 151 440 196 408 151 z "},"7":{"ha":578,"x_min":0,"x_max":0,"o":"m 296 0 b 554 846 346 343 424 581 l 554 996 l 28 996 l 28 819 l 360 819 b 88 0 246 597 149 346 z "},"8":{"ha":649,"x_min":0,"x_max":0,"o":"m 324 -17 b 608 215 510 -17 608 78 l 608 344 b 501 521 608 432 568 492 b 597 689 564 550 597 607 l 597 783 b 325 1010 597 918 500 1010 b 57 783 150 1010 57 915 l 57 688 b 150 519 57 604 88 547 b 42 344 82 489 42 426 l 42 215 b 324 -17 42 74 136 -17 z m 331 592 l 321 592 b 233 678 258 592 233 632 l 233 761 b 326 851 233 818 263 851 b 419 763 392 851 419 818 l 419 679 b 331 592 419 631 393 592 z m 325 151 b 226 240 261 151 226 186 l 226 357 b 319 447 226 403 257 447 l 329 447 b 426 358 393 447 426 407 l 426 242 b 325 151 426 185 390 151 z "},"9":{"ha":663,"x_min":0,"x_max":0,"o":"m 328 542 b 228 640 258 542 228 578 l 228 732 b 328 850 228 807 260 850 b 432 708 404 850 432 803 l 432 615 b 328 542 417 571 381 542 z m 325 -17 b 613 288 515 -17 613 85 l 613 701 b 325 1010 613 915 514 1010 b 42 736 143 1010 42 913 l 42 635 b 263 401 42 476 121 401 b 432 506 354 401 406 447 l 432 286 b 333 146 432 190 407 146 b 236 250 263 146 236 182 l 236 339 l 47 339 l 47 242 b 325 -17 49 76 138 -17 z "}," ":{"ha":285,"x_min":0,"x_max":0,"o":""}," ":{"ha":285,"x_min":0,"x_max":0,"o":""},"A":{"ha":646,"x_min":0,"x_max":0,"o":"m 310 636 l 321 775 l 332 636 l 397 304 l 247 304 z m 457 0 l 636 0 l 410 996 l 231 996 l 10 0 l 189 0 l 217 147 l 428 147 z "},"B":{"ha":649,"x_min":0,"x_max":0,"o":"m 367 0 b 610 235 551 0 610 82 l 610 338 b 483 513 610 433 572 489 b 596 689 565 538 596 592 l 596 778 b 331 996 596 921 526 996 l 64 996 l 64 0 z m 324 850 b 421 765 392 850 421 824 l 421 686 b 324 585 421 613 396 585 l 238 585 l 238 850 z m 322 435 b 428 339 399 435 428 407 l 428 251 b 329 156 428 179 403 156 l 238 156 l 238 435 z "},"C":{"ha":660,"x_min":0,"x_max":0,"o":"m 332 -15 b 618 282 514 -15 615 72 l 618 422 l 426 422 l 426 294 b 333 153 426 199 404 153 b 238 301 260 153 238 199 l 238 699 b 332 849 238 800 260 849 b 426 707 408 849 426 810 l 426 599 l 617 599 l 617 721 b 333 1010 617 921 524 1010 b 51 710 158 1010 51 914 l 51 288 b 332 -15 51 78 147 -15 z "},"D":{"ha":671,"x_min":0,"x_max":0,"o":"m 64 0 l 319 0 b 619 296 494 0 619 86 l 619 700 b 321 996 619 911 493 996 l 64 996 z m 311 842 b 433 688 386 842 433 797 l 433 313 b 313 158 433 204 388 158 l 243 158 l 243 842 z "},"E":{"ha":572,"x_min":0,"x_max":0,"o":"m 538 168 l 242 168 l 242 422 l 494 422 l 494 586 l 242 586 l 242 833 l 529 833 l 529 996 l 64 996 l 64 0 l 538 0 z "},"F":{"ha":539,"x_min":0,"x_max":0,"o":"m 486 399 l 486 565 l 239 565 l 239 829 l 507 829 l 507 996 l 64 996 l 64 0 l 239 0 l 239 399 z "},"G":{"ha":685,"x_min":0,"x_max":0,"o":"m 493 0 l 626 0 l 626 536 l 329 536 l 329 382 l 444 382 l 444 294 b 342 151 444 206 414 151 b 236 303 268 151 236 197 l 236 697 b 343 850 236 801 269 850 b 439 736 411 850 439 811 l 439 633 l 626 633 l 626 746 b 346 1010 626 919 526 1010 b 51 708 165 1010 51 914 l 51 286 b 275 -15 51 81 125 -15 b 471 156 386 -15 450 43 z "},"H":{"ha":676,"x_min":0,"x_max":0,"o":"m 435 0 l 614 0 l 614 996 l 435 996 l 435 585 l 243 585 l 243 996 l 64 996 l 64 0 l 243 0 l 243 414 l 435 414 z "},"I":{"ha":482,"x_min":0,"x_max":0,"o":"m 443 0 l 443 169 l 329 169 l 329 829 l 443 829 l 443 996 l 39 996 l 39 829 l 156 829 l 156 169 l 39 169 l 39 0 z "},"J":{"ha":614,"x_min":0,"x_max":0,"o":"m 293 -15 b 554 269 468 -15 554 69 l 554 996 l 368 996 l 368 272 b 293 153 368 182 350 153 b 219 250 238 153 219 188 l 219 394 l 33 394 l 33 250 b 293 -15 33 61 122 -15 z "},"K":{"ha":676,"x_min":0,"x_max":0,"o":"m 317 453 l 463 0 l 660 0 l 447 607 l 439 629 l 644 996 l 443 996 l 244 619 l 236 596 l 239 644 l 239 996 l 64 996 l 64 0 l 239 0 l 239 382 l 306 504 z "},"L":{"ha":549,"x_min":0,"x_max":0,"o":"m 514 0 l 514 179 l 247 179 l 247 996 l 64 996 l 64 0 z "},"M":{"ha":789,"x_min":0,"x_max":0,"o":"m 231 553 l 208 729 l 235 629 l 375 300 l 418 300 l 551 628 l 583 735 l 558 560 l 558 0 l 725 0 l 725 996 l 568 996 l 394 565 l 221 996 l 64 996 l 64 0 l 231 0 z "},"N":{"ha":704,"x_min":0,"x_max":0,"o":"m 226 536 l 215 685 l 250 565 l 485 0 l 640 0 l 640 996 l 478 996 l 478 457 l 488 322 l 453 435 l 224 996 l 64 996 l 64 0 l 226 0 z "},"O":{"ha":678,"x_min":0,"x_max":0,"o":"m 339 -15 b 626 288 513 -15 626 79 l 626 706 b 339 1008 626 908 513 1008 b 51 706 164 1008 51 908 l 51 288 b 339 -15 51 78 161 -15 z m 339 151 b 238 301 265 151 238 199 l 238 697 b 339 849 238 799 265 849 b 440 697 411 849 440 800 l 440 301 b 339 151 440 199 411 151 z "},"P":{"ha":638,"x_min":0,"x_max":0,"o":"m 319 843 b 424 739 392 843 424 814 l 424 579 b 319 469 424 506 390 469 l 240 469 l 240 843 z m 329 313 b 603 575 522 313 603 411 l 603 744 b 326 996 603 919 519 996 l 64 996 l 64 0 l 240 0 l 240 313 z "},"Q":{"ha":676,"x_min":0,"x_max":0,"o":"m 624 -126 l 528 40 b 625 288 589 89 625 171 l 625 706 b 339 1008 625 908 511 1008 b 51 706 164 1008 51 908 l 51 288 b 338 -15 51 78 161 -15 b 367 -14 347 -15 357 -15 l 419 -126 z m 339 151 b 236 301 265 151 236 199 l 236 697 b 338 849 236 799 265 849 b 440 697 411 849 440 800 l 440 301 b 339 151 440 199 411 151 z "},"R":{"ha":644,"x_min":0,"x_max":0,"o":"m 321 843 b 421 749 393 843 421 814 l 421 638 b 322 539 421 571 393 539 l 238 539 l 238 843 z m 313 381 b 407 282 386 381 407 351 l 407 67 b 425 0 407 35 413 10 l 614 0 b 588 65 597 15 588 35 l 588 290 b 492 464 588 389 564 440 b 597 639 560 490 597 543 l 597 758 b 332 996 597 922 518 996 l 64 996 l 64 0 l 238 0 l 238 381 z "},"S":{"ha":613,"x_min":0,"x_max":0,"o":"m 308 -15 b 578 238 486 -15 578 79 l 578 314 b 376 581 578 469 472 531 b 221 733 296 622 221 657 l 221 761 b 304 860 221 821 244 860 b 389 765 365 860 389 829 l 389 668 l 565 668 l 565 776 b 306 1010 565 921 483 1010 b 42 763 128 1010 42 915 l 42 721 b 240 457 42 567 144 507 b 399 293 322 414 399 376 l 399 242 b 311 146 399 186 376 146 b 217 247 239 146 217 185 l 217 378 l 31 378 l 31 244 b 308 -15 31 75 103 -15 z "},"T":{"ha":563,"x_min":0,"x_max":0,"o":"m 536 832 l 536 996 l 28 996 l 28 832 l 192 832 l 192 0 l 371 0 l 371 832 z "},"U":{"ha":660,"x_min":0,"x_max":0,"o":"m 331 -15 b 601 283 504 -15 601 76 l 601 996 l 421 996 l 421 294 b 331 160 421 196 396 160 b 240 294 265 160 240 197 l 240 996 l 58 996 l 58 283 b 331 -15 58 76 151 -15 z "},"V":{"ha":646,"x_min":0,"x_max":0,"o":"m 415 0 l 632 996 l 450 996 l 335 401 l 325 256 l 315 401 l 197 996 l 14 996 l 235 0 z "},"W":{"ha":936,"x_min":0,"x_max":0,"o":"m 453 554 l 464 711 l 475 554 l 579 0 l 743 0 l 918 996 l 747 996 l 661 442 l 649 247 l 632 431 l 526 996 l 407 996 l 294 431 l 275 260 l 268 442 l 192 996 l 19 996 l 176 0 l 342 0 z "},"X":{"ha":642,"x_min":0,"x_max":0,"o":"m 317 318 l 322 363 l 329 319 l 446 0 l 636 0 l 421 522 l 618 996 l 431 996 l 328 713 l 322 667 l 315 713 l 214 996 l 26 996 l 219 525 l 4 0 l 201 0 z "},"Y":{"ha":599,"x_min":0,"x_max":0,"o":"m 389 0 l 389 357 l 599 996 l 414 996 l 310 635 l 299 550 l 288 635 l 188 996 l 1 996 l 204 357 l 204 0 z "},"Z":{"ha":592,"x_min":0,"x_max":0,"o":"m 550 0 l 550 174 l 246 174 l 546 840 l 546 996 l 61 996 l 61 825 l 350 825 l 42 150 l 42 0 z "},"Á":{"ha":646,"x_min":0,"x_max":0,"o":"m 310 636 l 321 775 l 332 636 l 397 304 l 247 304 z m 457 0 l 636 0 l 410 996 l 231 996 l 10 0 l 189 0 l 217 147 l 428 147 z m 250 1065 l 379 1065 l 550 1281 l 375 1281 z "},"Ă":{"ha":646,"x_min":0,"x_max":0,"o":"m 310 636 l 321 775 l 332 636 l 397 304 l 247 304 z m 457 0 l 636 0 l 410 996 l 231 996 l 10 0 l 189 0 l 217 147 l 428 147 z m 322 1064 b 517 1278 457 1064 517 1133 l 397 1278 b 322 1176 397 1204 376 1178 b 249 1278 268 1178 249 1204 l 129 1278 b 322 1064 129 1133 178 1064 z "},"Â":{"ha":646,"x_min":0,"x_max":0,"o":"m 310 636 l 321 775 l 332 636 l 397 304 l 247 304 z m 457 0 l 636 0 l 410 996 l 231 996 l 10 0 l 189 0 l 217 147 l 428 147 z m 379 1063 l 513 1063 l 376 1292 l 263 1292 l 128 1063 l 257 1063 l 319 1178 z "},"Ä":{"ha":646,"x_min":0,"x_max":0,"o":"m 310 636 l 321 775 l 332 636 l 397 304 l 247 304 z m 457 0 l 636 0 l 410 996 l 231 996 l 10 0 l 189 0 l 217 147 l 428 147 z m 422 1060 b 504 1149 481 1060 504 1083 b 422 1239 504 1217 481 1239 b 342 1149 364 1239 342 1217 b 422 1060 342 1079 360 1060 z m 214 1060 b 297 1149 275 1060 297 1083 b 214 1239 297 1217 274 1239 b 133 1149 157 1239 133 1217 b 214 1060 133 1079 153 1060 z "},"À":{"ha":646,"x_min":0,"x_max":0,"o":"m 310 636 l 321 775 l 332 636 l 397 304 l 247 304 z m 457 0 l 636 0 l 410 996 l 231 996 l 10 0 l 189 0 l 217 147 l 428 147 z m 260 1065 l 382 1065 l 275 1281 l 101 1281 z "},"Ā":{"ha":646,"x_min":0,"x_max":0,"o":"m 310 636 l 321 775 l 332 636 l 397 304 l 247 304 z m 457 0 l 636 0 l 410 996 l 231 996 l 10 0 l 189 0 l 217 147 l 428 147 z m 165 1075 l 472 1075 l 472 1203 l 165 1203 z "},"Ʌ":{"ha":646,"x_min":0,"x_max":0,"o":"m 310 636 l 321 775 l 332 636 l 457 0 l 636 0 l 410 996 l 231 996 l 10 0 l 189 0 z "},"Ą":{"ha":646,"x_min":0,"x_max":0,"o":"m 310 636 l 321 775 l 332 636 l 397 304 l 247 304 z m 738 -121 l 594 -121 b 546 -171 590 -154 571 -171 b 503 -135 518 -171 503 -160 b 635 0 503 -104 521 -82 l 636 0 l 410 996 l 231 996 l 10 0 l 189 0 l 217 147 l 428 147 l 457 3 b 371 -144 389 -50 371 -96 b 538 -281 371 -235 429 -281 b 738 -121 647 -281 715 -231 z "},"Å":{"ha":646,"x_min":0,"x_max":0,"o":"m 310 636 l 321 775 l 332 636 l 397 304 l 247 304 z m 457 0 l 636 0 l 410 996 l 231 996 l 10 0 l 189 0 l 217 147 l 428 147 z m 318 1053 b 478 1200 415 1053 478 1107 b 318 1349 478 1294 414 1349 b 160 1199 226 1349 160 1294 b 318 1053 160 1103 222 1053 z m 318 1156 b 274 1200 288 1156 274 1174 b 318 1247 274 1228 289 1247 b 365 1200 349 1247 365 1228 b 318 1156 365 1172 344 1156 z "},"Ǻ":{"ha":646,"x_min":0,"x_max":0,"o":"m 256 1247 l 385 1247 l 556 1463 l 381 1463 z m 318 1003 b 274 1047 288 1003 274 1021 b 318 1094 274 1075 289 1094 b 365 1047 349 1094 365 1075 b 318 1003 365 1019 344 1003 z m 310 636 l 321 775 l 332 636 l 397 304 l 247 304 z m 217 147 l 428 147 l 457 0 l 636 0 l 425 931 b 478 1047 458 956 478 996 b 318 1196 478 1142 414 1196 b 160 1046 226 1196 160 1142 b 215 928 160 992 181 951 l 10 0 l 189 0 z "},"Ã":{"ha":646,"x_min":0,"x_max":0,"o":"m 310 636 l 321 775 l 332 636 l 397 304 l 247 304 z m 457 0 l 636 0 l 410 996 l 231 996 l 10 0 l 189 0 l 217 147 l 428 147 z m 103 1064 l 213 1064 b 243 1129 213 1110 221 1129 b 408 1058 289 1129 328 1058 b 535 1256 501 1058 535 1117 l 425 1256 b 392 1193 425 1207 417 1193 b 229 1261 353 1193 308 1261 b 103 1064 136 1261 104 1201 z "},"Æ":{"ha":915,"x_min":0,"x_max":0,"o":"m 376 664 l 378 672 l 378 663 l 422 300 l 268 300 z m 460 0 l 875 0 l 875 167 l 603 167 l 571 425 l 840 425 l 840 586 l 550 586 l 518 836 l 867 836 l 867 996 l 311 996 l -1 0 l 179 0 l 224 150 l 442 150 z "},"Ǽ":{"ha":915,"x_min":0,"x_max":0,"o":"m 376 664 l 378 672 l 378 663 l 422 300 l 268 300 z m 460 0 l 875 0 l 875 167 l 603 167 l 571 425 l 840 425 l 840 586 l 550 586 l 518 836 l 867 836 l 867 996 l 311 996 l -1 0 l 179 0 l 224 150 l 442 150 z m 344 1065 l 474 1065 l 644 1281 l 469 1281 z "},"Ć":{"ha":660,"x_min":0,"x_max":0,"o":"m 332 -15 b 618 282 514 -15 615 72 l 618 422 l 426 422 l 426 294 b 333 153 426 199 404 153 b 238 301 260 153 238 199 l 238 699 b 332 849 238 800 260 849 b 426 707 408 849 426 810 l 426 599 l 617 599 l 617 721 b 333 1010 617 921 524 1010 b 51 710 158 1010 51 914 l 51 288 b 332 -15 51 78 147 -15 z m 269 1081 l 399 1081 l 569 1296 l 394 1296 z "},"Č":{"ha":660,"x_min":0,"x_max":0,"o":"m 332 -15 b 618 282 514 -15 615 72 l 618 422 l 426 422 l 426 294 b 333 153 426 199 404 153 b 238 301 260 153 238 199 l 238 699 b 332 849 238 800 260 849 b 426 707 408 849 426 810 l 426 599 l 617 599 l 617 721 b 333 1010 617 921 524 1010 b 51 710 158 1010 51 914 l 51 288 b 332 -15 51 78 147 -15 z m 403 1081 l 538 1310 l 408 1310 l 346 1196 l 288 1310 l 154 1310 l 289 1081 z "},"Ç":{"ha":660,"x_min":0,"x_max":0,"o":"m 342 -337 b 529 -193 458 -337 529 -286 b 392 -69 529 -112 481 -75 l 392 -11 b 618 282 536 7 615 96 l 618 422 l 426 422 l 426 294 b 333 153 426 199 404 153 b 238 301 260 153 238 199 l 238 699 b 332 849 238 800 260 849 b 426 707 408 849 426 810 l 426 599 l 617 599 l 617 721 b 333 1010 617 921 524 1010 b 51 710 158 1010 51 914 l 51 288 b 276 -12 51 100 128 6 l 276 -153 l 342 -153 b 403 -192 385 -153 403 -168 b 343 -236 403 -219 383 -236 b 276 -187 304 -236 283 -221 l 138 -187 b 342 -337 156 -290 214 -337 z "},"Ĉ":{"ha":660,"x_min":0,"x_max":0,"o":"m 332 -15 b 618 282 514 -15 615 72 l 618 422 l 426 422 l 426 294 b 333 153 426 199 404 153 b 238 301 260 153 238 199 l 238 699 b 332 849 238 800 260 849 b 426 707 408 849 426 810 l 426 599 l 617 599 l 617 721 b 333 1010 617 921 524 1010 b 51 710 158 1010 51 914 l 51 288 b 332 -15 51 78 147 -15 z m 403 1081 l 536 1081 l 400 1310 l 286 1310 l 151 1081 l 281 1081 l 343 1196 z "},"Ċ":{"ha":660,"x_min":0,"x_max":0,"o":"m 332 -15 b 618 282 514 -15 615 72 l 618 422 l 426 422 l 426 294 b 333 153 426 199 404 153 b 238 301 260 153 238 199 l 238 699 b 332 849 238 800 260 849 b 426 707 408 849 426 810 l 426 599 l 617 599 l 617 721 b 333 1010 617 921 524 1010 b 51 710 158 1010 51 914 l 51 288 b 332 -15 51 78 147 -15 z m 347 1079 b 444 1181 417 1079 444 1101 b 347 1283 444 1263 415 1283 b 250 1181 278 1283 250 1263 b 347 1079 250 1099 272 1079 z "},"Ď":{"ha":671,"x_min":0,"x_max":0,"o":"m 64 0 l 319 0 b 619 296 494 0 619 86 l 619 700 b 321 996 619 911 493 996 l 64 996 z m 311 842 b 433 688 386 842 433 797 l 433 313 b 313 158 433 204 388 158 l 243 158 l 243 842 z m 388 1065 l 522 1294 l 393 1294 l 331 1181 l 272 1294 l 139 1294 l 274 1065 z "},"Đ":{"ha":682,"x_min":0,"x_max":0,"o":"m 333 0 b 632 296 507 0 632 86 l 632 700 b 335 996 632 911 507 996 l 78 996 l 78 581 l 8 581 l 8 419 l 78 419 l 78 0 z m 346 419 l 346 581 l 256 581 l 256 842 l 324 842 b 447 688 399 842 447 797 l 447 313 b 325 158 447 204 400 158 l 256 158 l 256 419 z "},"Ð":{"ha":682,"x_min":0,"x_max":0,"o":"m 333 0 b 632 296 507 0 632 86 l 632 700 b 335 996 632 911 507 996 l 78 996 l 78 581 l 8 581 l 8 419 l 78 419 l 78 0 z m 346 419 l 346 581 l 256 581 l 256 842 l 324 842 b 447 688 399 842 447 797 l 447 313 b 325 158 447 204 400 158 l 256 158 l 256 419 z "},"É":{"ha":572,"x_min":0,"x_max":0,"o":"m 538 168 l 242 168 l 242 422 l 494 422 l 494 586 l 242 586 l 242 833 l 529 833 l 529 996 l 64 996 l 64 0 l 538 0 z m 224 1065 l 353 1065 l 524 1281 l 349 1281 z "},"Ĕ":{"ha":572,"x_min":0,"x_max":0,"o":"m 538 168 l 242 168 l 242 422 l 494 422 l 494 586 l 242 586 l 242 833 l 529 833 l 529 996 l 64 996 l 64 0 l 538 0 z m 303 1064 b 497 1278 438 1064 497 1133 l 378 1278 b 303 1176 378 1204 357 1178 b 229 1278 249 1178 229 1204 l 110 1278 b 303 1064 110 1133 158 1064 z "},"Ě":{"ha":572,"x_min":0,"x_max":0,"o":"m 538 168 l 242 168 l 242 422 l 494 422 l 494 586 l 242 586 l 242 833 l 529 833 l 529 996 l 64 996 l 64 0 l 538 0 z m 357 1065 l 492 1294 l 363 1294 l 300 1181 l 242 1294 l 108 1294 l 243 1065 z "},"Ê":{"ha":572,"x_min":0,"x_max":0,"o":"m 538 168 l 242 168 l 242 422 l 494 422 l 494 586 l 242 586 l 242 833 l 529 833 l 529 996 l 64 996 l 64 0 l 538 0 z m 363 1065 l 496 1065 l 360 1294 l 246 1294 l 111 1065 l 240 1065 l 303 1181 z "},"Ë":{"ha":572,"x_min":0,"x_max":0,"o":"m 538 168 l 242 168 l 242 422 l 494 422 l 494 586 l 242 586 l 242 833 l 529 833 l 529 996 l 64 996 l 64 0 l 538 0 z m 407 1063 b 489 1151 465 1063 489 1086 b 407 1242 489 1219 465 1242 b 326 1151 349 1242 326 1219 b 407 1063 326 1082 344 1063 z m 199 1063 b 282 1151 260 1063 282 1086 b 199 1242 282 1219 258 1242 b 118 1151 142 1242 118 1219 b 199 1063 118 1082 138 1063 z "},"Ė":{"ha":572,"x_min":0,"x_max":0,"o":"m 538 168 l 242 168 l 242 422 l 494 422 l 494 586 l 242 586 l 242 833 l 529 833 l 529 996 l 64 996 l 64 0 l 538 0 z m 300 1065 b 397 1167 369 1065 397 1088 b 300 1269 397 1249 368 1269 b 203 1167 231 1269 203 1249 b 300 1065 203 1085 225 1065 z "},"È":{"ha":572,"x_min":0,"x_max":0,"o":"m 538 168 l 242 168 l 242 422 l 494 422 l 494 586 l 242 586 l 242 833 l 529 833 l 529 996 l 64 996 l 64 0 l 538 0 z m 246 1065 l 368 1065 l 261 1281 l 88 1281 z "},"Ē":{"ha":572,"x_min":0,"x_max":0,"o":"m 538 168 l 242 168 l 242 422 l 494 422 l 494 586 l 242 586 l 242 833 l 529 833 l 529 996 l 64 996 l 64 0 l 538 0 z m 150 1083 l 457 1083 l 457 1211 l 150 1211 z "},"Ę":{"ha":572,"x_min":0,"x_max":0,"o":"m 640 -121 l 497 -121 b 449 -171 493 -154 474 -171 b 406 -135 421 -171 406 -160 b 538 0 406 -104 424 -82 l 538 168 l 242 168 l 242 422 l 494 422 l 494 586 l 242 586 l 242 833 l 529 833 l 529 996 l 64 996 l 64 0 l 356 0 b 274 -144 290 -53 274 -97 b 440 -281 274 -235 332 -281 b 640 -121 550 -281 618 -231 z "},"Ğ":{"ha":685,"x_min":0,"x_max":0,"o":"m 493 0 l 626 0 l 626 536 l 329 536 l 329 382 l 444 382 l 444 294 b 342 151 444 206 414 151 b 236 303 268 151 236 197 l 236 697 b 343 850 236 801 269 850 b 439 736 411 850 439 811 l 439 633 l 626 633 l 626 746 b 346 1010 626 919 526 1010 b 51 708 165 1010 51 914 l 51 286 b 275 -15 51 81 125 -15 b 471 156 386 -15 450 43 z m 354 1079 b 549 1293 489 1079 549 1149 l 429 1293 b 354 1192 429 1219 408 1193 b 281 1293 300 1193 281 1219 l 161 1293 b 354 1079 161 1149 210 1079 z "},"Ĝ":{"ha":685,"x_min":0,"x_max":0,"o":"m 493 0 l 626 0 l 626 536 l 329 536 l 329 382 l 444 382 l 444 294 b 342 151 444 206 414 151 b 236 303 268 151 236 197 l 236 697 b 343 850 236 801 269 850 b 439 736 411 850 439 811 l 439 633 l 626 633 l 626 746 b 346 1010 626 919 526 1010 b 51 708 165 1010 51 914 l 51 286 b 275 -15 51 81 125 -15 b 471 156 386 -15 450 43 z m 410 1081 l 543 1081 l 407 1310 l 293 1310 l 158 1081 l 288 1081 l 350 1196 z "},"Ģ":{"ha":685,"x_min":0,"x_max":0,"o":"m 493 0 l 626 0 l 626 536 l 329 536 l 329 382 l 444 382 l 444 294 b 342 151 444 206 414 151 b 236 303 268 151 236 197 l 236 697 b 343 850 236 801 269 850 b 439 736 411 850 439 811 l 439 633 l 626 633 l 626 746 b 346 1010 626 919 526 1010 b 51 708 165 1010 51 914 l 51 286 b 275 -15 51 81 125 -15 b 471 156 386 -15 450 43 z m 279 -389 b 438 -190 389 -382 438 -307 b 350 -71 438 -99 417 -71 b 263 -160 286 -71 263 -94 b 335 -243 263 -231 285 -243 b 347 -242 339 -243 343 -243 b 279 -310 342 -285 322 -306 z "},"Ġ":{"ha":685,"x_min":0,"x_max":0,"o":"m 493 0 l 626 0 l 626 536 l 329 536 l 329 382 l 444 382 l 444 294 b 342 151 444 206 414 151 b 236 303 268 151 236 197 l 236 697 b 343 850 236 801 269 850 b 439 736 411 850 439 811 l 439 633 l 626 633 l 626 746 b 346 1010 626 919 526 1010 b 51 708 165 1010 51 914 l 51 286 b 275 -15 51 81 125 -15 b 471 156 386 -15 450 43 z m 353 1079 b 450 1181 422 1079 450 1101 b 353 1283 450 1263 421 1283 b 256 1181 283 1283 256 1263 b 353 1079 256 1099 278 1079 z "},"Ħ":{"ha":710,"x_min":0,"x_max":0,"o":"m 454 536 l 260 536 l 260 690 l 454 690 z m 454 0 l 633 0 l 633 690 l 703 690 l 703 835 l 633 835 l 633 996 l 454 996 l 454 835 l 260 835 l 260 996 l 79 996 l 79 835 l 8 835 l 8 690 l 79 690 l 79 0 l 260 0 l 260 386 l 454 386 z "},"Ĥ":{"ha":676,"x_min":0,"x_max":0,"o":"m 435 0 l 614 0 l 614 996 l 435 996 l 435 585 l 243 585 l 243 996 l 64 996 l 64 0 l 243 0 l 243 414 l 435 414 z m 400 1060 l 533 1060 l 397 1289 l 283 1289 l 149 1060 l 278 1060 l 340 1175 z "},"Í":{"ha":482,"x_min":0,"x_max":0,"o":"m 443 0 l 443 169 l 329 169 l 329 829 l 443 829 l 443 996 l 39 996 l 39 829 l 156 829 l 156 169 l 39 169 l 39 0 z m 171 1065 l 300 1065 l 471 1281 l 296 1281 z "},"Ĭ":{"ha":482,"x_min":0,"x_max":0,"o":"m 443 0 l 443 169 l 329 169 l 329 829 l 443 829 l 443 996 l 39 996 l 39 829 l 156 829 l 156 169 l 39 169 l 39 0 z m 240 1064 b 435 1278 375 1064 435 1133 l 315 1278 b 240 1176 315 1204 294 1178 b 167 1278 186 1178 167 1204 l 47 1278 b 240 1064 47 1133 96 1064 z "},"Î":{"ha":482,"x_min":0,"x_max":0,"o":"m 443 0 l 443 169 l 329 169 l 329 829 l 443 829 l 443 996 l 39 996 l 39 829 l 156 829 l 156 169 l 39 169 l 39 0 z m 301 1065 l 435 1065 l 299 1294 l 185 1294 l 50 1065 l 179 1065 l 242 1181 z "},"Ï":{"ha":482,"x_min":0,"x_max":0,"o":"m 443 0 l 443 169 l 329 169 l 329 829 l 443 829 l 443 996 l 39 996 l 39 829 l 156 829 l 156 169 l 39 169 l 39 0 z m 344 1063 b 426 1151 403 1063 426 1086 b 344 1242 426 1219 403 1242 b 264 1151 286 1242 264 1219 b 344 1063 264 1082 282 1063 z m 136 1063 b 219 1151 197 1063 219 1086 b 136 1242 219 1219 196 1242 b 56 1151 79 1242 56 1219 b 136 1063 56 1082 75 1063 z "},"İ":{"ha":482,"x_min":0,"x_max":0,"o":"m 443 0 l 443 169 l 329 169 l 329 829 l 443 829 l 443 996 l 39 996 l 39 829 l 156 829 l 156 169 l 39 169 l 39 0 z m 242 1064 b 339 1165 311 1064 339 1086 b 242 1268 339 1247 310 1268 b 144 1165 172 1268 144 1247 b 242 1064 144 1083 167 1064 z "},"Ì":{"ha":482,"x_min":0,"x_max":0,"o":"m 443 0 l 443 169 l 329 169 l 329 829 l 443 829 l 443 996 l 39 996 l 39 829 l 156 829 l 156 169 l 39 169 l 39 0 z m 181 1065 l 303 1065 l 196 1281 l 22 1281 z "},"Ī":{"ha":482,"x_min":0,"x_max":0,"o":"m 443 0 l 443 169 l 329 169 l 329 829 l 443 829 l 443 996 l 39 996 l 39 829 l 156 829 l 156 169 l 39 169 l 39 0 z m 89 1082 l 396 1082 l 396 1210 l 89 1210 z "},"Į":{"ha":482,"x_min":0,"x_max":0,"o":"m 546 -121 l 403 -121 b 354 -171 399 -154 379 -171 b 311 -135 326 -171 311 -160 b 443 0 311 -104 329 -82 l 443 169 l 329 169 l 329 829 l 443 829 l 443 996 l 39 996 l 39 829 l 156 829 l 156 169 l 39 169 l 39 0 l 261 0 b 179 -144 196 -53 179 -97 b 346 -281 179 -235 238 -281 b 546 -121 456 -281 524 -231 z "},"Ĩ":{"ha":482,"x_min":0,"x_max":0,"o":"m 443 0 l 443 169 l 329 169 l 329 829 l 443 829 l 443 996 l 39 996 l 39 829 l 156 829 l 156 169 l 39 169 l 39 0 z m 25 1067 l 135 1067 b 165 1132 135 1113 143 1132 b 331 1061 211 1132 250 1061 b 457 1258 424 1061 457 1119 l 347 1258 b 314 1196 347 1210 339 1196 b 151 1264 275 1196 231 1264 b 25 1067 58 1264 26 1204 z "},"Ĵ":{"ha":614,"x_min":0,"x_max":0,"o":"m 293 -15 b 554 269 468 -15 554 69 l 554 996 l 368 996 l 368 272 b 293 153 368 182 350 153 b 219 250 238 153 219 188 l 219 394 l 33 394 l 33 250 b 293 -15 33 61 122 -15 z m 519 1065 l 653 1065 l 517 1294 l 403 1294 l 268 1065 l 397 1065 l 460 1181 z "},"Ķ":{"ha":676,"x_min":0,"x_max":0,"o":"m 317 453 l 463 0 l 660 0 l 447 607 l 439 629 l 644 996 l 443 996 l 244 619 l 236 596 l 239 644 l 239 996 l 64 996 l 64 0 l 239 0 l 239 382 l 306 504 z m 276 -369 b 435 -171 386 -362 435 -287 b 347 -51 435 -79 414 -51 b 260 -140 283 -51 260 -75 b 332 -224 260 -211 282 -224 b 344 -222 336 -224 340 -224 b 276 -290 339 -265 319 -286 z "},"Ĺ":{"ha":549,"x_min":0,"x_max":0,"o":"m 514 0 l 514 179 l 247 179 l 247 996 l 64 996 l 64 0 z m 85 1065 l 214 1065 l 385 1281 l 210 1281 z "},"Ľ":{"ha":549,"x_min":0,"x_max":0,"o":"m 514 0 l 514 179 l 247 179 l 247 996 l 64 996 l 64 0 z m 360 888 l 468 888 l 561 1100 l 414 1100 z "},"Ļ":{"ha":549,"x_min":0,"x_max":0,"o":"m 514 0 l 514 179 l 247 179 l 247 996 l 64 996 l 64 0 z m 224 -375 b 382 -176 333 -368 382 -293 b 294 -57 382 -85 361 -57 b 207 -146 231 -57 207 -81 b 279 -229 207 -217 229 -229 b 292 -228 283 -229 288 -229 b 224 -296 286 -271 267 -292 z "},"Ŀ":{"ha":576,"x_min":0,"x_max":0,"o":"m 542 0 l 542 179 l 247 179 l 247 996 l 64 996 l 64 0 z m 454 368 b 551 469 524 368 551 390 b 454 572 551 551 522 572 b 357 469 385 572 357 551 b 454 368 357 388 379 368 z "},"Ł":{"ha":564,"x_min":0,"x_max":0,"o":"m 531 0 l 531 179 l 264 179 l 264 475 l 404 508 l 376 647 l 264 621 l 264 996 l 81 996 l 81 576 l -14 554 l 15 415 l 81 431 l 81 0 z "},"Ń":{"ha":704,"x_min":0,"x_max":0,"o":"m 226 536 l 215 685 l 250 565 l 485 0 l 640 0 l 640 996 l 478 996 l 478 457 l 488 322 l 453 435 l 224 996 l 64 996 l 64 0 l 226 0 z m 283 1056 l 413 1056 l 583 1271 l 408 1271 z "},"Ň":{"ha":704,"x_min":0,"x_max":0,"o":"m 226 536 l 215 685 l 250 565 l 485 0 l 640 0 l 640 996 l 478 996 l 478 457 l 488 322 l 453 435 l 224 996 l 64 996 l 64 0 l 226 0 z m 407 1056 l 542 1285 l 413 1285 l 350 1171 l 292 1285 l 158 1285 l 293 1056 z "},"Ņ":{"ha":704,"x_min":0,"x_max":0,"o":"m 226 536 l 215 685 l 250 565 l 485 0 l 640 0 l 640 996 l 478 996 l 478 457 l 488 322 l 453 435 l 224 996 l 64 996 l 64 0 l 226 0 z m 279 -367 b 438 -168 389 -360 438 -285 b 350 -49 438 -76 417 -49 b 263 -137 286 -49 263 -72 b 335 -221 263 -208 285 -221 b 347 -219 339 -221 343 -221 b 279 -287 342 -262 322 -283 z "},"Ñ":{"ha":704,"x_min":0,"x_max":0,"o":"m 226 536 l 215 685 l 250 565 l 485 0 l 640 0 l 640 996 l 478 996 l 478 457 l 488 322 l 453 435 l 224 996 l 64 996 l 64 0 l 226 0 z m 156 1065 l 265 1065 b 296 1131 265 1111 274 1131 b 461 1060 342 1131 381 1060 b 588 1257 554 1060 588 1118 l 478 1257 b 444 1194 478 1208 469 1194 b 282 1263 406 1194 361 1263 b 156 1065 189 1263 157 1203 z "},"Ŋ":{"ha":704,"x_min":0,"x_max":0,"o":"m 431 -267 b 640 -51 606 -267 640 -225 l 640 996 l 476 996 l 476 472 l 488 325 l 458 419 l 224 996 l 64 996 l 64 0 l 226 0 l 226 538 l 215 685 l 246 581 l 478 17 l 478 -31 b 410 -104 478 -94 465 -104 l 361 -104 l 361 -267 z "},"Ó":{"ha":678,"x_min":0,"x_max":0,"o":"m 339 -15 b 626 288 513 -15 626 79 l 626 706 b 339 1008 626 908 513 1008 b 51 706 164 1008 51 908 l 51 288 b 339 -15 51 78 161 -15 z m 339 151 b 238 301 265 151 238 199 l 238 697 b 339 849 238 799 265 849 b 440 697 411 849 440 800 l 440 301 b 339 151 440 199 411 151 z m 282 1081 l 411 1081 l 582 1296 l 407 1296 z "},"Ŏ":{"ha":678,"x_min":0,"x_max":0,"o":"m 339 -15 b 626 288 513 -15 626 79 l 626 706 b 339 1008 626 908 513 1008 b 51 706 164 1008 51 908 l 51 288 b 339 -15 51 78 161 -15 z m 339 151 b 238 301 265 151 238 199 l 238 697 b 339 849 238 799 265 849 b 440 697 411 849 440 800 l 440 301 b 339 151 440 199 411 151 z m 344 1079 b 539 1293 479 1079 539 1149 l 419 1293 b 344 1192 419 1219 399 1193 b 271 1293 290 1193 271 1219 l 151 1293 b 344 1079 151 1149 200 1079 z "},"Ô":{"ha":678,"x_min":0,"x_max":0,"o":"m 339 -15 b 626 288 513 -15 626 79 l 626 706 b 339 1008 626 908 513 1008 b 51 706 164 1008 51 908 l 51 288 b 339 -15 51 78 161 -15 z m 339 151 b 238 301 265 151 238 199 l 238 697 b 339 849 238 799 265 849 b 440 697 411 849 440 800 l 440 301 b 339 151 440 199 411 151 z m 403 1081 l 536 1081 l 400 1310 l 286 1310 l 151 1081 l 281 1081 l 343 1196 z "},"Ö":{"ha":678,"x_min":0,"x_max":0,"o":"m 339 -15 b 626 288 513 -15 626 79 l 626 706 b 339 1008 626 908 513 1008 b 51 706 164 1008 51 908 l 51 288 b 339 -15 51 78 161 -15 z m 339 151 b 238 301 265 151 238 199 l 238 697 b 339 849 238 799 265 849 b 440 697 411 849 440 800 l 440 301 b 339 151 440 199 411 151 z m 446 1071 b 528 1160 504 1071 528 1094 b 446 1250 528 1228 504 1250 b 365 1160 388 1250 365 1228 b 446 1071 365 1090 383 1071 z m 238 1071 b 321 1160 299 1071 321 1094 b 238 1250 321 1228 297 1250 b 157 1160 181 1250 157 1228 b 238 1071 157 1090 176 1071 z "},"Ò":{"ha":678,"x_min":0,"x_max":0,"o":"m 339 -15 b 626 288 513 -15 626 79 l 626 706 b 339 1008 626 908 513 1008 b 51 706 164 1008 51 908 l 51 288 b 339 -15 51 78 161 -15 z m 339 151 b 238 301 265 151 238 199 l 238 697 b 339 849 238 799 265 849 b 440 697 411 849 440 800 l 440 301 b 339 151 440 199 411 151 z m 285 1081 l 407 1081 l 300 1296 l 126 1296 z "},"Ő":{"ha":678,"x_min":0,"x_max":0,"o":"m 339 -15 b 626 288 513 -15 626 79 l 626 706 b 339 1008 626 908 513 1008 b 51 706 164 1008 51 908 l 51 288 b 339 -15 51 78 161 -15 z m 339 151 b 238 301 265 151 238 199 l 238 697 b 339 849 238 799 265 849 b 440 697 411 849 440 800 l 440 301 b 339 151 440 199 411 151 z m 433 1296 l 286 1296 l 196 1081 l 299 1081 z m 631 1296 l 481 1296 l 379 1081 l 483 1081 z "},"Ō":{"ha":678,"x_min":0,"x_max":0,"o":"m 339 -15 b 626 288 513 -15 626 79 l 626 706 b 339 1008 626 908 513 1008 b 51 706 164 1008 51 908 l 51 288 b 339 -15 51 78 161 -15 z m 339 151 b 238 301 265 151 238 199 l 238 697 b 339 849 238 799 265 849 b 440 697 411 849 440 800 l 440 301 b 339 151 440 199 411 151 z m 186 1090 l 493 1090 l 493 1218 l 186 1218 z "},"Ø":{"ha":689,"x_min":0,"x_max":0,"o":"m 344 146 b 232 303 267 146 232 199 l 232 697 b 344 854 232 800 268 854 b 458 697 422 854 458 801 l 458 303 b 344 146 458 197 421 146 z m 344 -18 b 639 290 524 -18 639 83 l 639 704 b 524 965 639 829 597 915 l 564 1113 l 419 1113 l 392 1010 b 346 1013 378 1011 363 1013 b 50 704 164 1013 50 907 l 50 292 b 174 24 50 160 94 71 l 128 -136 l 278 -136 l 308 -17 b 344 -18 321 -18 332 -18 z "},"Ǿ":{"ha":689,"x_min":0,"x_max":0,"o":"m 344 146 b 232 303 267 146 232 199 l 232 697 b 344 854 232 800 268 854 b 458 697 422 854 458 801 l 458 303 b 344 146 458 197 421 146 z m 344 -18 b 639 290 524 -18 639 83 l 639 704 b 524 965 639 829 597 915 l 564 1113 l 419 1113 l 392 1010 b 346 1013 378 1011 363 1013 b 50 704 164 1013 50 907 l 50 292 b 174 24 50 160 94 71 l 128 -136 l 278 -136 l 308 -17 b 344 -18 321 -18 332 -18 z m 263 1135 l 392 1135 l 563 1350 l 388 1350 z "},"Õ":{"ha":678,"x_min":0,"x_max":0,"o":"m 339 -15 b 626 288 513 -15 626 79 l 626 706 b 339 1008 626 908 513 1008 b 51 706 164 1008 51 908 l 51 288 b 339 -15 51 78 161 -15 z m 339 151 b 238 301 265 151 238 199 l 238 697 b 339 849 238 799 265 849 b 440 697 411 849 440 800 l 440 301 b 339 151 440 199 411 151 z m 126 1082 l 236 1082 b 267 1147 236 1128 244 1147 b 432 1076 313 1147 351 1076 b 558 1274 525 1076 558 1135 l 449 1274 b 415 1211 449 1225 440 1211 b 253 1279 376 1211 332 1279 b 126 1082 160 1279 128 1219 z "},"Œ":{"ha":939,"x_min":0,"x_max":0,"o":"m 336 151 b 235 303 263 151 235 201 l 235 696 b 336 849 235 796 263 849 b 438 696 408 849 438 799 l 438 303 b 336 151 438 200 408 151 z m 433 0 l 899 0 l 899 167 l 610 167 l 610 425 l 865 425 l 865 586 l 610 586 l 610 836 l 890 836 l 890 996 l 433 996 l 433 936 b 289 1008 408 983 365 1008 b 49 704 139 1008 49 908 l 49 290 b 289 -14 49 81 131 -14 b 433 63 365 -14 408 13 z "},"Ŕ":{"ha":644,"x_min":0,"x_max":0,"o":"m 321 843 b 421 749 393 843 421 814 l 421 638 b 322 539 421 571 393 539 l 238 539 l 238 843 z m 313 381 b 407 282 386 381 407 351 l 407 67 b 425 0 407 35 413 10 l 614 0 b 588 65 597 15 588 35 l 588 290 b 492 464 588 389 564 440 b 597 639 560 490 597 543 l 597 758 b 332 996 597 922 518 996 l 64 996 l 64 0 l 238 0 l 238 381 z m 250 1065 l 379 1065 l 550 1281 l 375 1281 z "},"Ř":{"ha":644,"x_min":0,"x_max":0,"o":"m 321 843 b 421 749 393 843 421 814 l 421 638 b 322 539 421 571 393 539 l 238 539 l 238 843 z m 313 381 b 407 282 386 381 407 351 l 407 67 b 425 0 407 35 413 10 l 614 0 b 588 65 597 15 588 35 l 588 290 b 492 464 588 389 564 440 b 597 639 560 490 597 543 l 597 758 b 332 996 597 922 518 996 l 64 996 l 64 0 l 238 0 l 238 381 z m 374 1065 l 508 1294 l 379 1294 l 317 1181 l 258 1294 l 125 1294 l 260 1065 z "},"Ŗ":{"ha":644,"x_min":0,"x_max":0,"o":"m 321 843 b 421 749 393 843 421 814 l 421 638 b 322 539 421 571 393 539 l 238 539 l 238 843 z m 313 381 b 407 282 386 381 407 351 l 407 67 b 425 0 407 35 413 10 l 614 0 b 588 65 597 15 588 35 l 588 290 b 492 464 588 389 564 440 b 597 639 560 490 597 543 l 597 758 b 332 996 597 922 518 996 l 64 996 l 64 0 l 238 0 l 238 381 z m 261 -371 b 419 -172 371 -364 419 -289 b 332 -53 419 -81 399 -53 b 244 -142 268 -53 244 -76 b 317 -225 244 -212 267 -225 b 329 -224 321 -225 325 -225 b 261 -292 324 -267 304 -287 z "},"Ś":{"ha":613,"x_min":0,"x_max":0,"o":"m 308 -15 b 578 238 486 -15 578 79 l 578 314 b 376 581 578 469 472 531 b 221 733 296 622 221 657 l 221 761 b 304 860 221 821 244 860 b 389 765 365 860 389 829 l 389 668 l 565 668 l 565 776 b 306 1010 565 921 483 1010 b 42 763 128 1010 42 915 l 42 721 b 240 457 42 567 144 507 b 399 293 322 414 399 376 l 399 242 b 311 146 399 186 376 146 b 217 247 239 146 217 185 l 217 378 l 31 378 l 31 244 b 308 -15 31 75 103 -15 z m 233 1082 l 363 1082 l 533 1297 l 358 1297 z "},"Š":{"ha":613,"x_min":0,"x_max":0,"o":"m 308 -15 b 578 238 486 -15 578 79 l 578 314 b 376 581 578 469 472 531 b 221 733 296 622 221 657 l 221 761 b 304 860 221 821 244 860 b 389 765 365 860 389 829 l 389 668 l 565 668 l 565 776 b 306 1010 565 921 483 1010 b 42 763 128 1010 42 915 l 42 721 b 240 457 42 567 144 507 b 399 293 322 414 399 376 l 399 242 b 311 146 399 186 376 146 b 217 247 239 146 217 185 l 217 378 l 31 378 l 31 244 b 308 -15 31 75 103 -15 z m 363 1082 l 497 1311 l 368 1311 l 306 1197 l 247 1311 l 114 1311 l 249 1082 z "},"Ş":{"ha":613,"x_min":0,"x_max":0,"o":"m 313 -337 b 500 -193 429 -337 500 -286 b 363 -69 500 -112 451 -75 l 363 -12 b 578 238 504 6 578 96 l 578 314 b 376 581 578 469 472 531 b 221 733 296 622 221 657 l 221 761 b 304 860 221 821 244 860 b 389 765 365 860 389 829 l 389 668 l 565 668 l 565 776 b 306 1010 565 921 483 1010 b 42 763 128 1010 42 915 l 42 721 b 240 457 42 567 144 507 b 399 293 322 414 399 376 l 399 242 b 311 146 399 186 376 146 b 217 247 239 146 217 185 l 217 378 l 31 378 l 31 244 b 247 -12 31 93 89 4 l 247 -153 l 313 -153 b 374 -192 356 -153 374 -168 b 314 -236 374 -219 354 -236 b 247 -187 275 -236 254 -221 l 108 -187 b 313 -337 126 -290 185 -337 z "},"Ŝ":{"ha":613,"x_min":0,"x_max":0,"o":"m 308 -15 b 578 238 486 -15 578 79 l 578 314 b 376 581 578 469 472 531 b 221 733 296 622 221 657 l 221 761 b 304 860 221 821 244 860 b 389 765 365 860 389 829 l 389 668 l 565 668 l 565 776 b 306 1010 565 921 483 1010 b 42 763 128 1010 42 915 l 42 721 b 240 457 42 567 144 507 b 399 293 322 414 399 376 l 399 242 b 311 146 399 186 376 146 b 217 247 239 146 217 185 l 217 378 l 31 378 l 31 244 b 308 -15 31 75 103 -15 z m 369 1081 l 503 1081 l 367 1310 l 253 1310 l 118 1081 l 247 1081 l 310 1196 z "},"Ș":{"ha":613,"x_min":0,"x_max":0,"o":"m 308 -15 b 578 238 486 -15 578 79 l 578 314 b 376 581 578 469 472 531 b 221 733 296 622 221 657 l 221 761 b 304 860 221 821 244 860 b 389 765 365 860 389 829 l 389 668 l 565 668 l 565 776 b 306 1010 565 921 483 1010 b 42 763 128 1010 42 915 l 42 721 b 240 457 42 567 144 507 b 399 293 322 414 399 376 l 399 242 b 311 146 399 186 376 146 b 217 247 239 146 217 185 l 217 378 l 31 378 l 31 244 b 308 -15 31 75 103 -15 z m 238 -396 b 396 -197 347 -389 396 -314 b 308 -78 396 -106 375 -78 b 221 -167 244 -78 221 -101 b 293 -250 221 -237 243 -250 b 306 -249 297 -250 301 -250 b 238 -317 300 -292 281 -312 z "},"Ŧ":{"ha":563,"x_min":0,"x_max":0,"o":"m 467 404 l 467 554 l 371 554 l 371 832 l 536 832 l 536 996 l 28 996 l 28 832 l 192 832 l 192 554 l 93 554 l 93 404 l 192 404 l 192 0 l 371 0 l 371 404 z "},"Ť":{"ha":563,"x_min":0,"x_max":0,"o":"m 536 832 l 536 996 l 28 996 l 28 832 l 192 832 l 192 0 l 371 0 l 371 832 z m 339 1065 l 474 1294 l 344 1294 l 282 1181 l 224 1294 l 90 1294 l 225 1065 z "},"Ţ":{"ha":563,"x_min":0,"x_max":0,"o":"m 536 832 l 536 996 l 28 996 l 28 832 l 192 832 l 192 0 l 371 0 l 371 832 z m 215 -382 b 374 -183 325 -375 374 -300 b 286 -64 374 -92 353 -64 b 199 -153 222 -64 199 -87 b 271 -236 199 -224 221 -236 b 283 -235 275 -236 279 -236 b 215 -303 278 -278 258 -299 z "},"Ú":{"ha":660,"x_min":0,"x_max":0,"o":"m 331 -15 b 601 283 504 -15 601 76 l 601 996 l 421 996 l 421 294 b 331 160 421 196 396 160 b 240 294 265 160 240 197 l 240 996 l 58 996 l 58 283 b 331 -15 58 76 151 -15 z m 261 1063 l 390 1063 l 561 1278 l 386 1278 z "},"Ŭ":{"ha":660,"x_min":0,"x_max":0,"o":"m 331 -15 b 601 283 504 -15 601 76 l 601 996 l 421 996 l 421 294 b 331 160 421 196 396 160 b 240 294 265 160 240 197 l 240 996 l 58 996 l 58 283 b 331 -15 58 76 151 -15 z m 329 1061 b 524 1275 464 1061 524 1131 l 404 1275 b 329 1174 404 1201 383 1175 b 256 1275 275 1175 256 1201 l 136 1275 b 329 1061 136 1131 185 1061 z "},"Û":{"ha":660,"x_min":0,"x_max":0,"o":"m 331 -15 b 601 283 504 -15 601 76 l 601 996 l 421 996 l 421 294 b 331 160 421 196 396 160 b 240 294 265 160 240 197 l 240 996 l 58 996 l 58 283 b 331 -15 58 76 151 -15 z m 390 1063 l 524 1063 l 388 1292 l 274 1292 l 139 1063 l 268 1063 l 331 1178 z "},"Ü":{"ha":660,"x_min":0,"x_max":0,"o":"m 331 -15 b 601 283 504 -15 601 76 l 601 996 l 421 996 l 421 294 b 331 160 421 196 396 160 b 240 294 265 160 240 197 l 240 996 l 58 996 l 58 283 b 331 -15 58 76 151 -15 z m 433 1060 b 515 1149 492 1060 515 1083 b 433 1239 515 1217 492 1239 b 353 1149 375 1239 353 1217 b 433 1060 353 1079 371 1060 z m 225 1060 b 308 1149 286 1060 308 1083 b 225 1239 308 1217 285 1239 b 144 1149 168 1239 144 1217 b 225 1060 144 1079 164 1060 z "},"Ù":{"ha":660,"x_min":0,"x_max":0,"o":"m 331 -15 b 601 283 504 -15 601 76 l 601 996 l 421 996 l 421 294 b 331 160 421 196 396 160 b 240 294 265 160 240 197 l 240 996 l 58 996 l 58 283 b 331 -15 58 76 151 -15 z m 272 1063 l 394 1063 l 288 1278 l 114 1278 z "},"Ű":{"ha":660,"x_min":0,"x_max":0,"o":"m 331 -15 b 601 283 504 -15 601 76 l 601 996 l 421 996 l 421 294 b 331 160 421 196 396 160 b 240 294 265 160 240 197 l 240 996 l 58 996 l 58 283 b 331 -15 58 76 151 -15 z m 419 1278 l 272 1278 l 182 1063 l 285 1063 z m 617 1278 l 467 1278 l 365 1063 l 469 1063 z "},"Ū":{"ha":660,"x_min":0,"x_max":0,"o":"m 331 -15 b 601 283 504 -15 601 76 l 601 996 l 421 996 l 421 294 b 331 160 421 196 396 160 b 240 294 265 160 240 197 l 240 996 l 58 996 l 58 283 b 331 -15 58 76 151 -15 z m 176 1072 l 483 1072 l 483 1200 l 176 1200 z "},"Ų":{"ha":660,"x_min":0,"x_max":0,"o":"m 371 -267 b 571 -107 481 -267 549 -217 l 428 -107 b 379 -157 424 -140 404 -157 b 336 -121 351 -157 336 -146 b 458 7 336 -92 353 -69 b 601 283 551 46 601 135 l 601 996 l 421 996 l 421 294 b 331 160 421 196 396 160 b 240 294 265 160 240 197 l 240 996 l 58 996 l 58 283 b 260 -10 58 106 126 14 b 204 -131 217 -53 204 -90 b 371 -267 204 -221 263 -267 z "},"Ů":{"ha":660,"x_min":0,"x_max":0,"o":"m 331 -15 b 601 283 504 -15 601 76 l 601 996 l 421 996 l 421 294 b 331 160 421 196 396 160 b 240 294 265 160 240 197 l 240 996 l 58 996 l 58 283 b 331 -15 58 76 151 -15 z m 329 1047 b 489 1194 426 1047 489 1101 b 329 1343 489 1289 425 1343 b 171 1193 238 1343 171 1289 b 329 1047 171 1097 233 1047 z m 329 1150 b 285 1194 299 1150 285 1168 b 329 1242 285 1222 300 1242 b 376 1194 360 1242 376 1222 b 329 1150 376 1167 356 1150 z "},"Ũ":{"ha":660,"x_min":0,"x_max":0,"o":"m 331 -15 b 601 283 504 -15 601 76 l 601 996 l 421 996 l 421 294 b 331 160 421 196 396 160 b 240 294 265 160 240 197 l 240 996 l 58 996 l 58 283 b 331 -15 58 76 151 -15 z m 114 1064 l 224 1064 b 254 1129 224 1110 232 1129 b 419 1058 300 1129 339 1058 b 546 1256 513 1058 546 1117 l 436 1256 b 403 1193 436 1207 428 1193 b 240 1261 364 1193 319 1261 b 114 1064 147 1261 115 1201 z "},"Ẃ":{"ha":936,"x_min":0,"x_max":0,"o":"m 453 554 l 464 711 l 475 554 l 579 0 l 743 0 l 918 996 l 747 996 l 661 442 l 649 247 l 632 431 l 526 996 l 407 996 l 294 431 l 275 260 l 268 442 l 192 996 l 19 996 l 176 0 l 342 0 z m 397 1065 l 526 1065 l 697 1281 l 522 1281 z "},"Ŵ":{"ha":936,"x_min":0,"x_max":0,"o":"m 453 554 l 464 711 l 475 554 l 579 0 l 743 0 l 918 996 l 747 996 l 661 442 l 649 247 l 632 431 l 526 996 l 407 996 l 294 431 l 275 260 l 268 442 l 192 996 l 19 996 l 176 0 l 342 0 z m 526 1065 l 660 1065 l 524 1294 l 410 1294 l 275 1065 l 404 1065 l 467 1181 z "},"Ẅ":{"ha":936,"x_min":0,"x_max":0,"o":"m 453 554 l 464 711 l 475 554 l 579 0 l 743 0 l 918 996 l 747 996 l 661 442 l 649 247 l 632 431 l 526 996 l 407 996 l 294 431 l 275 260 l 268 442 l 192 996 l 19 996 l 176 0 l 342 0 z m 569 1063 b 651 1151 628 1063 651 1086 b 569 1242 651 1219 628 1242 b 489 1151 511 1242 489 1219 b 569 1063 489 1082 507 1063 z m 361 1063 b 444 1151 422 1063 444 1086 b 361 1242 444 1219 421 1242 b 281 1151 304 1242 281 1219 b 361 1063 281 1082 300 1063 z "},"Ẁ":{"ha":936,"x_min":0,"x_max":0,"o":"m 453 554 l 464 711 l 475 554 l 579 0 l 743 0 l 918 996 l 747 996 l 661 442 l 649 247 l 632 431 l 526 996 l 407 996 l 294 431 l 275 260 l 268 442 l 192 996 l 19 996 l 176 0 l 342 0 z m 407 1065 l 529 1065 l 422 1281 l 249 1281 z "},"Ý":{"ha":599,"x_min":0,"x_max":0,"o":"m 389 0 l 389 357 l 599 996 l 414 996 l 310 635 l 299 550 l 288 635 l 188 996 l 1 996 l 204 357 l 204 0 z m 235 1061 l 364 1061 l 535 1276 l 360 1276 z "},"Ŷ":{"ha":599,"x_min":0,"x_max":0,"o":"m 389 0 l 389 357 l 599 996 l 414 996 l 310 635 l 299 550 l 288 635 l 188 996 l 1 996 l 204 357 l 204 0 z m 364 1061 l 497 1061 l 361 1290 l 247 1290 l 113 1061 l 242 1061 l 304 1176 z "},"Ÿ":{"ha":599,"x_min":0,"x_max":0,"o":"m 389 0 l 389 357 l 599 996 l 414 996 l 310 635 l 299 550 l 288 635 l 188 996 l 1 996 l 204 357 l 204 0 z m 407 1058 b 489 1147 465 1058 489 1082 b 407 1238 489 1215 465 1238 b 326 1147 349 1238 326 1215 b 407 1058 326 1078 344 1058 z m 199 1058 b 282 1147 260 1058 282 1082 b 199 1238 282 1215 258 1238 b 118 1147 142 1238 118 1215 b 199 1058 118 1078 138 1058 z "},"Ỳ":{"ha":599,"x_min":0,"x_max":0,"o":"m 389 0 l 389 357 l 599 996 l 414 996 l 310 635 l 299 550 l 288 635 l 188 996 l 1 996 l 204 357 l 204 0 z m 244 1061 l 367 1061 l 260 1276 l 86 1276 z "},"Ĳ":{"ha":824,"x_min":0,"x_max":0,"o":"m 496 0 l 542 0 b 764 247 725 0 764 33 l 764 997 l 578 997 l 578 253 b 517 169 578 181 572 169 l 496 169 z m 439 0 l 439 169 l 328 169 l 328 829 l 442 829 l 442 996 l 39 996 l 39 829 l 154 829 l 154 169 l 39 169 l 39 0 z "},"Ź":{"ha":592,"x_min":0,"x_max":0,"o":"m 550 0 l 550 174 l 246 174 l 546 840 l 546 996 l 61 996 l 61 825 l 350 825 l 42 150 l 42 0 z m 232 1065 l 361 1065 l 532 1281 l 357 1281 z "},"Ž":{"ha":592,"x_min":0,"x_max":0,"o":"m 550 0 l 550 174 l 246 174 l 546 840 l 546 996 l 61 996 l 61 825 l 350 825 l 42 150 l 42 0 z m 356 1065 l 490 1294 l 361 1294 l 299 1181 l 240 1294 l 107 1294 l 242 1065 z "},"Ż":{"ha":592,"x_min":0,"x_max":0,"o":"m 550 0 l 550 174 l 246 174 l 546 840 l 546 996 l 61 996 l 61 825 l 350 825 l 42 150 l 42 0 z m 300 1064 b 397 1165 369 1064 397 1086 b 300 1268 397 1247 368 1268 b 203 1165 231 1268 203 1247 b 300 1064 203 1083 225 1064 z "},"Þ":{"ha":640,"x_min":0,"x_max":0,"o":"m 322 682 b 426 588 392 682 426 660 l 426 425 b 324 326 426 356 392 326 l 242 326 l 242 682 z m 332 169 b 606 422 524 169 606 263 l 606 590 b 331 836 606 757 521 836 l 242 836 l 242 996 l 65 996 l 65 0 l 242 0 l 242 169 z "},"a":{"ha":622,"x_min":0,"x_max":0,"o":"m 297 126 b 221 203 250 126 221 156 l 221 238 b 246 328 221 283 228 308 b 331 378 261 347 286 361 b 396 414 365 390 386 400 l 396 260 b 297 126 396 179 360 126 z m 428 0 l 568 0 l 568 579 b 313 817 568 738 490 817 b 56 589 139 817 56 726 l 56 503 l 228 503 l 228 586 b 314 676 228 644 257 676 b 396 590 369 676 396 649 l 396 572 b 279 468 396 517 371 501 b 101 386 192 438 144 422 b 36 231 61 350 36 301 l 36 185 b 224 -12 36 58 93 -12 b 404 104 311 -12 372 29 z "},"b":{"ha":644,"x_min":0,"x_max":0,"o":"m 388 -11 b 596 299 526 -11 596 85 l 596 524 b 390 817 596 731 521 817 b 235 700 310 817 260 776 l 235 1042 l 60 1042 l 60 0 l 208 0 l 226 124 b 388 -11 244 42 292 -11 z m 328 143 b 233 283 267 143 233 189 l 233 522 b 328 665 233 607 264 665 b 418 526 390 665 418 622 l 418 292 b 328 143 418 183 388 143 z "},"c":{"ha":619,"x_min":0,"x_max":0,"o":"m 311 -14 b 576 256 488 -14 576 74 l 576 357 l 394 357 l 394 261 b 313 143 394 179 374 143 b 226 267 250 143 226 181 l 226 535 b 314 665 226 629 251 665 b 394 542 376 665 394 632 l 394 468 l 576 468 l 576 544 b 319 818 576 726 490 818 b 49 538 147 818 49 726 l 49 263 b 311 -14 49 76 131 -14 z "},"d":{"ha":644,"x_min":0,"x_max":0,"o":"m 315 142 b 226 293 258 142 226 182 l 226 522 b 319 665 226 621 254 665 b 411 522 383 665 411 607 l 411 281 b 315 142 411 189 378 142 z m 438 0 l 585 0 l 585 1042 l 411 1042 l 411 707 b 258 817 388 778 340 817 b 49 524 132 817 49 731 l 49 297 b 256 -11 49 83 118 -11 b 418 119 351 -11 399 42 z "},"e":{"ha":622,"x_min":0,"x_max":0,"o":"m 222 536 b 321 668 222 625 253 668 b 411 543 389 668 411 626 l 411 475 l 222 475 z m 318 -14 b 582 258 535 -12 582 107 l 582 279 l 406 279 l 406 254 b 319 140 406 183 388 140 b 222 265 250 140 222 176 l 222 353 l 582 353 l 582 542 b 318 818 582 706 506 818 b 50 536 153 818 50 715 l 50 265 b 318 -14 50 82 132 -15 z "},"f":{"ha":414,"x_min":0,"x_max":0,"o":"m 396 647 l 396 807 l 281 807 l 281 850 b 347 931 281 913 292 931 l 396 931 l 396 1085 l 319 1085 b 107 865 171 1085 107 1025 l 107 807 l 15 807 l 15 647 l 107 647 l 107 0 l 279 0 l 281 647 z "},"g":{"ha":621,"x_min":0,"x_max":0,"o":"m 299 -272 b 617 -51 526 -272 617 -172 l 617 -49 b 378 140 617 72 540 140 l 264 140 b 178 174 196 139 178 151 b 282 213 178 200 201 213 l 313 213 b 572 439 482 213 572 289 l 572 594 b 411 788 572 701 517 774 b 399 789 407 788 403 789 b 576 949 536 793 576 839 l 576 965 l 392 965 l 392 918 b 281 815 392 847 368 831 l 260 811 b 54 589 131 790 54 722 l 54 440 b 164 260 54 344 89 286 b 32 126 76 240 32 197 b 157 -1 32 56 72 11 b 26 -132 74 -24 26 -74 b 282 -272 26 -217 97 -272 z m 313 342 b 232 429 261 342 232 369 l 232 599 b 294 688 232 649 253 679 b 315 690 300 690 308 690 b 397 600 372 690 397 654 l 397 431 b 313 342 397 374 365 342 z m 290 -133 b 190 -81 224 -133 190 -111 l 190 -76 b 292 -6 190 -39 236 -8 l 358 -6 b 447 -60 421 -6 447 -29 l 447 -64 b 319 -133 447 -101 404 -133 z "},"h":{"ha":638,"x_min":0,"x_max":0,"o":"m 236 532 b 325 660 236 614 263 660 b 401 546 385 660 401 619 l 401 0 l 581 0 l 581 575 b 397 817 581 735 519 817 b 236 693 308 817 258 771 l 236 1042 l 60 1042 l 60 0 l 236 0 z "},"i":{"ha":301,"x_min":0,"x_max":0,"o":"m 153 853 b 257 956 225 853 257 876 b 153 1058 257 1035 226 1058 b 49 956 78 1058 49 1035 b 153 853 49 875 74 853 z m 60 0 l 242 0 l 242 804 b 151 792 232 797 181 792 b 60 804 121 792 69 796 z "},"j":{"ha":304,"x_min":0,"x_max":0,"o":"m 154 853 b 258 956 226 853 258 876 b 154 1058 258 1035 228 1058 b 50 956 79 1058 50 1035 b 154 853 50 875 76 853 z m -51 -275 l 29 -275 b 243 -60 193 -275 243 -224 l 243 804 b 154 792 233 797 183 792 b 63 804 124 792 72 796 l 63 -31 b -3 -106 63 -93 51 -106 l -51 -106 z "},"k":{"ha":621,"x_min":0,"x_max":0,"o":"m 297 379 l 432 0 l 619 0 l 428 503 l 611 807 l 417 807 l 253 529 l 231 478 l 233 528 l 233 1042 l 60 1042 l 60 0 l 233 0 l 233 292 l 293 406 z "},"l":{"ha":297,"x_min":0,"x_max":0,"o":"m 238 0 l 238 1042 l 60 1042 l 60 0 z "},"m":{"ha":951,"x_min":0,"x_max":0,"o":"m 236 538 b 315 665 236 617 256 665 b 389 554 374 665 389 622 l 389 0 l 567 0 l 567 550 b 644 665 567 618 586 665 b 719 551 701 665 719 625 l 719 0 l 897 0 l 897 582 b 711 821 897 742 836 821 b 550 700 629 821 576 775 b 386 821 529 778 478 821 b 222 694 303 821 247 772 l 204 807 l 60 807 l 60 0 l 236 0 z "},"n":{"ha":639,"x_min":0,"x_max":0,"o":"m 239 532 b 328 660 239 614 265 660 b 406 546 388 660 406 619 l 406 0 l 585 0 l 585 575 b 393 817 585 735 522 817 b 225 689 304 817 249 769 l 206 807 l 60 807 l 60 0 l 239 0 z "},"o":{"ha":631,"x_min":0,"x_max":0,"o":"m 315 -14 b 582 263 488 -14 582 76 l 582 538 b 315 818 582 724 485 818 b 49 538 150 818 49 725 l 49 263 b 315 -14 49 75 136 -14 z m 315 143 b 226 267 256 143 226 183 l 226 536 b 315 665 226 625 256 665 b 404 536 378 665 404 624 l 404 267 b 315 143 404 183 375 143 z "},"p":{"ha":642,"x_min":0,"x_max":0,"o":"m 324 142 b 233 274 263 142 233 189 l 233 525 b 326 665 233 617 263 665 b 418 518 388 665 418 628 l 418 278 b 324 142 418 181 386 142 z m 386 -11 b 594 290 517 -11 594 74 l 594 510 b 388 817 594 729 524 817 b 225 688 300 817 249 769 l 204 807 l 60 807 l 60 -258 l 233 -258 l 233 106 b 386 -11 254 31 301 -11 z "},"q":{"ha":644,"x_min":0,"x_max":0,"o":"m 585 -258 l 585 807 l 439 807 l 419 696 b 261 817 399 769 351 817 b 49 513 118 817 49 722 l 49 274 b 253 -12 49 63 125 -11 b 410 108 338 -12 388 26 l 410 -258 z m 317 140 b 226 278 260 140 226 182 l 226 521 b 319 664 226 628 258 664 b 411 518 382 664 411 613 l 411 275 b 317 140 411 190 376 140 z "},"r":{"ha":426,"x_min":0,"x_max":0,"o":"m 235 0 l 235 469 b 360 615 235 579 256 615 l 407 615 l 407 815 l 381 815 b 217 663 268 815 226 782 l 189 807 l 60 807 l 60 0 z "},"s":{"ha":579,"x_min":0,"x_max":0,"o":"m 292 -15 b 551 222 464 -15 551 79 l 551 243 b 350 482 551 394 444 444 b 211 590 276 511 211 533 l 211 600 b 290 676 211 644 235 676 b 369 596 347 676 369 647 l 369 542 l 539 542 l 539 603 b 289 818 539 733 463 818 b 39 596 119 818 39 724 l 39 582 b 231 356 39 436 139 390 b 376 233 307 326 376 304 l 376 222 b 294 138 376 169 350 138 b 208 222 232 138 208 164 l 208 293 l 28 293 l 28 211 b 292 -15 28 63 106 -15 z "},"t":{"ha":426,"x_min":0,"x_max":0,"o":"m 399 171 l 365 171 b 275 281 296 171 275 182 l 275 636 l 400 636 l 400 807 l 275 807 l 275 958 l 147 958 b 131 871 143 921 140 897 b 83 811 119 842 106 824 b 17 796 63 800 43 797 l 17 636 l 107 636 l 107 242 b 324 0 107 51 158 0 l 399 0 z "},"u":{"ha":631,"x_min":0,"x_max":0,"o":"m 426 0 l 571 0 l 571 807 l 393 807 l 393 275 b 311 146 393 193 371 146 b 236 260 253 146 236 188 l 236 807 l 57 807 l 57 229 b 247 -12 57 67 117 -12 b 406 117 333 -12 385 35 z "},"v":{"ha":585,"x_min":0,"x_max":0,"o":"m 379 0 l 579 807 l 401 807 l 306 350 l 292 196 l 278 350 l 183 807 l 6 807 l 204 0 z "},"w":{"ha":861,"x_min":0,"x_max":0,"o":"m 411 421 l 425 554 l 435 422 l 525 0 l 692 0 l 857 807 l 688 807 l 604 344 l 596 186 l 579 347 l 482 807 l 371 807 l 269 347 l 246 192 l 244 347 l 176 807 l 4 807 l 146 0 l 317 0 z "},"x":{"ha":604,"x_min":0,"x_max":0,"o":"m 294 240 l 303 296 l 313 240 l 413 0 l 600 0 l 404 426 l 581 807 l 394 807 l 310 588 l 303 542 l 296 589 l 211 807 l 24 807 l 203 424 l 6 0 l 194 0 z "},"y":{"ha":600,"x_min":0,"x_max":0,"o":"m 129 -249 b 375 -46 292 -249 332 -212 l 590 807 l 415 807 l 318 375 l 306 221 l 294 372 l 190 807 l 13 807 l 225 38 l 215 -8 b 110 -82 200 -71 181 -82 l 43 -82 l 43 -249 z "},"z":{"ha":535,"x_min":0,"x_max":0,"o":"m 36 -1 l 501 0 l 501 160 l 242 160 l 500 661 l 500 807 l 49 807 l 49 651 l 307 651 l 36 139 z "},"á":{"ha":622,"x_min":0,"x_max":0,"o":"m 297 126 b 221 203 250 126 221 156 l 221 238 b 246 328 221 283 228 308 b 331 378 261 347 286 361 b 396 414 365 390 386 400 l 396 260 b 297 126 396 179 360 126 z m 428 0 l 568 0 l 568 579 b 313 817 568 738 490 817 b 56 589 139 817 56 726 l 56 503 l 228 503 l 228 586 b 314 676 228 644 257 676 b 396 590 369 676 396 649 l 396 572 b 279 468 396 517 371 501 b 101 386 192 438 144 422 b 36 231 61 350 36 301 l 36 185 b 224 -12 36 58 93 -12 b 404 104 311 -12 372 29 z m 240 886 l 369 886 l 540 1101 l 365 1101 z "},"ă":{"ha":622,"x_min":0,"x_max":0,"o":"m 297 126 b 221 203 250 126 221 156 l 221 238 b 246 328 221 283 228 308 b 331 378 261 347 286 361 b 396 414 365 390 386 400 l 396 260 b 297 126 396 179 360 126 z m 428 0 l 568 0 l 568 579 b 313 817 568 738 490 817 b 56 589 139 817 56 726 l 56 503 l 228 503 l 228 586 b 314 676 228 644 257 676 b 396 590 369 676 396 649 l 396 572 b 279 468 396 517 371 501 b 101 386 192 438 144 422 b 36 231 61 350 36 301 l 36 185 b 224 -12 36 58 93 -12 b 404 104 311 -12 372 29 z m 317 885 b 511 1099 451 885 511 954 l 392 1099 b 317 997 392 1025 371 999 b 243 1099 263 999 243 1025 l 124 1099 b 317 885 124 954 172 885 z "},"â":{"ha":622,"x_min":0,"x_max":0,"o":"m 297 126 b 221 203 250 126 221 156 l 221 238 b 246 328 221 283 228 308 b 331 378 261 347 286 361 b 396 414 365 390 386 400 l 396 260 b 297 126 396 179 360 126 z m 428 0 l 568 0 l 568 579 b 313 817 568 738 490 817 b 56 589 139 817 56 726 l 56 503 l 228 503 l 228 586 b 314 676 228 644 257 676 b 396 590 369 676 396 649 l 396 572 b 279 468 396 517 371 501 b 101 386 192 438 144 422 b 36 231 61 350 36 301 l 36 185 b 224 -12 36 58 93 -12 b 404 104 311 -12 372 29 z m 379 886 l 513 886 l 376 1115 l 263 1115 l 128 886 l 257 886 l 319 1001 z "},"ä":{"ha":622,"x_min":0,"x_max":0,"o":"m 297 126 b 221 203 250 126 221 156 l 221 238 b 246 328 221 283 228 308 b 331 378 261 347 286 361 b 396 414 365 390 386 400 l 396 260 b 297 126 396 179 360 126 z m 428 0 l 568 0 l 568 579 b 313 817 568 738 490 817 b 56 589 139 817 56 726 l 56 503 l 228 503 l 228 586 b 314 676 228 644 257 676 b 396 590 369 676 396 649 l 396 572 b 279 468 396 517 371 501 b 101 386 192 438 144 422 b 36 231 61 350 36 301 l 36 185 b 224 -12 36 58 93 -12 b 404 104 311 -12 372 29 z m 422 883 b 504 972 481 883 504 907 b 422 1063 504 1040 481 1063 b 342 972 364 1063 342 1040 b 422 883 342 903 360 883 z m 214 883 b 297 972 275 883 297 907 b 214 1063 297 1040 274 1063 b 133 972 157 1063 133 1040 b 214 883 133 903 153 883 z "},"à":{"ha":622,"x_min":0,"x_max":0,"o":"m 297 126 b 221 203 250 126 221 156 l 221 238 b 246 328 221 283 228 308 b 331 378 261 347 286 361 b 396 414 365 390 386 400 l 396 260 b 297 126 396 179 360 126 z m 428 0 l 568 0 l 568 579 b 313 817 568 738 490 817 b 56 589 139 817 56 726 l 56 503 l 228 503 l 228 586 b 314 676 228 644 257 676 b 396 590 369 676 396 649 l 396 572 b 279 468 396 517 371 501 b 101 386 192 438 144 422 b 36 231 61 350 36 301 l 36 185 b 224 -12 36 58 93 -12 b 404 104 311 -12 372 29 z m 260 886 l 382 886 l 275 1101 l 101 1101 z "},"ā":{"ha":622,"x_min":0,"x_max":0,"o":"m 297 126 b 221 203 250 126 221 156 l 221 238 b 246 328 221 283 228 308 b 331 378 261 347 286 361 b 396 414 365 390 386 400 l 396 260 b 297 126 396 179 360 126 z m 428 0 l 568 0 l 568 579 b 313 817 568 738 490 817 b 56 589 139 817 56 726 l 56 503 l 228 503 l 228 586 b 314 676 228 644 257 676 b 396 590 369 676 396 649 l 396 572 b 279 468 396 517 371 501 b 101 386 192 438 144 422 b 36 231 61 350 36 301 l 36 185 b 224 -12 36 58 93 -12 b 404 104 311 -12 372 29 z m 164 896 l 471 896 l 471 1024 l 164 1024 z "},"ą":{"ha":622,"x_min":0,"x_max":0,"o":"m 297 126 b 221 203 250 126 221 156 l 221 238 b 246 328 221 283 228 308 b 331 378 261 347 286 361 b 396 414 365 390 386 400 l 396 260 b 297 126 396 179 360 126 z m 671 -121 l 528 -121 b 479 -171 524 -154 504 -171 b 436 -135 451 -171 436 -160 b 568 0 436 -104 454 -82 l 568 579 b 313 817 568 738 490 817 b 56 589 139 817 56 726 l 56 503 l 228 503 l 228 586 b 314 676 228 644 257 676 b 396 590 369 676 396 649 l 396 572 b 279 468 396 517 371 501 b 101 386 192 438 144 422 b 36 231 61 350 36 301 l 36 185 b 224 -12 36 58 93 -12 b 404 104 311 -12 372 29 l 422 26 b 304 -144 326 -37 304 -89 b 471 -281 304 -235 363 -281 b 671 -121 581 -281 649 -231 z "},"å":{"ha":622,"x_min":0,"x_max":0,"o":"m 297 126 b 221 203 250 126 221 156 l 221 238 b 246 328 221 283 228 308 b 331 378 261 347 286 361 b 396 414 365 390 386 400 l 396 260 b 297 126 396 179 360 126 z m 428 0 l 568 0 l 568 579 b 313 817 568 738 490 817 b 56 589 139 817 56 726 l 56 503 l 228 503 l 228 586 b 314 676 228 644 257 676 b 396 590 369 676 396 649 l 396 572 b 279 468 396 517 371 501 b 101 386 192 438 144 422 b 36 231 61 350 36 301 l 36 185 b 224 -12 36 58 93 -12 b 404 104 311 -12 372 29 z m 315 888 b 475 1035 413 888 475 942 b 315 1183 475 1129 411 1183 b 157 1033 224 1183 157 1129 b 315 888 157 938 219 888 z m 315 990 b 271 1035 285 990 271 1008 b 315 1082 271 1063 286 1082 b 363 1035 346 1082 363 1063 b 315 990 363 1007 342 990 z "},"ǻ":{"ha":624,"x_min":0,"x_max":0,"o":"m 297 126 b 221 203 250 126 221 156 l 221 238 b 246 328 221 283 228 308 b 331 378 261 347 286 361 b 396 414 365 390 386 400 l 396 260 b 297 126 396 179 360 126 z m 428 0 l 568 0 l 568 579 b 313 817 568 738 490 817 b 56 589 139 817 56 726 l 56 503 l 228 503 l 228 586 b 314 676 228 644 257 676 b 396 590 369 676 396 649 l 396 572 b 279 468 396 517 371 501 b 101 386 192 438 144 422 b 36 231 61 350 36 301 l 36 185 b 224 -12 36 58 93 -12 b 404 104 311 -12 372 29 z m 319 868 b 479 1015 417 868 479 922 b 319 1164 479 1110 415 1164 b 161 1014 228 1164 161 1110 b 319 868 161 918 224 868 z m 319 971 b 275 1015 289 971 275 989 b 319 1063 275 1043 290 1063 b 367 1015 350 1063 367 1043 b 319 971 367 988 346 971 z m 256 1204 l 385 1204 l 556 1419 l 381 1419 z "},"ã":{"ha":622,"x_min":0,"x_max":0,"o":"m 297 126 b 221 203 250 126 221 156 l 221 238 b 246 328 221 283 228 308 b 331 378 261 347 286 361 b 396 414 365 390 386 400 l 396 260 b 297 126 396 179 360 126 z m 428 0 l 568 0 l 568 579 b 313 817 568 738 490 817 b 56 589 139 817 56 726 l 56 503 l 228 503 l 228 586 b 314 676 228 644 257 676 b 396 590 369 676 396 649 l 396 572 b 279 468 396 517 371 501 b 101 386 192 438 144 422 b 36 231 61 350 36 301 l 36 185 b 224 -12 36 58 93 -12 b 404 104 311 -12 372 29 z m 103 888 l 213 888 b 243 953 213 933 221 953 b 408 882 289 953 328 882 b 535 1079 501 882 535 940 l 425 1079 b 392 1017 425 1031 417 1017 b 229 1085 353 1017 308 1085 b 103 888 136 1085 104 1025 z "},"æ":{"ha":969,"x_min":0,"x_max":0,"o":"m 565 536 b 664 668 565 625 596 668 b 756 543 731 668 756 626 l 756 472 l 565 472 z m 296 126 b 224 206 250 126 224 153 l 224 238 b 247 329 224 283 228 307 b 331 378 264 347 288 361 b 396 414 367 390 386 400 l 396 260 b 296 126 396 179 360 126 z m 660 -14 b 929 253 868 -12 929 101 l 929 279 l 750 279 l 750 254 b 660 140 750 182 729 140 b 565 268 593 140 565 181 l 565 350 l 929 350 l 929 542 b 671 817 929 711 856 817 b 494 754 594 817 536 794 b 311 818 460 796 403 818 b 54 590 142 818 54 725 l 54 503 l 228 503 l 228 588 b 315 678 228 646 258 678 b 396 592 369 678 396 650 l 396 569 b 279 469 396 519 372 501 b 101 386 193 438 143 422 b 36 235 58 349 36 303 l 36 181 b 233 -12 36 54 103 -12 b 435 115 338 -12 404 29 b 660 -14 467 31 538 -15 z "},"ǽ":{"ha":969,"x_min":0,"x_max":0,"o":"m 565 536 b 664 668 565 625 596 668 b 756 543 731 668 756 626 l 756 472 l 565 472 z m 296 126 b 224 206 250 126 224 153 l 224 238 b 247 329 224 283 228 307 b 331 378 264 347 288 361 b 396 414 367 390 386 400 l 396 260 b 296 126 396 179 360 126 z m 660 -14 b 929 253 868 -12 929 101 l 929 279 l 750 279 l 750 254 b 660 140 750 182 729 140 b 565 268 593 140 565 181 l 565 350 l 929 350 l 929 542 b 671 817 929 711 856 817 b 494 754 594 817 536 794 b 311 818 460 796 403 818 b 54 590 142 818 54 725 l 54 503 l 228 503 l 228 588 b 315 678 228 646 258 678 b 396 592 369 678 396 650 l 396 569 b 279 469 396 519 372 501 b 101 386 193 438 143 422 b 36 235 58 349 36 303 l 36 181 b 233 -12 36 54 103 -12 b 435 115 338 -12 404 29 b 660 -14 467 31 538 -15 z m 425 864 l 554 864 l 725 1079 l 550 1079 z "},"ć":{"ha":619,"x_min":0,"x_max":0,"o":"m 311 -14 b 576 256 488 -14 576 74 l 576 357 l 394 357 l 394 261 b 313 143 394 179 374 143 b 226 267 250 143 226 181 l 226 535 b 314 665 226 629 251 665 b 394 542 376 665 394 632 l 394 468 l 576 468 l 576 544 b 319 818 576 726 490 818 b 49 538 147 818 49 726 l 49 263 b 311 -14 49 76 131 -14 z m 251 888 l 381 888 l 551 1103 l 376 1103 z "},"č":{"ha":619,"x_min":0,"x_max":0,"o":"m 311 -14 b 576 256 488 -14 576 74 l 576 357 l 394 357 l 394 261 b 313 143 394 179 374 143 b 226 267 250 143 226 181 l 226 535 b 314 665 226 629 251 665 b 394 542 376 665 394 632 l 394 468 l 576 468 l 576 544 b 319 818 576 726 490 818 b 49 538 147 818 49 726 l 49 263 b 311 -14 49 76 131 -14 z m 375 888 l 510 1117 l 381 1117 l 318 1003 l 260 1117 l 126 1117 l 261 888 z "},"ç":{"ha":619,"x_min":0,"x_max":0,"o":"m 324 -337 b 511 -193 440 -337 511 -286 b 374 -69 511 -112 463 -75 l 374 -10 b 576 256 508 10 576 97 l 576 357 l 394 357 l 394 261 b 313 143 394 179 374 143 b 226 267 250 143 226 181 l 226 535 b 314 665 226 629 251 665 b 394 542 376 665 394 632 l 394 468 l 576 468 l 576 544 b 319 818 576 726 490 818 b 49 538 147 818 49 726 l 49 263 b 258 -11 49 96 114 6 l 258 -153 l 324 -153 b 385 -192 367 -153 385 -168 b 325 -236 385 -219 365 -236 b 258 -187 286 -236 265 -221 l 119 -187 b 324 -337 138 -290 196 -337 z "},"ĉ":{"ha":619,"x_min":0,"x_max":0,"o":"m 311 -14 b 576 256 488 -14 576 74 l 576 357 l 394 357 l 394 261 b 313 143 394 179 374 143 b 226 267 250 143 226 181 l 226 535 b 314 665 226 629 251 665 b 394 542 376 665 394 632 l 394 468 l 576 468 l 576 544 b 319 818 576 726 490 818 b 49 538 147 818 49 726 l 49 263 b 311 -14 49 76 131 -14 z m 381 888 l 514 888 l 378 1117 l 264 1117 l 129 888 l 258 888 l 321 1003 z "},"ċ":{"ha":619,"x_min":0,"x_max":0,"o":"m 311 -14 b 576 256 488 -14 576 74 l 576 357 l 394 357 l 394 261 b 313 143 394 179 374 143 b 226 267 250 143 226 181 l 226 535 b 314 665 226 629 251 665 b 394 542 376 665 394 632 l 394 468 l 576 468 l 576 544 b 319 818 576 726 490 818 b 49 538 147 818 49 726 l 49 263 b 311 -14 49 76 131 -14 z m 318 886 b 415 988 388 886 415 908 b 318 1090 415 1069 386 1090 b 221 988 249 1090 221 1069 b 318 886 221 906 243 886 z "},"ď":{"ha":647,"x_min":0,"x_max":0,"o":"m 315 142 b 226 293 258 142 226 182 l 226 522 b 319 665 226 621 254 665 b 411 522 383 665 411 607 l 411 281 b 315 142 411 189 378 142 z m 438 0 l 585 0 l 585 1042 l 411 1042 l 411 707 b 258 817 388 778 340 817 b 49 524 132 817 49 731 l 49 297 b 256 -11 49 83 118 -11 b 418 119 351 -11 399 42 z m 643 911 l 751 911 l 844 1124 l 697 1124 z "},"đ":{"ha":647,"x_min":0,"x_max":0,"o":"m 315 142 b 226 293 258 142 226 182 l 226 522 b 319 665 226 621 254 665 b 411 522 383 665 411 607 l 411 281 b 315 142 411 189 378 142 z m 418 119 l 438 0 l 585 0 l 585 860 l 643 860 l 643 965 l 585 965 l 585 1042 l 411 1042 l 411 965 l 338 965 l 338 860 l 411 860 l 411 707 b 258 817 388 778 340 817 b 49 524 132 817 49 731 l 49 297 b 256 -11 49 83 118 -11 b 418 119 351 -11 399 42 z "},"ð":{"ha":635,"x_min":0,"x_max":0,"o":"m 315 -14 b 583 268 482 -14 583 79 l 583 543 b 421 960 583 715 524 853 l 561 1058 l 406 1058 l 353 1022 b 303 1058 338 1035 321 1047 l 61 1058 b 235 939 129 1015 188 976 l 89 838 l 246 838 l 303 878 b 399 738 349 832 379 788 b 276 793 375 774 336 793 b 47 525 129 793 47 699 l 47 256 b 315 -14 47 75 139 -14 z m 317 143 b 224 260 257 143 224 182 l 224 524 b 319 640 224 603 258 640 b 408 524 381 640 408 604 l 408 261 b 317 143 408 181 375 143 z "},"é":{"ha":622,"x_min":0,"x_max":0,"o":"m 222 536 b 321 668 222 625 253 668 b 411 543 389 668 411 626 l 411 475 l 222 475 z m 318 -14 b 582 258 535 -12 582 107 l 582 279 l 406 279 l 406 254 b 319 140 406 183 388 140 b 222 265 250 140 222 176 l 222 353 l 582 353 l 582 542 b 318 818 582 706 506 818 b 50 536 153 818 50 715 l 50 265 b 318 -14 50 82 132 -15 z m 251 886 l 381 886 l 551 1101 l 376 1101 z "},"ĕ":{"ha":622,"x_min":0,"x_max":0,"o":"m 222 536 b 321 668 222 625 253 668 b 411 543 389 668 411 626 l 411 475 l 222 475 z m 318 -14 b 582 258 535 -12 582 107 l 582 279 l 406 279 l 406 254 b 319 140 406 183 388 140 b 222 265 250 140 222 176 l 222 353 l 582 353 l 582 542 b 318 818 582 706 506 818 b 50 536 153 818 50 715 l 50 265 b 318 -14 50 82 132 -15 z m 328 885 b 522 1099 463 885 522 954 l 403 1099 b 328 997 403 1025 382 999 b 254 1099 274 999 254 1025 l 135 1099 b 328 885 135 954 183 885 z "},"ě":{"ha":622,"x_min":0,"x_max":0,"o":"m 222 536 b 321 668 222 625 253 668 b 411 543 389 668 411 626 l 411 475 l 222 475 z m 318 -14 b 582 258 535 -12 582 107 l 582 279 l 406 279 l 406 254 b 319 140 406 183 388 140 b 222 265 250 140 222 176 l 222 353 l 582 353 l 582 542 b 318 818 582 706 506 818 b 50 536 153 818 50 715 l 50 265 b 318 -14 50 82 132 -15 z m 382 886 l 517 1115 l 388 1115 l 325 1001 l 267 1115 l 133 1115 l 268 886 z "},"ê":{"ha":622,"x_min":0,"x_max":0,"o":"m 222 536 b 321 668 222 625 253 668 b 411 543 389 668 411 626 l 411 475 l 222 475 z m 318 -14 b 582 258 535 -12 582 107 l 582 279 l 406 279 l 406 254 b 319 140 406 183 388 140 b 222 265 250 140 222 176 l 222 353 l 582 353 l 582 542 b 318 818 582 706 506 818 b 50 536 153 818 50 715 l 50 265 b 318 -14 50 82 132 -15 z m 382 886 l 515 886 l 379 1115 l 265 1115 l 131 886 l 260 886 l 322 1001 z "},"ë":{"ha":622,"x_min":0,"x_max":0,"o":"m 222 536 b 321 668 222 625 253 668 b 411 543 389 668 411 626 l 411 475 l 222 475 z m 318 -14 b 582 258 535 -12 582 107 l 582 279 l 406 279 l 406 254 b 319 140 406 183 388 140 b 222 265 250 140 222 176 l 222 353 l 582 353 l 582 542 b 318 818 582 706 506 818 b 50 536 153 818 50 715 l 50 265 b 318 -14 50 82 132 -15 z m 424 883 b 506 972 482 883 506 907 b 424 1063 506 1040 482 1063 b 343 972 365 1063 343 1040 b 424 883 343 903 361 883 z m 215 883 b 299 972 276 883 299 907 b 215 1063 299 1040 275 1063 b 135 972 158 1063 135 1040 b 215 883 135 903 154 883 z "},"ė":{"ha":622,"x_min":0,"x_max":0,"o":"m 222 536 b 321 668 222 625 253 668 b 411 543 389 668 411 626 l 411 475 l 222 475 z m 318 -14 b 582 258 535 -12 582 107 l 582 279 l 406 279 l 406 254 b 319 140 406 183 388 140 b 222 265 250 140 222 176 l 222 353 l 582 353 l 582 542 b 318 818 582 706 506 818 b 50 536 153 818 50 715 l 50 265 b 318 -14 50 82 132 -15 z m 324 885 b 421 986 393 885 421 907 b 324 1089 421 1068 392 1089 b 226 986 254 1089 226 1068 b 324 885 226 904 249 885 z "},"è":{"ha":622,"x_min":0,"x_max":0,"o":"m 222 536 b 321 668 222 625 253 668 b 411 543 389 668 411 626 l 411 475 l 222 475 z m 318 -14 b 582 258 535 -12 582 107 l 582 279 l 406 279 l 406 254 b 319 140 406 183 388 140 b 222 265 250 140 222 176 l 222 353 l 582 353 l 582 542 b 318 818 582 706 506 818 b 50 536 153 818 50 715 l 50 265 b 318 -14 50 82 132 -15 z m 268 886 l 390 886 l 283 1101 l 110 1101 z "},"ē":{"ha":622,"x_min":0,"x_max":0,"o":"m 222 536 b 321 668 222 625 253 668 b 411 543 389 668 411 626 l 411 475 l 222 475 z m 318 -14 b 582 258 535 -12 582 107 l 582 279 l 406 279 l 406 254 b 319 140 406 183 388 140 b 222 265 250 140 222 176 l 222 353 l 582 353 l 582 542 b 318 818 582 706 506 818 b 50 536 153 818 50 715 l 50 265 b 318 -14 50 82 132 -15 z m 172 896 l 479 896 l 479 1024 l 172 1024 z "},"ę":{"ha":622,"x_min":0,"x_max":0,"o":"m 379 -261 b 579 -101 489 -261 557 -211 l 436 -101 b 388 -151 432 -135 413 -151 b 344 -115 360 -151 344 -140 b 476 19 344 -85 363 -62 b 582 258 560 65 582 154 l 582 279 l 406 279 l 406 254 b 319 140 406 183 388 140 b 222 265 250 140 222 176 l 222 353 l 582 353 l 582 542 b 318 818 582 706 506 818 b 50 536 153 818 50 715 l 50 265 b 261 -11 50 101 115 7 b 213 -125 224 -50 213 -87 b 379 -261 213 -215 271 -261 z m 222 536 b 321 668 222 625 253 668 b 411 543 389 668 411 626 l 411 475 l 222 475 z "},"ğ":{"ha":621,"x_min":0,"x_max":0,"o":"m 304 915 b 499 1129 439 915 499 985 l 379 1129 b 304 1028 379 1056 358 1029 b 231 1129 250 1029 231 1056 l 111 1129 b 304 915 111 985 160 915 z m 299 -272 b 617 -51 526 -272 617 -172 l 617 -49 b 378 140 617 72 540 140 l 254 140 b 168 174 186 139 168 151 b 271 213 168 200 190 213 l 313 213 b 572 439 482 213 572 289 l 572 594 b 411 788 572 701 517 774 b 401 789 407 788 404 789 b 576 879 536 790 576 810 l 576 896 l 392 896 l 392 890 b 281 815 392 832 368 831 l 260 811 b 54 589 131 790 54 722 l 54 440 b 157 263 54 347 86 290 b 21 126 67 244 21 199 b 153 -3 21 53 64 10 b 26 -132 72 -25 26 -74 b 282 -272 26 -217 97 -272 z m 313 342 b 232 429 261 342 232 369 l 232 599 b 294 688 232 649 253 679 b 315 690 300 690 308 690 b 397 600 372 690 397 654 l 397 431 b 313 342 397 374 365 342 z m 290 -133 b 190 -81 224 -133 190 -111 l 190 -76 b 292 -6 190 -39 236 -8 l 358 -6 b 447 -60 421 -6 447 -29 l 447 -64 b 319 -133 447 -101 404 -133 z "},"ĝ":{"ha":621,"x_min":0,"x_max":0,"o":"m 376 946 l 510 946 l 374 1175 l 260 1175 l 125 946 l 254 946 l 317 1061 z m 299 -272 b 617 -51 526 -272 617 -172 l 617 -49 b 378 140 617 72 540 140 l 254 140 b 168 174 186 139 168 151 b 271 213 168 200 190 213 l 313 213 b 572 439 482 213 572 289 l 572 594 b 411 788 572 701 517 774 b 401 789 407 788 404 789 b 576 879 536 790 576 810 l 576 896 l 392 896 l 392 890 b 281 815 392 832 368 831 l 260 811 b 54 589 131 790 54 722 l 54 440 b 157 263 54 347 86 290 b 21 126 67 244 21 199 b 153 -3 21 53 64 10 b 26 -132 72 -25 26 -74 b 282 -272 26 -217 97 -272 z m 313 342 b 232 429 261 342 232 369 l 232 599 b 294 688 232 649 253 679 b 315 690 300 690 308 690 b 397 600 372 690 397 654 l 397 431 b 313 342 397 374 365 342 z m 290 -133 b 190 -81 224 -133 190 -111 l 190 -76 b 292 -6 190 -39 236 -8 l 358 -6 b 447 -60 421 -6 447 -29 l 447 -64 b 319 -133 447 -101 404 -133 z "},"ģ":{"ha":621,"x_min":0,"x_max":0,"o":"m 314 914 b 401 1004 376 914 401 939 b 329 1088 401 1075 379 1088 b 317 1086 325 1088 321 1088 b 385 1153 322 1129 342 1149 l 385 1233 b 225 1035 275 1226 225 1151 b 314 914 225 943 247 914 z m 299 -272 b 617 -51 526 -272 617 -172 l 617 -49 b 378 140 617 72 540 140 l 254 140 b 168 174 186 139 168 151 b 271 213 168 200 190 213 l 313 213 b 572 439 482 213 572 289 l 572 594 b 411 788 572 701 517 774 b 401 789 407 788 404 789 b 576 879 536 790 576 810 l 576 896 l 392 896 l 392 890 b 281 815 392 832 368 831 l 260 811 b 54 589 131 790 54 722 l 54 440 b 157 263 54 347 86 290 b 21 126 67 244 21 199 b 153 -3 21 53 64 10 b 26 -132 72 -25 26 -74 b 282 -272 26 -217 97 -272 z m 313 342 b 232 429 261 342 232 369 l 232 599 b 294 688 232 649 253 679 b 315 690 300 690 308 690 b 397 600 372 690 397 654 l 397 431 b 313 342 397 374 365 342 z m 290 -133 b 190 -81 224 -133 190 -111 l 190 -76 b 292 -6 190 -39 236 -8 l 358 -6 b 447 -60 421 -6 447 -29 l 447 -64 b 319 -133 447 -101 404 -133 z "},"ġ":{"ha":621,"x_min":0,"x_max":0,"o":"m 321 926 b 418 1028 390 926 418 949 b 321 1131 418 1110 389 1131 b 224 1028 251 1131 224 1110 b 321 926 224 946 246 926 z m 299 -272 b 617 -51 526 -272 617 -172 l 617 -49 b 378 140 617 72 540 140 l 254 140 b 168 174 186 139 168 151 b 271 213 168 200 190 213 l 313 213 b 572 439 482 213 572 289 l 572 594 b 411 788 572 701 517 774 b 401 789 407 788 404 789 b 576 879 536 790 576 810 l 576 896 l 392 896 l 392 890 b 281 815 392 832 368 831 l 260 811 b 54 589 131 790 54 722 l 54 440 b 157 263 54 347 86 290 b 21 126 67 244 21 199 b 153 -3 21 53 64 10 b 26 -132 72 -25 26 -74 b 282 -272 26 -217 97 -272 z m 313 342 b 232 429 261 342 232 369 l 232 599 b 294 688 232 649 253 679 b 315 690 300 690 308 690 b 397 600 372 690 397 654 l 397 431 b 313 342 397 374 365 342 z m 290 -133 b 190 -81 224 -133 190 -111 l 190 -76 b 292 -6 190 -39 236 -8 l 358 -6 b 447 -60 421 -6 447 -29 l 447 -64 b 319 -133 447 -101 404 -133 z "},"ß":{"ha":651,"x_min":0,"x_max":0,"o":"m 238 810 b 326 901 238 867 261 901 b 414 815 388 901 414 871 l 414 719 b 329 622 414 653 386 622 l 313 622 l 313 472 l 331 472 b 424 376 394 472 424 444 l 424 258 b 335 160 424 189 401 160 l 313 160 l 313 0 l 375 0 b 606 233 568 0 606 74 l 606 386 b 499 554 606 483 569 533 b 586 718 564 581 586 636 l 586 826 b 328 1057 586 972 504 1057 b 60 818 151 1057 60 965 l 60 0 l 238 0 z "},"ħ":{"ha":638,"x_min":0,"x_max":0,"o":"m 236 532 b 325 660 236 614 263 660 b 401 546 385 660 401 619 l 401 0 l 581 0 l 581 575 b 397 817 581 735 519 817 b 236 693 308 817 258 771 l 236 861 l 310 861 l 310 965 l 236 965 l 236 1042 l 60 1042 l 60 965 l 0 965 l 0 861 l 60 861 l 60 0 l 236 0 z "},"ĥ":{"ha":638,"x_min":0,"x_max":0,"o":"m 236 532 b 325 660 236 614 263 660 b 401 546 385 660 401 619 l 401 0 l 581 0 l 581 575 b 397 817 581 735 519 817 b 236 693 308 817 258 771 l 236 1042 l 60 1042 l 60 0 l 236 0 z m 208 1110 l 342 1110 l 206 1339 l 92 1339 l -43 1110 l 86 1110 l 149 1225 z "},"í":{"ha":301,"x_min":0,"x_max":0,"o":"m 242 0 l 242 807 l 60 807 l 60 0 z m 86 883 l 215 883 l 386 1099 l 211 1099 z "},"ĭ":{"ha":301,"x_min":0,"x_max":0,"o":"m 242 0 l 242 807 l 60 807 l 60 0 z m 149 875 b 343 1089 283 875 343 944 l 224 1089 b 149 988 224 1015 203 989 b 75 1089 94 989 75 1015 l -44 1089 b 149 875 -44 944 4 875 z "},"î":{"ha":301,"x_min":0,"x_max":0,"o":"m 242 0 l 242 807 l 60 807 l 60 0 z m 208 876 l 342 876 l 206 1106 l 92 1106 l -43 876 l 86 876 l 149 992 z "},"ï":{"ha":301,"x_min":0,"x_max":0,"o":"m 242 0 l 242 807 l 60 807 l 60 0 z m 250 874 b 332 963 308 874 332 897 b 250 1053 332 1031 308 1053 b 169 963 192 1053 169 1031 b 250 874 169 893 188 874 z m 42 874 b 125 963 103 874 125 897 b 42 1053 125 1031 101 1053 b -39 963 -15 1053 -39 1031 b 42 874 -39 893 -19 874 z "},"ì":{"ha":301,"x_min":0,"x_max":0,"o":"m 242 0 l 242 807 l 60 807 l 60 0 z m 92 876 l 214 876 l 107 1092 l -67 1092 z "},"ī":{"ha":301,"x_min":0,"x_max":0,"o":"m 242 0 l 242 807 l 60 807 l 60 0 z m -4 886 l 303 886 l 303 1014 l -4 1014 z "},"į":{"ha":301,"x_min":0,"x_max":0,"o":"m 153 853 b 257 956 225 853 257 876 b 153 1058 257 1035 226 1058 b 49 956 78 1058 49 1035 b 153 853 49 875 74 853 z m 344 -121 l 201 -121 b 153 -171 197 -154 178 -171 b 110 -135 125 -171 110 -160 b 242 0 110 -104 128 -82 l 242 804 b 151 792 232 797 181 792 b 60 804 121 792 69 796 l 60 0 b -22 -144 -6 -51 -22 -97 b 144 -281 -22 -235 36 -281 b 344 -121 254 -281 322 -231 z "},"ĩ":{"ha":301,"x_min":0,"x_max":0,"o":"m 242 0 l 242 807 l 60 807 l 60 0 z m -62 878 l 47 878 b 78 943 47 924 56 943 b 243 872 124 943 163 872 b 369 1069 336 872 369 931 l 260 1069 b 226 1007 260 1021 251 1007 b 64 1075 188 1007 143 1075 b -62 878 -29 1075 -61 1015 z "},"ı":{"ha":301,"x_min":0,"x_max":0,"o":"m 242 0 l 242 807 l 60 807 l 60 0 z "},"ĵ":{"ha":304,"x_min":0,"x_max":0,"o":"m -51 -275 l 29 -275 b 243 -60 193 -275 243 -224 l 243 807 l 63 807 l 63 -31 b -3 -106 63 -93 51 -106 l -51 -106 z m 211 876 l 344 876 l 208 1106 l 94 1106 l -40 876 l 89 876 l 151 992 z "},"ȷ":{"ha":306,"x_min":0,"x_max":0,"o":"m -50 -275 l 31 -275 b 244 -60 194 -275 244 -224 l 244 807 l 64 807 l 64 -31 b -1 -106 64 -93 53 -106 l -50 -106 z "},"ķ":{"ha":621,"x_min":0,"x_max":0,"o":"m 297 379 l 432 0 l 619 0 l 428 503 l 611 807 l 417 807 l 253 529 l 231 478 l 233 528 l 233 1042 l 60 1042 l 60 0 l 233 0 l 233 292 l 293 406 z m 260 -371 b 418 -172 369 -364 418 -289 b 331 -53 418 -81 397 -53 b 243 -142 267 -53 243 -76 b 315 -225 243 -212 265 -225 b 328 -224 319 -225 324 -225 b 260 -292 322 -267 303 -287 z "},"ĸ":{"ha":621,"x_min":0,"x_max":0,"o":"m 297 379 l 432 0 l 619 0 l 428 503 l 611 807 l 417 807 l 253 529 l 231 478 l 233 528 l 233 807 l 60 807 l 60 0 l 233 0 l 233 292 l 293 406 z "},"ĺ":{"ha":297,"x_min":0,"x_max":0,"o":"m 238 0 l 238 1042 l 60 1042 l 60 0 z m 79 1111 l 208 1111 l 379 1326 l 204 1326 z "},"ľ":{"ha":297,"x_min":0,"x_max":0,"o":"m 238 0 l 238 1042 l 60 1042 l 60 0 z m 290 910 l 399 910 l 492 1122 l 344 1122 z "},"ļ":{"ha":297,"x_min":0,"x_max":0,"o":"m 238 0 l 238 1042 l 60 1042 l 60 0 z m 81 -382 b 239 -183 190 -375 239 -300 b 151 -64 239 -92 218 -64 b 64 -153 88 -64 64 -87 b 136 -236 64 -224 86 -236 b 149 -235 140 -236 144 -236 b 81 -303 143 -278 124 -299 z "},"ŀ":{"ha":481,"x_min":0,"x_max":0,"o":"m 238 0 l 238 1042 l 60 1042 l 60 0 z m 388 288 b 485 389 457 288 485 310 b 388 492 485 471 456 492 b 290 389 318 492 290 471 b 388 288 290 307 313 288 z "},"ł":{"ha":325,"x_min":0,"x_max":0,"o":"m 251 0 l 251 394 l 336 417 l 308 533 l 251 518 l 251 1042 l 74 1042 l 74 472 l -10 450 l 19 333 l 74 347 l 74 0 z "},"ń":{"ha":639,"x_min":0,"x_max":0,"o":"m 239 532 b 328 660 239 614 265 660 b 406 546 388 660 406 619 l 406 0 l 585 0 l 585 575 b 393 817 585 735 522 817 b 225 689 304 817 249 769 l 206 807 l 60 807 l 60 0 l 239 0 z m 260 878 l 389 878 l 560 1093 l 385 1093 z "},"ň":{"ha":639,"x_min":0,"x_max":0,"o":"m 239 532 b 328 660 239 614 265 660 b 406 546 388 660 406 619 l 406 0 l 585 0 l 585 575 b 393 817 585 735 522 817 b 225 689 304 817 249 769 l 206 807 l 60 807 l 60 0 l 239 0 z m 383 878 l 518 1107 l 389 1107 l 326 993 l 268 1107 l 135 1107 l 269 878 z "},"ņ":{"ha":639,"x_min":0,"x_max":0,"o":"m 239 532 b 328 660 239 614 265 660 b 406 546 388 660 406 619 l 406 0 l 585 0 l 585 575 b 393 817 585 735 522 817 b 225 689 304 817 249 769 l 206 807 l 60 807 l 60 0 l 239 0 z m 250 -372 b 408 -174 360 -365 408 -290 b 321 -54 408 -82 388 -54 b 233 -143 257 -54 233 -78 b 306 -226 233 -214 256 -226 b 318 -225 310 -226 314 -226 b 250 -293 313 -268 293 -289 z "},"ñ":{"ha":639,"x_min":0,"x_max":0,"o":"m 239 532 b 328 660 239 614 265 660 b 406 546 388 660 406 619 l 406 0 l 585 0 l 585 575 b 393 817 585 735 522 817 b 225 689 304 817 249 769 l 206 807 l 60 807 l 60 0 l 239 0 z m 119 879 l 229 879 b 260 944 229 925 238 944 b 425 874 306 944 344 874 b 551 1071 518 874 551 932 l 442 1071 b 408 1008 442 1022 433 1008 b 246 1076 369 1008 325 1076 b 119 879 153 1076 121 1017 z "},"ŋ":{"ha":640,"x_min":0,"x_max":0,"o":"m 371 -268 b 583 -60 535 -268 583 -226 l 583 575 b 393 817 583 735 522 817 b 225 689 306 817 249 769 l 206 807 l 60 807 l 60 0 l 239 0 l 239 532 b 328 661 239 615 265 661 b 404 546 388 661 404 619 l 404 -31 b 340 -106 404 -93 393 -106 l 290 -106 l 290 -268 z "},"ó":{"ha":631,"x_min":0,"x_max":0,"o":"m 315 -14 b 582 263 488 -14 582 76 l 582 538 b 315 818 582 724 485 818 b 49 538 150 818 49 725 l 49 263 b 315 -14 49 75 136 -14 z m 315 143 b 226 267 256 143 226 183 l 226 536 b 315 665 226 625 256 665 b 404 536 378 665 404 624 l 404 267 b 315 143 404 183 375 143 z m 249 886 l 378 886 l 549 1101 l 374 1101 z "},"ŏ":{"ha":631,"x_min":0,"x_max":0,"o":"m 315 -14 b 582 263 488 -14 582 76 l 582 538 b 315 818 582 724 485 818 b 49 538 150 818 49 725 l 49 263 b 315 -14 49 75 136 -14 z m 315 143 b 226 267 256 143 226 183 l 226 536 b 315 665 226 625 256 665 b 404 536 378 665 404 624 l 404 267 b 315 143 404 183 375 143 z m 317 885 b 511 1099 451 885 511 954 l 392 1099 b 317 997 392 1025 371 999 b 243 1099 263 999 243 1025 l 124 1099 b 317 885 124 954 172 885 z "},"ô":{"ha":631,"x_min":0,"x_max":0,"o":"m 315 -14 b 582 263 488 -14 582 76 l 582 538 b 315 818 582 724 485 818 b 49 538 150 818 49 725 l 49 263 b 315 -14 49 75 136 -14 z m 315 143 b 226 267 256 143 226 183 l 226 536 b 315 665 226 625 256 665 b 404 536 378 665 404 624 l 404 267 b 315 143 404 183 375 143 z m 378 886 l 511 886 l 375 1115 l 261 1115 l 126 886 l 256 886 l 318 1001 z "},"ö":{"ha":631,"x_min":0,"x_max":0,"o":"m 315 -14 b 582 263 488 -14 582 76 l 582 538 b 315 818 582 724 485 818 b 49 538 150 818 49 725 l 49 263 b 315 -14 49 75 136 -14 z m 315 143 b 226 267 256 143 226 183 l 226 536 b 315 665 226 625 256 665 b 404 536 378 665 404 624 l 404 267 b 315 143 404 183 375 143 z m 421 883 b 503 972 479 883 503 907 b 421 1063 503 1040 479 1063 b 340 972 363 1063 340 1040 b 421 883 340 903 358 883 z m 213 883 b 296 972 274 883 296 907 b 213 1063 296 1040 272 1063 b 132 972 156 1063 132 1040 b 213 883 132 903 151 883 z "},"œ":{"ha":992,"x_min":0,"x_max":0,"o":"m 578 543 b 681 674 578 632 611 674 b 776 551 749 674 776 633 l 776 476 l 578 476 z m 317 143 b 224 267 257 143 224 183 l 224 535 b 317 664 224 625 257 664 b 410 535 379 664 410 624 l 410 267 b 317 143 410 183 376 143 z m 950 229 l 950 285 l 768 285 l 768 233 b 678 138 768 175 742 138 b 578 267 608 138 578 181 l 578 351 l 950 351 l 950 544 b 689 818 950 701 871 818 b 496 735 594 818 533 789 b 310 818 461 790 403 818 b 47 538 151 818 47 722 l 47 263 b 304 -14 47 75 138 -14 b 492 64 399 -14 457 14 b 686 -14 526 15 586 -14 b 950 229 861 -14 950 86 z "},"ò":{"ha":631,"x_min":0,"x_max":0,"o":"m 315 -14 b 582 263 488 -14 582 76 l 582 538 b 315 818 582 724 485 818 b 49 538 150 818 49 725 l 49 263 b 315 -14 49 75 136 -14 z m 315 143 b 226 267 256 143 226 183 l 226 536 b 315 665 226 625 256 665 b 404 536 378 665 404 624 l 404 267 b 315 143 404 183 375 143 z m 258 886 l 381 886 l 274 1101 l 100 1101 z "},"ő":{"ha":631,"x_min":0,"x_max":0,"o":"m 315 -14 b 582 263 488 -14 582 76 l 582 538 b 315 818 582 724 485 818 b 49 538 150 818 49 725 l 49 263 b 315 -14 49 75 136 -14 z m 315 143 b 226 267 256 143 226 183 l 226 536 b 315 665 226 625 256 665 b 404 536 378 665 404 624 l 404 267 b 315 143 404 183 375 143 z m 407 1101 l 260 1101 l 169 886 l 272 886 z m 604 1101 l 454 1101 l 353 886 l 457 886 z "},"ō":{"ha":631,"x_min":0,"x_max":0,"o":"m 315 -14 b 582 263 488 -14 582 76 l 582 538 b 315 818 582 724 485 818 b 49 538 150 818 49 725 l 49 263 b 315 -14 49 75 136 -14 z m 315 143 b 226 267 256 143 226 183 l 226 536 b 315 665 226 625 256 665 b 404 536 378 665 404 624 l 404 267 b 315 143 404 183 375 143 z m 164 896 l 471 896 l 471 1024 l 164 1024 z "},"ø":{"ha":631,"x_min":0,"x_max":0,"o":"m 315 143 b 225 267 256 143 225 183 l 225 536 b 315 665 225 625 256 665 b 406 536 378 665 406 624 l 406 267 b 315 143 406 183 375 143 z m 315 -14 b 582 263 488 -14 582 76 l 582 538 b 482 774 582 650 547 728 l 522 917 l 367 917 l 339 818 l 315 818 b 49 538 150 818 49 725 l 49 263 b 142 31 49 151 79 75 l 99 -126 l 256 -126 l 286 -12 b 315 -14 296 -14 306 -14 z "},"ǿ":{"ha":631,"x_min":0,"x_max":0,"o":"m 315 143 b 225 267 256 143 225 183 l 225 536 b 315 665 225 625 256 665 b 406 536 378 665 406 624 l 406 267 b 315 143 406 183 375 143 z m 315 -14 b 582 263 488 -14 582 76 l 582 538 b 482 774 582 650 547 728 l 522 917 l 367 917 l 339 818 l 315 818 b 49 538 150 818 49 725 l 49 263 b 142 31 49 151 79 75 l 99 -126 l 256 -126 l 286 -12 b 315 -14 296 -14 306 -14 z m 260 949 l 389 949 l 560 1164 l 385 1164 z "},"õ":{"ha":631,"x_min":0,"x_max":0,"o":"m 315 -14 b 582 263 488 -14 582 76 l 582 538 b 315 818 582 724 485 818 b 49 538 150 818 49 725 l 49 263 b 315 -14 49 75 136 -14 z m 315 143 b 226 267 256 143 226 183 l 226 536 b 315 665 226 625 256 665 b 404 536 378 665 404 624 l 404 267 b 315 143 404 183 375 143 z m 101 888 l 211 888 b 242 953 211 933 219 953 b 407 882 288 953 326 882 b 533 1079 500 882 533 940 l 424 1079 b 390 1017 424 1031 415 1017 b 228 1085 351 1017 307 1085 b 101 888 135 1085 103 1025 z "},"ŕ":{"ha":426,"x_min":0,"x_max":0,"o":"m 235 0 l 235 469 b 360 615 235 579 256 615 l 407 615 l 407 815 l 381 815 b 217 663 268 815 226 782 l 189 807 l 60 807 l 60 0 z m 168 871 l 297 871 l 468 1086 l 293 1086 z "},"ř":{"ha":426,"x_min":0,"x_max":0,"o":"m 235 0 l 235 469 b 360 615 235 579 256 615 l 407 615 l 407 815 l 381 815 b 217 663 268 815 226 782 l 189 807 l 60 807 l 60 0 z m 292 871 l 426 1100 l 297 1100 l 235 986 l 176 1100 l 43 1100 l 178 871 z "},"ŗ":{"ha":426,"x_min":0,"x_max":0,"o":"m 235 0 l 235 469 b 360 615 235 579 256 615 l 407 615 l 407 815 l 381 815 b 217 663 268 815 226 782 l 189 807 l 60 807 l 60 0 z m 76 -382 b 235 -183 186 -375 235 -300 b 147 -64 235 -92 214 -64 b 60 -153 83 -64 60 -87 b 132 -236 60 -224 82 -236 b 144 -235 136 -236 140 -236 b 76 -303 139 -278 119 -299 z "},"ś":{"ha":579,"x_min":0,"x_max":0,"o":"m 292 -15 b 551 222 464 -15 551 79 l 551 243 b 350 482 551 394 444 444 b 211 590 276 511 211 533 l 211 600 b 290 676 211 644 235 676 b 369 596 347 676 369 647 l 369 542 l 539 542 l 539 603 b 289 818 539 733 463 818 b 39 596 119 818 39 724 l 39 582 b 231 356 39 436 139 390 b 376 233 307 326 376 304 l 376 222 b 294 138 376 169 350 138 b 208 222 232 138 208 164 l 208 293 l 28 293 l 28 211 b 292 -15 28 63 106 -15 z m 219 888 l 349 888 l 519 1103 l 344 1103 z "},"š":{"ha":579,"x_min":0,"x_max":0,"o":"m 292 -15 b 551 222 464 -15 551 79 l 551 243 b 350 482 551 394 444 444 b 211 590 276 511 211 533 l 211 600 b 290 676 211 644 235 676 b 369 596 347 676 369 647 l 369 542 l 539 542 l 539 603 b 289 818 539 733 463 818 b 39 596 119 818 39 724 l 39 582 b 231 356 39 436 139 390 b 376 233 307 326 376 304 l 376 222 b 294 138 376 169 350 138 b 208 222 232 138 208 164 l 208 293 l 28 293 l 28 211 b 292 -15 28 63 106 -15 z m 343 888 l 478 1117 l 349 1117 l 286 1003 l 228 1117 l 94 1117 l 229 888 z "},"ş":{"ha":579,"x_min":0,"x_max":0,"o":"m 308 -337 b 496 -193 425 -337 496 -286 b 358 -69 496 -112 447 -75 l 358 -10 b 551 222 486 13 551 99 l 551 243 b 350 482 551 394 444 444 b 211 590 276 511 211 533 l 211 600 b 290 676 211 644 235 676 b 369 596 347 676 369 647 l 369 542 l 539 542 l 539 603 b 289 818 539 733 463 818 b 39 596 119 818 39 724 l 39 582 b 231 356 39 436 139 390 b 376 233 307 326 376 304 l 376 222 b 294 138 376 169 350 138 b 208 222 232 138 208 164 l 208 293 l 28 293 l 28 211 b 243 -14 28 76 92 0 l 243 -153 l 308 -153 b 369 -192 351 -153 369 -168 b 310 -236 369 -219 350 -236 b 243 -187 271 -236 250 -221 l 104 -187 b 308 -337 122 -290 181 -337 z "},"ŝ":{"ha":579,"x_min":0,"x_max":0,"o":"m 292 -15 b 551 222 464 -15 551 79 l 551 243 b 350 482 551 394 444 444 b 211 590 276 511 211 533 l 211 600 b 290 676 211 644 235 676 b 369 596 347 676 369 647 l 369 542 l 539 542 l 539 603 b 289 818 539 733 463 818 b 39 596 119 818 39 724 l 39 582 b 231 356 39 436 139 390 b 376 233 307 326 376 304 l 376 222 b 294 138 376 169 350 138 b 208 222 232 138 208 164 l 208 293 l 28 293 l 28 211 b 292 -15 28 63 106 -15 z m 349 888 l 482 888 l 346 1117 l 232 1117 l 97 888 l 226 888 l 289 1003 z "},"ș":{"ha":579,"x_min":0,"x_max":0,"o":"m 292 -15 b 551 222 464 -15 551 79 l 551 243 b 350 482 551 394 444 444 b 211 590 276 511 211 533 l 211 600 b 290 676 211 644 235 676 b 369 596 347 676 369 647 l 369 542 l 539 542 l 539 603 b 289 818 539 733 463 818 b 39 596 119 818 39 724 l 39 582 b 231 356 39 436 139 390 b 376 233 307 326 376 304 l 376 222 b 294 138 376 169 350 138 b 208 222 232 138 208 164 l 208 293 l 28 293 l 28 211 b 292 -15 28 63 106 -15 z m 225 -393 b 383 -194 335 -386 383 -311 b 296 -75 383 -103 363 -75 b 208 -164 232 -75 208 -99 b 281 -247 208 -235 231 -247 b 293 -246 285 -247 289 -247 b 225 -314 288 -289 268 -310 z "},"ŧ":{"ha":425,"x_min":0,"x_max":0,"o":"m 399 171 l 365 171 b 275 281 296 171 275 182 l 275 356 l 360 356 l 360 468 l 275 468 l 275 636 l 400 636 l 400 807 l 275 807 l 275 958 l 147 958 b 131 871 143 921 140 897 b 83 811 119 842 106 824 b 17 796 63 800 43 797 l 17 636 l 107 636 l 107 468 l 33 468 l 33 356 l 107 356 l 107 242 b 324 0 107 51 158 0 l 399 0 z "},"ť":{"ha":425,"x_min":0,"x_max":0,"o":"m 399 171 l 365 171 b 275 281 296 171 275 182 l 275 636 l 400 636 l 400 807 l 275 807 l 275 958 l 147 958 b 131 871 143 921 140 897 b 83 811 119 842 106 824 b 17 796 63 800 43 797 l 17 636 l 107 636 l 107 242 b 324 0 107 51 158 0 l 399 0 z m 333 896 l 442 896 l 535 1108 l 388 1108 z "},"ţ":{"ha":426,"x_min":0,"x_max":0,"o":"m 399 171 l 365 171 b 275 281 296 171 275 182 l 275 636 l 400 636 l 400 807 l 275 807 l 275 958 l 147 958 b 131 871 143 921 140 897 b 83 811 119 842 106 824 b 17 796 63 800 43 797 l 17 636 l 107 636 l 107 242 b 324 0 107 51 158 0 l 399 0 z m 196 -381 b 354 -182 306 -374 354 -299 b 267 -62 354 -90 333 -62 b 179 -151 203 -62 179 -86 b 251 -235 179 -222 201 -235 b 264 -233 256 -235 260 -235 b 196 -301 258 -276 239 -297 z "},"ú":{"ha":631,"x_min":0,"x_max":0,"o":"m 426 0 l 571 0 l 571 807 l 393 807 l 393 275 b 311 146 393 193 371 146 b 236 260 253 146 236 188 l 236 807 l 57 807 l 57 229 b 247 -12 57 67 117 -12 b 406 117 333 -12 385 35 z m 243 872 l 372 872 l 543 1088 l 368 1088 z "},"ŭ":{"ha":631,"x_min":0,"x_max":0,"o":"m 426 0 l 571 0 l 571 807 l 393 807 l 393 275 b 311 146 393 193 371 146 b 236 260 253 146 236 188 l 236 807 l 57 807 l 57 229 b 247 -12 57 67 117 -12 b 406 117 333 -12 385 35 z m 313 871 b 507 1085 447 871 507 940 l 388 1085 b 313 983 388 1011 367 985 b 239 1085 258 985 239 1011 l 119 1085 b 313 871 119 940 168 871 z "},"û":{"ha":631,"x_min":0,"x_max":0,"o":"m 426 0 l 571 0 l 571 807 l 393 807 l 393 275 b 311 146 393 193 371 146 b 236 260 253 146 236 188 l 236 807 l 57 807 l 57 229 b 247 -12 57 67 117 -12 b 406 117 333 -12 385 35 z m 374 872 l 507 872 l 371 1101 l 257 1101 l 122 872 l 251 872 l 314 988 z "},"ü":{"ha":631,"x_min":0,"x_max":0,"o":"m 426 0 l 571 0 l 571 807 l 393 807 l 393 275 b 311 146 393 193 371 146 b 236 260 253 146 236 188 l 236 807 l 57 807 l 57 229 b 247 -12 57 67 117 -12 b 406 117 333 -12 385 35 z m 415 869 b 497 958 474 869 497 893 b 415 1049 497 1026 474 1049 b 335 958 357 1049 335 1026 b 415 869 335 889 353 869 z m 207 869 b 290 958 268 869 290 893 b 207 1049 290 1026 267 1049 b 126 958 150 1049 126 1026 b 207 869 126 889 146 869 z "},"ù":{"ha":631,"x_min":0,"x_max":0,"o":"m 426 0 l 571 0 l 571 807 l 393 807 l 393 275 b 311 146 393 193 371 146 b 236 260 253 146 236 188 l 236 807 l 57 807 l 57 229 b 247 -12 57 67 117 -12 b 406 117 333 -12 385 35 z m 253 872 l 375 872 l 268 1088 l 94 1088 z "},"ű":{"ha":631,"x_min":0,"x_max":0,"o":"m 426 0 l 571 0 l 571 807 l 393 807 l 393 275 b 311 146 393 193 371 146 b 236 260 253 146 236 188 l 236 807 l 57 807 l 57 229 b 247 -12 57 67 117 -12 b 406 117 333 -12 385 35 z m 400 1088 l 253 1088 l 163 872 l 265 872 z m 597 1088 l 447 1088 l 346 872 l 450 872 z "},"ū":{"ha":631,"x_min":0,"x_max":0,"o":"m 426 0 l 571 0 l 571 807 l 393 807 l 393 275 b 311 146 393 193 371 146 b 236 260 253 146 236 188 l 236 807 l 57 807 l 57 229 b 247 -12 57 67 117 -12 b 406 117 333 -12 385 35 z m 157 882 l 464 882 l 464 1010 l 157 1010 z "},"ų":{"ha":631,"x_min":0,"x_max":0,"o":"m 674 -121 l 531 -121 b 482 -171 526 -154 507 -171 b 439 -135 454 -171 439 -160 b 571 0 439 -104 457 -82 l 571 807 l 393 807 l 393 275 b 311 146 393 193 371 146 b 236 260 253 146 236 188 l 236 807 l 57 807 l 57 229 b 247 -12 57 67 117 -12 b 406 117 333 -12 385 35 l 422 25 b 307 -144 329 -39 307 -90 b 474 -281 307 -235 365 -281 b 674 -121 583 -281 651 -231 z "},"ů":{"ha":631,"x_min":0,"x_max":0,"o":"m 426 0 l 571 0 l 571 807 l 393 807 l 393 275 b 311 146 393 193 371 146 b 236 260 253 146 236 188 l 236 807 l 57 807 l 57 229 b 247 -12 57 67 117 -12 b 406 117 333 -12 385 35 z m 313 872 b 472 1019 410 872 472 926 b 313 1168 472 1114 408 1168 b 154 1018 221 1168 154 1114 b 313 872 154 922 217 872 z m 313 975 b 268 1019 282 975 268 993 b 313 1067 268 1047 283 1067 b 360 1019 343 1067 360 1047 b 313 975 360 992 339 975 z "},"ũ":{"ha":631,"x_min":0,"x_max":0,"o":"m 426 0 l 571 0 l 571 807 l 393 807 l 393 275 b 311 146 393 193 371 146 b 236 260 253 146 236 188 l 236 807 l 57 807 l 57 229 b 247 -12 57 67 117 -12 b 406 117 333 -12 385 35 z m 106 876 l 215 876 b 246 942 215 922 224 942 b 411 871 292 942 331 871 b 538 1068 504 871 538 929 l 428 1068 b 394 1006 428 1019 419 1006 b 232 1074 356 1006 311 1074 b 106 876 139 1074 107 1014 z "},"ẃ":{"ha":861,"x_min":0,"x_max":0,"o":"m 411 421 l 425 554 l 435 422 l 525 0 l 692 0 l 857 807 l 688 807 l 604 344 l 596 186 l 579 347 l 482 807 l 371 807 l 269 347 l 246 192 l 244 347 l 176 807 l 4 807 l 146 0 l 317 0 z m 354 876 l 483 876 l 654 1092 l 479 1092 z "},"ŵ":{"ha":861,"x_min":0,"x_max":0,"o":"m 411 421 l 425 554 l 435 422 l 525 0 l 692 0 l 857 807 l 688 807 l 604 344 l 596 186 l 579 347 l 482 807 l 371 807 l 269 347 l 246 192 l 244 347 l 176 807 l 4 807 l 146 0 l 317 0 z m 483 876 l 617 876 l 481 1106 l 367 1106 l 232 876 l 361 876 l 424 992 z "},"ẅ":{"ha":861,"x_min":0,"x_max":0,"o":"m 411 421 l 425 554 l 435 422 l 525 0 l 692 0 l 857 807 l 688 807 l 604 344 l 596 186 l 579 347 l 482 807 l 371 807 l 269 347 l 246 192 l 244 347 l 176 807 l 4 807 l 146 0 l 317 0 z m 526 874 b 608 963 585 874 608 897 b 526 1053 608 1031 585 1053 b 446 963 468 1053 446 1031 b 526 874 446 893 464 874 z m 318 874 b 401 963 379 874 401 897 b 318 1053 401 1031 378 1053 b 238 963 261 1053 238 1031 b 318 874 238 893 257 874 z "},"ẁ":{"ha":861,"x_min":0,"x_max":0,"o":"m 411 421 l 425 554 l 435 422 l 525 0 l 692 0 l 857 807 l 688 807 l 604 344 l 596 186 l 579 347 l 482 807 l 371 807 l 269 347 l 246 192 l 244 347 l 176 807 l 4 807 l 146 0 l 317 0 z m 365 876 l 488 876 l 381 1092 l 207 1092 z "},"ý":{"ha":600,"x_min":0,"x_max":0,"o":"m 129 -249 b 375 -46 292 -249 332 -212 l 590 807 l 415 807 l 318 375 l 306 221 l 294 372 l 190 807 l 13 807 l 225 38 l 215 -8 b 110 -82 200 -71 181 -82 l 43 -82 l 43 -249 z m 228 869 l 357 869 l 528 1085 l 353 1085 z "},"ŷ":{"ha":600,"x_min":0,"x_max":0,"o":"m 129 -249 b 375 -46 292 -249 332 -212 l 590 807 l 415 807 l 318 375 l 306 221 l 294 372 l 190 807 l 13 807 l 225 38 l 215 -8 b 110 -82 200 -71 181 -82 l 43 -82 l 43 -249 z m 363 872 l 496 872 l 360 1101 l 246 1101 l 111 872 l 240 872 l 303 988 z "},"ÿ":{"ha":600,"x_min":0,"x_max":0,"o":"m 129 -249 b 375 -46 292 -249 332 -212 l 590 807 l 415 807 l 318 375 l 306 221 l 294 372 l 190 807 l 13 807 l 225 38 l 215 -8 b 110 -82 200 -71 181 -82 l 43 -82 l 43 -249 z m 406 869 b 488 958 464 869 488 893 b 406 1049 488 1026 464 1049 b 325 958 347 1049 325 1026 b 406 869 325 889 343 869 z m 197 869 b 281 958 258 869 281 893 b 197 1049 281 1026 257 1049 b 117 958 140 1049 117 1026 b 197 869 117 889 136 869 z "},"ỳ":{"ha":600,"x_min":0,"x_max":0,"o":"m 129 -249 b 375 -46 292 -249 332 -212 l 590 807 l 415 807 l 318 375 l 306 221 l 294 372 l 190 807 l 13 807 l 225 38 l 215 -8 b 110 -82 200 -71 181 -82 l 43 -82 l 43 -249 z m 239 872 l 361 872 l 254 1088 l 81 1088 z "},"ĳ":{"ha":600,"x_min":0,"x_max":0,"o":"m 150 846 b 254 949 222 846 254 869 b 150 1051 254 1028 224 1051 b 46 949 75 1051 46 1028 b 150 846 46 868 72 846 z m 450 846 b 554 949 522 846 554 869 b 450 1051 554 1028 525 1051 b 346 949 375 1051 346 1028 b 450 846 346 868 372 846 z m 58 0 l 240 0 l 240 806 b 150 790 229 796 185 790 b 58 804 115 790 69 796 z m 99 -254 l 325 -254 b 540 -47 489 -254 540 -211 l 540 806 b 450 790 528 796 483 790 b 358 804 415 790 371 796 l 358 -18 b 294 -93 358 -81 347 -93 l 99 -93 z "},"ź":{"ha":535,"x_min":0,"x_max":0,"o":"m 36 -1 l 501 0 l 501 160 l 242 160 l 500 661 l 500 807 l 49 807 l 49 651 l 307 651 l 36 139 z m 204 876 l 333 876 l 504 1092 l 329 1092 z "},"ž":{"ha":535,"x_min":0,"x_max":0,"o":"m 36 -1 l 501 0 l 501 160 l 242 160 l 500 661 l 500 807 l 49 807 l 49 651 l 307 651 l 36 139 z m 336 876 l 471 1106 l 342 1106 l 279 992 l 221 1106 l 88 1106 l 222 876 z "},"ż":{"ha":535,"x_min":0,"x_max":0,"o":"m 36 -1 l 501 0 l 501 160 l 242 160 l 500 661 l 500 807 l 49 807 l 49 651 l 307 651 l 36 139 z m 278 875 b 375 976 347 875 375 897 b 278 1079 375 1058 346 1079 b 181 976 208 1079 181 1058 b 278 875 181 894 203 875 z "},"þ":{"ha":643,"x_min":0,"x_max":0,"o":"m 325 146 b 232 282 264 146 232 193 l 232 529 b 328 667 232 618 264 667 b 419 524 388 667 419 628 l 419 286 b 325 146 419 183 386 146 z m 385 -14 b 596 296 519 -14 596 78 l 596 519 b 388 818 596 733 518 818 b 235 713 308 818 260 779 l 235 1042 l 60 1042 l 60 -258 l 235 -258 l 235 86 b 385 -14 260 24 307 -14 z "},"ª":{"ha":467,"x_min":0,"x_max":0,"o":"m 225 542 b 185 585 199 542 185 560 l 185 618 b 199 661 185 638 190 650 b 240 686 208 672 222 679 b 292 711 265 696 282 701 l 292 622 b 225 542 292 574 267 542 z m 313 446 l 432 446 l 432 838 b 242 1008 432 950 368 1008 b 40 840 114 1008 43 946 l 40 790 l 188 790 l 188 835 b 243 894 188 878 207 894 b 292 843 279 894 292 879 l 292 825 b 210 761 292 793 272 781 b 82 710 151 744 114 732 b 28 600 49 688 28 650 l 28 571 b 164 438 28 486 72 438 b 299 510 225 438 272 464 z "},"º":{"ha":472,"x_min":0,"x_max":0,"o":"m 236 439 b 432 631 357 439 432 503 l 432 815 b 236 1008 432 943 353 1008 b 40 815 124 1008 40 944 l 40 631 b 236 439 40 501 110 439 z m 236 567 b 183 635 200 567 183 588 l 183 813 b 236 886 183 865 201 886 b 290 813 272 886 290 865 l 290 635 b 236 567 290 586 274 567 z "},"&":{"ha":813,"x_min":0,"x_max":0,"o":"m 340 772 l 340 782 b 407 879 340 847 364 879 b 468 808 449 879 468 856 l 468 804 b 361 633 468 725 429 681 b 340 772 347 685 340 731 z m 332 136 b 208 253 250 136 208 183 l 208 267 b 275 415 208 338 231 378 b 325 304 290 379 307 342 b 417 153 354 247 385 196 b 332 136 390 142 363 136 z m 676 -14 b 790 22 735 -14 767 0 l 790 171 b 700 136 768 149 742 136 b 644 150 682 136 664 140 b 775 576 728 258 775 411 l 775 615 l 622 615 l 622 579 b 533 253 622 449 590 333 b 461 374 510 286 485 326 b 407 499 440 418 422 460 b 617 808 543 585 617 674 l 617 815 b 404 1011 617 943 538 1011 b 189 776 271 1011 189 926 l 189 767 b 226 553 189 703 203 631 b 33 257 118 485 33 408 l 33 231 b 321 -15 33 68 140 -15 b 525 42 397 -15 467 6 b 676 -14 574 6 625 -14 z "},"´":{"ha":543,"x_min":0,"x_max":0,"o":"m 151 883 l 281 883 l 451 1099 l 276 1099 z "},"˘":{"ha":543,"x_min":0,"x_max":0,"o":"m 269 882 b 464 1096 404 882 464 951 l 344 1096 b 269 994 344 1022 324 996 b 196 1096 215 996 196 1022 l 76 1096 b 269 882 76 951 125 882 z "},"ˇ":{"ha":543,"x_min":0,"x_max":0,"o":"m 328 883 l 463 1113 l 333 1113 l 271 999 l 213 1113 l 79 1113 l 214 883 z "},"¸":{"ha":543,"x_min":0,"x_max":0,"o":"m 274 -321 b 461 -176 390 -321 461 -269 b 324 -53 461 -96 413 -58 l 324 15 l 208 15 l 208 -136 l 274 -136 b 335 -175 317 -136 335 -151 b 275 -219 335 -203 315 -219 b 208 -171 236 -219 215 -204 l 69 -171 b 274 -321 88 -274 146 -321 z "},"ˆ":{"ha":543,"x_min":0,"x_max":0,"o":"m 331 883 l 464 883 l 328 1113 l 214 1113 l 79 883 l 208 883 l 271 999 z "},"¨":{"ha":546,"x_min":0,"x_max":0,"o":"m 376 881 b 458 969 435 881 458 904 b 376 1060 458 1038 435 1060 b 296 969 318 1060 296 1038 b 376 881 296 900 314 881 z m 168 881 b 251 969 229 881 251 904 b 168 1060 251 1038 228 1060 b 88 969 111 1060 88 1038 b 168 881 88 900 107 881 z "},"˙":{"ha":544,"x_min":0,"x_max":0,"o":"m 267 882 b 364 983 336 882 364 904 b 267 1086 364 1065 335 1086 b 169 983 197 1086 169 1065 b 267 882 169 901 192 882 z "},"`":{"ha":543,"x_min":0,"x_max":0,"o":"m 263 883 l 385 883 l 278 1099 l 104 1099 z "},"˝":{"ha":543,"x_min":0,"x_max":0,"o":"m 307 1099 l 160 1099 l 69 883 l 172 883 z m 504 1099 l 354 1099 l 253 883 l 357 883 z "},"¯":{"ha":543,"x_min":0,"x_max":0,"o":"m 118 893 l 425 893 l 425 1021 l 118 1021 z "},"˛":{"ha":543,"x_min":0,"x_max":0,"o":"m 263 -281 b 463 -121 372 -281 440 -231 l 319 -121 b 271 -171 315 -154 296 -171 b 228 -135 243 -171 228 -160 b 360 0 228 -104 246 -82 l 256 53 b 96 -144 125 -24 96 -82 b 263 -281 96 -235 154 -281 z "},"˚":{"ha":543,"x_min":0,"x_max":0,"o":"m 271 885 b 431 1032 368 885 431 939 b 271 1181 431 1126 367 1181 b 113 1031 179 1181 113 1126 b 271 885 113 935 175 885 z m 271 988 b 226 1032 240 988 226 1006 b 271 1079 226 1060 242 1079 b 318 1032 301 1079 318 1060 b 271 988 318 1004 297 988 z "},"˜":{"ha":543,"x_min":0,"x_max":0,"o":"m 60 885 l 169 885 b 200 950 169 931 178 950 b 365 879 246 950 285 879 b 492 1076 458 879 492 938 l 382 1076 b 349 1014 382 1028 374 1014 b 186 1082 310 1014 265 1082 b 60 885 93 1082 61 1022 z "},".":{"ha":346,"x_min":0,"x_max":0,"o":"m 172 -12 b 281 108 251 -12 281 14 b 172 228 281 206 251 228 b 65 108 94 228 65 206 b 172 -12 65 11 90 -12 z "},",":{"ha":346,"x_min":0,"x_max":0,"o":"m 82 -179 b 282 71 218 -168 282 -81 b 174 218 282 192 256 218 b 67 103 94 218 67 196 b 154 -7 67 10 93 -7 b 174 -6 161 -7 167 -7 b 82 -90 167 -57 138 -83 z "},":":{"ha":347,"x_min":0,"x_max":0,"o":"m 174 536 b 281 654 254 536 281 558 b 174 772 281 751 254 772 b 68 654 94 772 68 751 b 174 536 68 557 90 536 z m 174 13 b 281 131 254 13 281 35 b 174 249 281 228 254 249 b 68 131 94 249 68 228 b 174 13 68 33 92 13 z "},";":{"ha":349,"x_min":0,"x_max":0,"o":"m 174 536 b 281 654 254 536 281 558 b 174 772 281 751 254 772 b 68 654 94 772 68 751 b 174 536 68 557 90 536 z m 85 -179 b 283 71 219 -168 283 -81 b 175 218 283 192 257 218 b 68 103 96 218 68 196 b 156 -7 68 10 96 -7 b 175 -6 163 -7 168 -7 b 83 -90 168 -57 139 -83 z "},"…":{"ha":883,"x_min":0,"x_max":0,"o":"m 718 -11 b 817 107 793 -11 817 11 b 718 225 817 204 793 225 b 618 107 643 225 618 204 b 718 -11 618 10 642 -11 z m 443 -11 b 543 107 518 -11 543 11 b 443 225 543 204 518 225 b 344 107 369 225 344 204 b 443 -11 344 10 367 -11 z m 167 -11 b 265 107 242 -11 265 11 b 167 225 265 204 242 225 b 68 107 93 225 68 204 b 167 -11 68 10 90 -11 z "},"!":{"ha":351,"x_min":0,"x_max":0,"o":"m 81 996 l 81 731 b 111 264 81 531 103 288 b 176 271 124 268 149 271 b 240 264 204 271 226 268 b 271 731 249 288 271 532 l 271 996 z m 175 -12 b 282 104 253 -12 282 14 b 175 219 282 197 253 219 b 68 104 96 219 68 197 b 175 -12 68 13 92 -12 z "},"¡":{"ha":351,"x_min":0,"x_max":0,"o":"m 176 824 b 69 708 99 824 69 799 b 176 593 69 615 99 593 b 283 708 256 593 283 615 b 176 824 283 800 260 824 z m 271 -185 l 271 82 b 240 547 271 281 249 525 b 175 542 228 544 203 542 b 111 547 147 542 125 544 b 81 82 103 525 81 281 l 81 -185 z "},"?":{"ha":629,"x_min":0,"x_max":0,"o":"m 214 251 b 300 267 226 260 254 267 b 383 251 344 267 369 260 l 385 325 b 476 450 386 382 421 408 b 589 660 531 490 589 540 l 589 786 b 318 1008 589 915 504 1008 b 42 775 133 1008 42 922 l 42 606 l 226 606 l 226 761 b 317 853 226 819 249 853 b 404 772 379 853 404 821 l 404 653 b 321 539 404 597 364 569 b 210 346 253 492 210 442 l 210 332 b 214 251 210 304 211 274 z m 299 -12 b 407 101 379 -12 407 14 b 300 213 407 190 379 213 b 192 101 221 213 192 190 b 299 -12 192 11 217 -12 z "},"¿":{"ha":629,"x_min":0,"x_max":0,"o":"m 418 558 b 332 543 406 550 378 543 b 249 558 288 543 263 550 l 247 485 b 156 360 246 428 211 401 b 43 150 101 319 43 269 l 43 24 b 314 -199 43 -106 128 -199 b 590 35 499 -199 590 -112 l 590 204 l 406 204 l 406 49 b 315 -43 406 -10 383 -43 b 228 38 253 -43 228 -11 l 228 157 b 311 271 228 213 268 240 b 422 464 379 318 422 368 l 422 478 b 418 558 422 506 421 536 z m 333 822 b 225 708 253 822 225 796 b 332 597 225 619 253 597 b 440 708 411 597 440 619 b 333 822 440 799 415 822 z "},"‽":{"ha":672,"x_min":0,"x_max":0,"o":"m 403 713 l 403 867 b 465 774 447 853 465 821 l 465 663 b 397 538 465 589 431 581 b 403 713 401 599 403 661 z m 340 265 b 399 257 368 265 385 263 l 403 315 b 626 663 411 461 626 451 l 626 782 b 335 1010 626 911 540 1010 b 43 758 133 1010 43 911 l 43 604 l 204 604 l 204 751 b 267 865 204 808 224 847 l 267 713 b 272 335 267 561 269 414 b 279 256 274 292 275 269 b 340 265 292 263 311 265 z m 340 -12 b 449 101 419 -12 449 14 b 340 213 449 190 419 213 b 233 101 261 213 233 190 b 340 -12 233 11 257 -12 z "},"⸘":{"ha":672,"x_min":0,"x_max":0,"o":"m 333 818 b 226 706 254 818 226 794 b 333 594 226 617 254 594 b 442 706 413 594 442 617 b 333 818 442 796 417 818 z m 339 -204 b 631 49 542 -204 631 -104 l 631 203 l 469 203 l 469 56 b 407 -60 469 -3 451 -42 l 407 94 b 403 463 407 240 404 379 b 396 551 400 511 399 538 b 333 542 382 546 364 542 b 275 550 306 542 289 546 l 272 493 b 47 144 263 346 47 357 l 47 26 b 339 -204 47 -104 133 -204 z m 210 33 l 210 144 b 276 268 210 218 244 226 b 271 94 272 207 271 146 l 271 -61 b 210 33 228 -46 210 -14 z "},"‘":{"ha":318,"x_min":0,"x_max":0,"o":"m 161 646 b 256 751 232 646 256 667 b 178 853 256 839 232 853 b 163 851 172 853 167 853 b 242 931 168 903 192 926 l 242 1010 b 64 785 121 1007 64 928 b 161 646 64 671 88 646 z "},"’":{"ha":318,"x_min":0,"x_max":0,"o":"m 76 642 b 254 868 199 646 254 725 b 157 1007 254 982 231 1007 b 64 900 86 1007 64 985 b 142 800 64 814 86 800 b 156 801 147 800 151 800 b 76 722 151 750 128 726 z "},"“":{"ha":575,"x_min":0,"x_max":0,"o":"m 419 646 b 513 751 489 646 513 667 b 435 853 513 838 489 853 b 419 851 429 853 424 853 b 499 929 425 903 449 926 l 499 1010 b 322 785 378 1007 322 928 b 419 646 322 671 346 646 z m 161 646 b 256 751 232 646 256 667 b 178 853 256 838 232 853 b 163 851 172 853 167 853 b 242 929 168 903 192 926 l 242 1010 b 64 785 121 1007 64 928 b 161 646 64 671 88 646 z "},"”":{"ha":575,"x_min":0,"x_max":0,"o":"m 76 642 b 254 868 197 646 254 725 b 157 1007 254 982 231 1007 b 63 900 86 1007 63 985 b 140 800 63 814 86 800 b 156 801 146 800 151 800 b 76 722 150 750 126 726 z m 333 642 b 511 868 456 646 511 725 b 414 1007 511 982 488 1007 b 319 900 343 1007 319 985 b 399 800 319 814 343 800 b 413 801 403 800 408 800 b 333 722 407 750 383 726 z "},"‚":{"ha":325,"x_min":0,"x_max":0,"o":"m 79 -162 b 257 64 200 -160 257 -81 b 160 203 257 178 233 203 b 65 97 89 203 65 182 b 143 -6 65 10 89 -6 b 158 -4 149 -6 154 -6 b 79 -82 153 -57 129 -79 z "},"„":{"ha":575,"x_min":0,"x_max":0,"o":"m 76 -162 b 254 64 197 -160 254 -81 b 157 203 254 178 231 203 b 63 97 86 203 63 182 b 140 -6 63 10 86 -6 b 156 -4 146 -6 151 -6 b 76 -82 150 -57 126 -79 z m 333 -162 b 511 64 456 -160 511 -81 b 414 203 511 178 488 203 b 319 97 343 203 319 182 b 399 -6 319 10 343 -6 b 413 -4 403 -6 408 -6 b 333 -82 407 -57 383 -79 z "},"‛":{"ha":318,"x_min":0,"x_max":0,"o":"m 242 722 b 163 801 192 726 168 750 b 178 800 167 800 172 800 b 256 900 232 800 256 814 b 161 1007 256 985 232 1007 b 64 865 88 1007 64 979 b 242 642 64 722 121 646 z "},"‟":{"ha":575,"x_min":0,"x_max":0,"o":"m 242 722 b 163 801 190 726 167 750 b 176 800 167 800 171 800 b 254 900 232 800 254 814 b 161 1007 254 985 232 1007 b 63 865 88 1007 63 979 b 242 642 63 722 119 646 z m 499 722 b 419 801 449 726 425 750 b 433 800 424 800 429 800 b 513 900 489 800 513 814 b 418 1007 513 985 489 1007 b 321 865 344 1007 321 979 b 499 642 321 722 376 646 z "},"‹":{"ha":432,"x_min":0,"x_max":0,"o":"m 396 154 l 217 421 l 383 686 l 219 686 l 60 422 l 60 408 l 225 154 z "},"›":{"ha":432,"x_min":0,"x_max":0,"o":"m 208 154 l 374 408 l 374 422 l 214 686 l 50 686 l 217 421 l 38 154 z "},"«":{"ha":678,"x_min":0,"x_max":0,"o":"m 642 154 l 457 425 l 624 686 l 471 686 l 310 428 l 310 411 l 481 154 z m 386 154 l 210 419 l 379 686 l 225 686 l 60 421 l 60 408 l 225 154 z "},"»":{"ha":678,"x_min":0,"x_max":0,"o":"m 199 154 l 369 411 l 369 428 l 208 686 l 54 686 l 221 425 l 38 154 z m 454 154 l 619 408 l 619 421 l 454 686 l 300 686 l 471 418 l 293 154 z "},"/":{"ha":440,"x_min":0,"x_max":0,"o":"m 206 0 l 426 996 l 238 996 l 14 0 z "},"\\":{"ha":440,"x_min":0,"x_max":0,"o":"m 19 996 l 235 0 l 421 0 l 207 996 z "},"|":{"ha":315,"x_min":0,"x_max":0,"o":"m 247 -78 l 247 1069 l 69 1069 l 69 -78 z "},"‖":{"ha":581,"x_min":0,"x_max":0,"o":"m 513 -69 l 513 1069 l 342 1069 l 342 -69 z m 240 -69 l 240 1069 l 69 1069 l 69 -69 z "},"¦":{"ha":315,"x_min":0,"x_max":0,"o":"m 69 551 l 247 551 l 247 1069 l 69 1069 z m 69 464 l 69 -78 l 247 -78 l 247 464 z "},"•":{"ha":424,"x_min":0,"x_max":0,"o":"m 211 274 b 343 408 303 274 343 310 b 211 542 343 510 303 542 b 81 408 122 542 81 507 b 211 274 81 308 117 274 z "},"·":{"ha":346,"x_min":0,"x_max":0,"o":"m 172 297 b 281 415 251 297 281 321 b 172 535 281 513 251 535 b 65 415 94 535 65 513 b 172 297 65 319 90 297 z "},"-":{"ha":524,"x_min":0,"x_max":0,"o":"m 474 503 l 51 503 l 51 331 l 474 331 z "},"­":{"ha":524,"x_min":0,"x_max":0,"o":"m 474 503 l 51 503 l 51 331 l 474 331 z "},"–":{"ha":492,"x_min":0,"x_max":0,"o":"m 442 503 l 51 503 l 51 331 l 442 331 z "},"—":{"ha":672,"x_min":0,"x_max":0,"o":"m 622 503 l 51 503 l 51 331 l 622 331 z "},"‒":{"ha":693,"x_min":0,"x_max":0,"o":"m 643 503 l 51 503 l 51 331 l 643 331 z "},"―":{"ha":867,"x_min":0,"x_max":0,"o":"m 817 503 l 51 503 l 51 331 l 817 331 z "},"(":{"ha":429,"x_min":0,"x_max":0,"o":"m 58 175 b 401 -219 58 -108 176 -215 l 401 -47 b 244 185 293 -43 244 21 l 244 614 b 401 850 244 781 293 844 l 401 1018 b 58 618 186 1014 58 899 z "},")":{"ha":429,"x_min":0,"x_max":0,"o":"m 28 -219 b 371 175 253 -215 371 -108 l 371 618 b 28 1018 371 899 243 1014 l 28 849 b 185 614 136 844 185 781 l 185 185 b 28 -47 185 21 136 -43 z "},"[":{"ha":421,"x_min":0,"x_max":0,"o":"m 390 -68 l 247 -68 l 247 864 l 390 864 l 390 1015 l 69 1015 l 69 -219 l 390 -219 z "},"]":{"ha":421,"x_min":0,"x_max":0,"o":"m 353 -219 l 353 1015 l 32 1015 l 32 864 l 175 864 l 175 -68 l 32 -68 l 32 -219 z "},"{":{"ha":451,"x_min":0,"x_max":0,"o":"m 422 -219 l 422 -76 l 371 -76 b 285 -4 311 -76 285 -56 b 353 263 285 68 353 171 b 218 396 353 346 314 396 l 218 413 b 353 542 314 414 353 458 b 282 801 353 635 282 732 b 369 874 282 853 310 874 l 422 874 l 422 1017 l 278 1017 b 100 850 144 1017 100 947 b 172 567 100 742 172 639 b 90 488 172 510 147 488 l 38 488 l 38 319 l 96 319 b 178 238 151 319 178 297 b 99 -54 178 167 99 56 b 278 -219 99 -151 146 -219 z "},"}":{"ha":451,"x_min":0,"x_max":0,"o":"m 29 -219 l 174 -219 b 353 -54 306 -219 353 -151 b 274 238 353 56 274 167 b 356 319 274 297 300 319 l 415 319 l 415 488 l 361 488 b 279 567 304 488 279 510 b 351 850 279 639 351 742 b 174 1017 351 947 307 1017 l 29 1017 l 29 874 l 82 874 b 169 801 142 874 169 853 b 100 542 169 732 100 635 b 233 413 100 458 138 414 l 233 396 b 99 263 138 396 99 346 b 167 -4 99 171 167 68 b 82 -76 167 -56 142 -76 l 29 -76 z "},"〈":{"ha":413,"x_min":0,"x_max":0,"o":"m 407 -219 l 217 411 l 401 1015 l 218 1015 l 35 406 l 221 -219 z "},"〉":{"ha":413,"x_min":0,"x_max":0,"o":"m 193 -219 l 378 406 l 196 1015 l 11 1015 l 196 411 l 4 -219 z "},"*":{"ha":531,"x_min":0,"x_max":0,"o":"m 419 667 l 490 792 l 313 839 l 490 886 l 418 1010 l 290 882 l 339 1056 l 193 1056 l 243 879 l 113 1008 l 42 883 l 218 838 l 42 790 l 114 667 l 242 796 l 193 619 l 339 619 l 292 794 z "},"†":{"ha":599,"x_min":0,"x_max":0,"o":"m 551 619 l 551 799 l 388 799 l 388 1100 l 211 1100 l 211 799 l 47 799 l 47 619 l 211 619 l 211 -104 l 388 -104 l 388 619 z "},"‡":{"ha":599,"x_min":0,"x_max":0,"o":"m 551 211 l 551 388 l 388 388 l 388 632 l 551 632 l 551 807 l 388 807 l 388 1100 l 211 1100 l 211 807 l 47 807 l 47 632 l 211 632 l 211 388 l 47 388 l 47 211 l 211 211 l 211 -104 l 388 -104 l 388 211 z "},"§":{"ha":676,"x_min":0,"x_max":0,"o":"m 382 421 b 186 553 258 474 186 504 l 186 560 b 218 613 188 583 197 601 b 301 572 243 599 271 585 b 493 440 424 519 493 490 l 493 433 b 465 381 492 408 483 390 b 382 421 439 394 411 407 z m 340 -50 b 600 165 514 -50 600 28 l 600 186 b 528 340 600 257 572 304 b 660 469 604 343 660 394 l 660 482 b 453 685 660 588 568 636 b 263 814 338 733 263 756 l 263 824 b 336 888 263 865 285 888 b 418 817 392 888 417 865 l 418 769 l 592 769 l 592 821 b 339 1026 585 953 507 1026 b 90 821 176 1026 90 950 l 90 804 b 160 653 90 738 117 690 l 153 653 b 18 521 76 650 18 597 l 18 507 b 228 304 18 401 111 353 b 426 174 346 257 426 231 l 426 164 b 346 96 426 114 399 96 b 257 176 288 96 261 117 l 257 225 l 76 225 l 76 169 b 340 -50 83 21 165 -50 z "},"¶":{"ha":829,"x_min":0,"x_max":0,"o":"m 525 0 l 525 846 l 604 846 l 604 0 l 765 0 l 765 996 l 339 996 b 36 694 138 996 36 885 b 340 390 36 501 139 389 l 364 390 l 364 0 z m 343 546 b 215 694 263 546 215 593 b 342 846 215 799 260 846 l 364 846 l 364 546 z "},"^":{"ha":610,"x_min":0,"x_max":0,"o":"m 390 614 l 542 614 l 369 993 l 238 993 l 69 614 l 219 614 l 304 838 z "},"~":{"ha":588,"x_min":0,"x_max":0,"o":"m 74 740 l 185 740 b 215 807 185 788 193 807 b 383 735 260 807 300 735 b 513 935 478 735 513 794 l 401 935 b 367 871 401 885 392 871 b 201 940 326 871 282 940 b 74 740 107 940 74 881 z "},"_":{"ha":642,"x_min":0,"x_max":0,"o":"m 606 -69 l 36 -69 l 36 -224 l 606 -224 z "},"'":{"ha":258,"x_min":0,"x_max":0,"o":"m 74 663 l 183 663 b 208 971 194 715 208 846 l 208 996 l 50 996 l 50 971 b 74 663 50 846 63 714 z "},"\"":{"ha":482,"x_min":0,"x_max":0,"o":"m 299 663 l 407 663 b 433 971 418 715 433 846 l 433 996 l 275 996 l 275 971 b 299 663 275 846 286 714 z m 74 663 l 183 663 b 208 971 194 715 208 846 l 208 996 l 50 996 l 50 971 b 74 663 50 846 63 714 z "},"‴":{"ha":707,"x_min":0,"x_max":0,"o":"m 500 996 l 500 971 b 522 663 500 846 511 714 l 632 663 b 658 971 643 715 658 846 l 658 996 z m 275 996 l 275 971 b 299 663 275 846 286 714 l 408 663 b 433 971 419 715 433 846 l 433 996 z m 50 996 l 50 971 b 74 663 50 846 63 714 l 183 663 b 208 971 194 715 208 846 l 208 996 z "},"@":{"ha":839,"x_min":0,"x_max":0,"o":"m 421 -153 b 733 13 568 -153 671 -97 l 590 32 b 422 -39 553 -15 511 -39 b 165 243 257 -39 165 58 l 165 588 b 425 871 165 775 260 871 b 676 611 607 871 676 772 l 676 313 b 633 172 676 201 663 172 b 597 253 604 172 597 192 l 597 760 l 511 760 l 489 699 b 383 768 474 738 439 768 b 239 576 299 768 239 714 l 239 251 b 382 63 239 121 289 63 b 494 135 444 63 479 94 b 626 65 517 90 560 65 b 796 306 743 65 796 140 l 796 614 b 426 985 796 839 667 985 b 47 597 203 985 47 847 l 47 232 b 421 -153 47 -31 193 -153 z m 418 172 b 367 264 378 172 367 197 l 367 564 b 418 660 367 632 381 660 b 469 563 458 660 469 631 l 469 264 b 418 172 469 199 457 172 z "},"©":{"ha":857,"x_min":0,"x_max":0,"o":"m 432 -15 b 808 361 651 -15 808 126 l 808 633 b 426 1007 808 867 649 1007 b 49 622 208 1007 49 861 l 49 357 b 432 -15 49 108 206 -15 z m 432 107 b 174 365 268 107 174 196 l 174 615 b 426 886 174 786 272 886 b 683 626 589 886 683 792 l 683 368 b 432 107 683 197 589 107 z m 432 165 b 622 356 544 165 619 231 l 622 446 l 492 446 l 492 361 b 432 286 490 306 472 286 b 372 374 390 286 372 311 l 372 621 b 433 713 372 688 393 713 b 492 642 472 713 490 694 l 492 564 l 622 564 l 622 644 b 432 831 619 767 553 831 b 240 621 314 831 240 758 l 240 367 b 432 165 240 233 310 165 z "},"®":{"ha":560,"x_min":0,"x_max":0,"o":"m 283 522 b 510 750 413 522 510 604 l 510 778 b 279 1008 510 924 413 1008 b 50 775 147 1008 50 922 l 50 749 b 283 522 50 594 147 522 z m 283 599 b 128 756 185 599 128 646 l 128 769 b 279 936 128 878 186 936 b 433 772 375 936 433 881 l 433 756 b 283 599 433 646 378 599 z m 278 833 b 319 807 307 833 319 828 b 278 778 319 785 307 778 l 258 778 l 258 833 z m 276 718 b 310 683 304 718 310 713 l 310 657 b 314 642 310 651 311 644 l 386 642 b 381 656 382 644 381 650 l 381 686 b 350 749 381 721 372 739 b 390 811 376 760 390 781 b 289 893 390 864 360 893 l 188 893 l 188 642 l 258 642 l 258 718 z "},"℗":{"ha":857,"x_min":0,"x_max":0,"o":"m 432 -15 b 808 361 651 -15 808 126 l 808 633 b 426 1007 808 867 649 1007 b 50 622 208 1007 50 861 l 50 357 b 432 -15 50 108 206 -15 z m 432 107 b 174 365 268 107 174 196 l 174 615 b 426 886 174 786 272 886 b 683 626 589 886 683 792 l 683 368 b 432 107 683 197 589 107 z m 432 710 b 490 656 475 710 490 693 l 490 525 b 435 469 490 488 474 469 l 397 469 l 397 710 z m 449 364 b 611 518 561 363 611 417 l 611 668 b 442 813 611 757 558 813 l 278 813 l 278 178 l 397 178 l 397 364 z "},"™":{"ha":676,"x_min":0,"x_max":0,"o":"m 265 901 l 265 996 l 29 996 l 29 901 l 97 901 l 97 574 l 196 574 l 196 901 z m 393 774 l 390 803 l 456 672 l 468 672 l 531 800 l 532 803 l 529 774 l 529 574 l 619 574 l 619 996 l 535 996 l 463 824 l 389 996 l 304 996 l 304 574 l 393 574 z "},"℠":{"ha":697,"x_min":0,"x_max":0,"o":"m 419 775 l 418 803 l 483 657 l 496 657 l 558 799 l 557 775 l 557 574 l 649 574 l 649 996 l 563 996 l 489 815 l 415 996 l 329 996 l 329 574 l 419 574 z m 161 567 b 286 678 243 567 286 610 l 286 710 b 193 828 286 781 239 807 b 131 879 156 846 131 854 l 131 899 b 158 931 131 919 142 931 b 188 899 181 931 188 919 l 188 858 l 282 858 l 282 901 b 160 1006 282 967 244 1006 b 35 899 76 1006 35 963 l 35 875 b 128 761 35 804 82 782 b 192 707 163 746 192 735 l 192 679 b 161 649 192 660 182 649 b 128 685 135 649 128 660 l 128 732 l 29 732 l 29 681 b 161 567 29 607 67 567 z "},"€":{"ha":700,"x_min":0,"x_max":0,"o":"m 675 272 l 675 318 l 483 318 l 483 285 b 390 153 483 190 463 153 b 289 301 314 153 289 199 l 289 369 l 485 369 l 518 472 l 289 472 l 289 539 l 540 539 l 574 642 l 289 642 l 289 699 b 389 849 289 800 313 849 b 483 726 461 849 483 810 l 483 701 l 672 701 l 672 739 b 390 1010 672 913 579 1010 b 104 710 213 1010 104 914 l 104 642 l 26 642 l 26 539 l 104 539 l 104 472 l 26 472 l 26 369 l 104 369 l 104 288 b 390 -15 104 78 201 -15 b 675 272 572 -15 672 72 z "},"$":{"ha":617,"x_min":0,"x_max":0,"o":"m 397 -147 l 397 -7 b 578 232 513 19 578 104 l 578 324 b 375 571 578 476 476 526 b 226 707 288 614 226 639 l 226 775 b 306 865 226 826 247 865 b 390 772 367 865 390 835 l 390 660 l 567 660 l 567 783 b 403 1000 567 893 513 972 l 403 1149 l 232 1149 l 232 1004 b 46 774 111 978 46 888 l 46 693 b 250 446 47 542 147 492 b 399 310 335 407 399 383 l 399 229 b 315 140 399 176 375 140 b 221 243 243 140 221 181 l 221 374 l 38 374 l 38 242 b 225 -8 38 100 92 15 l 225 -147 z "},"¢":{"ha":631,"x_min":0,"x_max":0,"o":"m 588 251 l 588 357 l 404 357 l 404 256 b 317 142 404 178 378 142 b 225 265 256 142 225 182 l 225 538 b 318 667 225 626 254 667 b 404 553 382 667 404 633 l 404 468 l 588 468 l 588 556 b 407 811 588 703 521 785 l 407 946 l 238 946 l 238 811 b 47 539 119 785 47 694 l 47 261 b 235 -8 47 106 110 18 l 235 -150 l 406 -150 l 406 -6 b 588 251 519 19 588 103 z "},"£":{"ha":694,"x_min":0,"x_max":0,"o":"m 483 -18 b 664 215 614 -18 664 38 l 664 288 l 493 288 l 493 233 b 436 128 493 154 479 128 b 353 157 408 128 381 140 b 364 247 360 185 364 215 b 350 393 364 300 358 347 l 486 393 l 486 517 l 322 517 b 282 761 301 600 282 676 b 353 854 282 825 306 854 b 425 761 406 854 425 825 l 425 701 l 604 703 l 604 767 b 356 1011 599 922 524 1011 b 106 772 186 1011 106 914 b 168 517 107 668 138 590 l 67 517 l 67 393 l 213 393 b 254 232 236 342 254 290 l 254 215 b 154 242 224 231 190 242 b 11 110 67 242 11 190 b 160 -18 11 28 58 -18 b 301 51 217 -18 265 8 b 483 -18 351 15 411 -18 z m 161 86 b 126 114 140 86 126 96 b 157 142 126 131 138 142 b 222 113 176 142 197 129 b 161 86 207 94 186 86 z "},"ƒ":{"ha":443,"x_min":0,"x_max":0,"o":"m 306 -17 l 306 386 l 424 386 l 424 547 l 307 547 l 307 825 b 374 910 307 894 319 910 l 424 910 l 424 1063 l 346 1063 b 132 843 193 1063 132 1004 l 132 547 l 19 547 l 19 386 l 132 386 l 132 4 b 68 -72 132 -60 119 -72 l 13 -72 l 13 -229 l 93 -229 b 306 -17 256 -229 306 -178 z "},"¥":{"ha":599,"x_min":0,"x_max":0,"o":"m 529 189 l 529 315 l 389 315 l 389 383 l 531 383 l 531 511 l 399 511 l 599 996 l 414 996 l 300 703 l 299 693 l 296 704 l 186 996 l 1 996 l 192 511 l 71 511 l 71 383 l 204 383 l 204 315 l 71 315 l 71 189 l 204 189 l 204 0 l 389 0 l 389 189 z "},"₡":{"ha":724,"x_min":0,"x_max":0,"o":"m 281 -158 l 376 -158 l 401 -15 b 688 292 582 -4 686 101 l 688 419 l 503 419 l 503 299 b 369 150 501 199 464 150 b 231 322 264 150 231 207 l 231 669 b 368 850 231 792 274 850 b 503 708 461 850 503 799 l 503 600 l 686 600 l 686 719 b 554 967 686 838 638 922 l 585 1136 l 490 1136 l 467 999 b 421 1006 451 1001 436 1004 l 443 1136 l 350 1136 l 328 1007 b 50 681 154 992 50 879 l 50 311 b 178 32 50 179 94 85 l 142 -158 l 236 -158 l 265 -6 b 308 -12 279 -8 293 -11 z "},"₢":{"ha":719,"x_min":0,"x_max":0,"o":"m 682 271 l 682 374 l 517 374 l 517 272 b 438 139 517 199 493 156 l 438 328 b 538 442 438 426 446 442 l 622 442 l 622 601 l 574 601 b 428 489 488 601 443 568 l 406 599 l 294 599 l 294 144 b 217 321 238 168 217 226 l 217 665 b 369 857 217 794 268 857 b 508 726 465 857 508 804 l 508 663 l 678 663 l 678 732 b 371 1006 678 910 564 1006 b 50 675 169 1006 50 886 l 50 314 b 371 -17 50 101 147 -17 b 682 271 578 -17 682 96 z "},"₣":{"ha":546,"x_min":0,"x_max":0,"o":"m 496 210 l 496 357 l 242 357 l 242 444 l 496 444 l 496 592 l 242 592 l 242 832 l 508 832 l 508 996 l 65 996 l 65 0 l 242 0 l 242 210 z "},"₤":{"ha":699,"x_min":0,"x_max":0,"o":"m 488 -18 b 669 215 619 -18 669 38 l 669 283 l 497 283 l 497 233 b 440 128 497 154 483 128 b 357 157 413 128 385 140 b 365 238 363 181 365 208 b 358 344 365 274 363 310 l 488 344 l 488 443 l 340 443 b 329 499 338 461 333 481 l 488 499 l 488 597 l 307 597 b 286 761 294 653 286 707 b 357 854 286 825 308 854 b 431 761 410 854 429 825 l 431 701 l 608 703 l 608 767 b 360 1011 604 922 526 1011 b 110 768 188 1011 110 915 b 139 597 110 706 122 650 l 58 597 l 58 499 l 176 499 b 200 443 185 479 193 461 l 58 443 l 58 344 l 239 344 b 260 224 251 306 260 265 l 260 215 b 160 242 229 231 197 242 b 14 108 71 242 14 190 b 164 -18 14 26 64 -18 b 308 49 224 -18 272 6 b 488 -18 358 14 417 -18 z m 164 85 b 129 113 142 85 129 94 b 160 140 129 129 140 140 b 229 108 181 140 203 128 b 164 85 213 92 192 85 z "},"₦":{"ha":843,"x_min":0,"x_max":0,"o":"m 281 586 l 278 638 l 550 0 l 725 0 l 725 360 l 832 360 l 832 469 l 725 469 l 725 531 l 832 531 l 832 640 l 725 640 l 725 996 l 560 996 l 560 424 l 564 351 l 557 374 l 294 996 l 117 996 l 117 640 l 13 640 l 13 531 l 117 531 l 117 469 l 13 469 l 13 360 l 117 360 l 117 0 l 281 0 z "},"₧":{"ha":1603,"x_min":0,"x_max":0,"o":"m 322 843 b 426 744 392 843 426 817 l 426 572 b 324 469 426 503 392 469 l 242 469 l 242 843 z m 332 313 b 606 569 524 313 606 410 l 606 642 l 713 642 l 713 307 b 1040 0 713 89 761 0 l 1243 0 b 1574 232 1506 0 1574 79 l 1574 268 b 1406 468 1574 394 1489 440 b 1238 568 1321 497 1238 510 l 1238 610 b 1311 681 1238 653 1260 681 b 1393 603 1365 681 1390 653 l 1393 535 l 1565 535 l 1565 607 b 1313 818 1558 738 1479 818 b 1065 607 1153 818 1065 735 l 1065 557 b 1232 360 1065 432 1149 388 b 1400 251 1317 332 1400 311 l 1400 239 b 1238 154 1400 179 1374 154 l 1067 154 b 882 328 911 154 882 189 l 882 642 l 1018 642 l 1018 807 l 882 807 l 882 958 l 757 958 b 738 868 751 922 747 893 b 689 811 726 840 711 822 b 603 793 669 800 636 794 b 329 996 588 929 503 996 l 65 996 l 65 0 l 242 0 l 242 313 z "},"₨":{"ha":1210,"x_min":0,"x_max":0,"o":"m 908 -7 b 1176 229 1092 -7 1176 86 l 1176 243 b 838 590 1176 513 838 460 l 838 600 b 917 676 838 644 861 676 b 994 596 972 676 994 647 l 994 542 l 1164 542 l 1164 603 b 915 818 1164 733 1088 818 b 664 596 746 818 664 724 l 664 582 b 1003 235 664 314 1003 388 l 1003 228 b 894 142 1003 175 968 142 l 854 142 b 660 263 771 142 715 171 l 614 336 b 490 454 576 394 544 433 b 603 640 563 483 603 542 l 603 771 b 335 996 603 913 528 996 l 65 996 l 65 0 l 242 0 l 242 382 l 300 382 b 461 268 389 382 424 332 l 508 190 b 840 -7 588 53 661 -7 z m 326 843 b 425 756 396 843 425 815 l 425 635 b 328 539 425 572 396 539 l 242 539 l 242 843 z "},"₩":{"ha":958,"x_min":0,"x_max":0,"o":"m 461 554 l 476 725 l 490 554 l 590 0 l 756 0 l 814 331 l 944 331 l 944 453 l 835 453 l 846 515 l 944 515 l 944 639 l 868 639 l 931 996 l 760 996 l 675 442 l 661 239 l 640 431 l 538 996 l 418 996 l 310 431 l 286 244 l 278 442 l 203 996 l 32 996 l 88 639 l 14 639 l 14 515 l 107 515 l 117 453 l 14 453 l 14 331 l 136 331 l 188 0 l 353 0 z "},"₪":{"ha":976,"x_min":0,"x_max":0,"o":"m 336 854 b 531 636 465 854 531 797 l 531 217 l 544 217 b 686 376 643 217 686 251 l 686 665 b 354 996 686 886 563 996 l 65 996 l 65 0 l 222 0 l 222 854 z m 583 0 b 918 350 800 0 918 125 l 918 996 l 760 996 l 760 378 b 564 144 760 207 685 144 l 454 144 l 454 622 b 314 785 454 754 424 785 l 297 785 l 297 0 z "},"₮":{"ha":563,"x_min":0,"x_max":0,"o":"m 483 408 l 483 507 l 371 464 l 371 529 l 483 572 l 483 672 l 371 629 l 371 832 l 536 832 l 536 996 l 28 996 l 28 832 l 192 832 l 192 558 l 83 517 l 83 417 l 192 458 l 192 393 l 83 351 l 83 251 l 192 294 l 192 0 l 371 0 l 371 364 z "},"₱":{"ha":694,"x_min":0,"x_max":0,"o":"m 325 851 b 446 743 403 851 442 818 l 253 743 l 253 851 z m 446 589 l 253 589 l 253 653 l 446 653 z m 326 388 l 253 388 l 253 499 l 446 499 b 326 388 440 428 401 388 z m 336 240 b 617 499 529 240 611 347 l 682 499 l 682 589 l 617 589 l 617 653 l 682 653 l 682 743 l 617 743 b 333 996 617 903 529 996 l 85 996 l 85 743 l 14 743 l 14 653 l 85 653 l 85 589 l 14 589 l 14 499 l 85 499 l 85 0 l 253 0 l 253 240 z "},"฿":{"ha":714,"x_min":0,"x_max":0,"o":"m 235 583 l 235 851 l 311 851 l 311 583 z m 492 769 l 492 678 b 413 583 492 617 471 588 l 413 851 b 492 769 468 847 492 821 z m 235 154 l 235 439 l 311 439 l 311 154 z m 499 350 l 499 240 b 413 154 499 182 479 157 l 413 439 b 499 350 476 433 499 404 z m 425 0 b 675 222 606 0 675 85 l 675 346 b 567 514 675 433 639 486 b 661 692 631 543 661 599 l 661 793 b 413 996 661 919 592 992 l 413 1103 l 311 1103 l 311 996 l 65 996 l 65 0 l 311 0 l 311 -115 l 413 -115 l 413 0 z "},"#":{"ha":904,"x_min":0,"x_max":0,"o":"m 511 399 l 369 399 l 394 617 l 536 617 z m 467 0 l 638 0 l 665 247 l 835 247 l 835 399 l 682 399 l 707 617 l 867 617 l 867 768 l 724 768 l 749 996 l 579 996 l 553 768 l 411 768 l 438 996 l 268 996 l 242 768 l 72 768 l 72 617 l 225 617 l 200 399 l 40 399 l 40 247 l 183 247 l 156 0 l 325 0 l 353 247 l 494 247 z "},"⁰":{"ha":378,"x_min":0,"x_max":0,"o":"m 189 489 b 342 643 288 489 342 539 l 342 850 b 189 1004 342 954 285 1004 b 38 850 94 1004 38 954 l 38 643 b 189 489 38 540 90 489 z m 189 593 b 151 651 161 593 151 608 l 151 847 b 190 904 151 889 163 904 b 228 847 218 904 228 889 l 228 651 b 189 593 228 608 217 593 z "},"¹":{"ha":310,"x_min":0,"x_max":0,"o":"m 283 499 l 283 603 l 211 603 l 211 996 l 124 996 b 42 918 115 946 90 921 l 42 833 l 104 833 l 104 603 l 29 603 l 29 499 z "},"²":{"ha":361,"x_min":0,"x_max":0,"o":"m 328 499 l 328 604 l 151 604 b 328 836 172 681 328 696 l 328 878 b 183 1004 328 960 283 1004 b 35 875 88 1004 35 954 l 33 801 l 147 801 l 147 868 b 182 908 147 893 156 908 b 215 874 207 908 215 897 l 215 839 b 33 583 215 747 33 742 l 33 499 z "},"³":{"ha":361,"x_min":0,"x_max":0,"o":"m 181 489 b 329 608 281 489 329 538 l 329 674 b 272 757 329 721 308 746 b 324 838 308 769 324 797 l 324 886 b 178 1003 324 958 279 1003 b 33 876 79 1003 33 956 l 33 828 l 143 828 l 143 868 b 179 907 143 896 153 907 b 214 869 206 907 214 896 l 214 831 b 179 796 214 806 206 796 l 138 796 l 138 706 l 178 706 b 215 674 204 706 215 699 l 215 624 b 178 590 215 601 206 590 b 142 628 150 590 142 603 l 142 676 l 29 676 l 29 615 b 181 489 29 531 72 489 z "},"⁴":{"ha":368,"x_min":0,"x_max":0,"o":"m 193 794 l 201 818 l 199 793 l 199 679 l 129 679 z m 351 588 l 351 679 l 297 679 l 297 996 l 199 996 l 22 668 l 22 588 l 199 588 l 199 499 l 297 499 l 297 588 z "},"⁵":{"ha":367,"x_min":0,"x_max":0,"o":"m 186 489 b 335 622 288 489 335 540 l 335 728 b 222 843 335 801 296 843 b 146 814 188 843 163 832 l 156 897 l 221 897 b 319 990 301 897 319 915 l 319 996 l 67 996 l 40 742 l 140 715 l 146 728 b 186 754 154 743 168 754 b 224 718 210 754 224 744 l 224 632 b 186 590 224 607 214 590 b 150 626 161 590 150 603 l 150 678 l 35 678 l 35 618 b 186 489 35 536 79 489 z "},"⁶":{"ha":375,"x_min":0,"x_max":0,"o":"m 342 626 l 342 693 b 233 799 342 764 301 799 b 147 757 192 799 164 783 l 147 849 b 188 910 147 894 161 910 b 225 865 214 910 225 894 l 225 831 l 338 831 l 338 868 b 189 1004 336 957 289 1004 b 36 850 93 1004 36 953 l 36 649 b 190 489 36 544 79 489 b 342 626 290 489 342 540 z m 192 588 b 147 650 160 588 147 604 l 147 701 b 193 724 156 715 171 724 b 232 689 218 724 232 713 l 232 632 b 192 588 232 604 221 588 z "},"⁷":{"ha":328,"x_min":0,"x_max":0,"o":"m 176 499 b 306 906 199 654 244 785 l 306 996 l 24 996 l 24 890 l 190 890 b 51 499 139 790 81 657 z "},"⁸":{"ha":376,"x_min":0,"x_max":0,"o":"m 188 489 b 342 613 290 489 342 533 l 342 668 b 285 758 342 717 319 744 b 336 842 317 771 336 796 l 336 886 b 189 1004 336 961 283 1004 b 43 885 94 1004 43 960 l 43 842 b 94 757 43 796 63 769 b 35 669 58 743 35 714 l 35 613 b 188 489 35 531 82 489 z m 190 797 l 186 797 b 150 832 161 797 150 810 l 150 875 b 189 914 150 900 163 914 b 229 875 218 914 229 900 l 229 832 b 190 797 229 808 217 797 z m 188 588 b 146 626 158 588 146 599 l 146 678 b 186 717 146 700 157 717 l 190 717 b 232 679 219 717 232 703 l 232 626 b 188 588 232 599 217 588 z "},"⁹":{"ha":374,"x_min":0,"x_max":0,"o":"m 183 774 b 143 810 157 774 143 785 l 143 864 b 185 908 143 893 157 908 b 229 846 217 908 229 893 l 229 800 b 183 774 221 783 206 774 z m 186 488 b 339 644 286 489 339 542 l 339 846 b 185 1004 339 950 292 1004 b 33 868 83 1004 33 954 l 33 807 b 146 699 33 733 76 699 b 229 743 189 699 215 715 l 229 647 b 189 588 229 604 215 588 b 151 631 163 588 151 600 l 151 668 l 35 668 l 35 625 b 186 488 36 535 82 488 z "},"⁺":{"ha":356,"x_min":0,"x_max":0,"o":"m 310 697 l 310 793 l 226 793 l 226 878 l 129 878 l 129 793 l 46 793 l 46 697 l 129 697 l 129 611 l 226 611 l 226 697 z "},"⁻":{"ha":356,"x_min":0,"x_max":0,"o":"m 308 694 l 308 797 l 47 797 l 47 694 z "},"⁼":{"ha":354,"x_min":0,"x_max":0,"o":"m 301 768 l 301 860 l 51 860 l 51 768 z m 301 629 l 301 721 l 51 721 l 51 629 z "},"⁽":{"ha":269,"x_min":0,"x_max":0,"o":"m 44 625 b 243 378 44 444 114 382 l 243 499 b 157 633 185 503 157 535 l 157 847 b 243 990 157 949 183 985 l 243 1103 b 44 854 115 1096 44 1025 z "},"⁾":{"ha":269,"x_min":0,"x_max":0,"o":"m 28 378 b 225 625 156 382 225 444 l 225 854 b 28 1103 225 1025 154 1096 l 28 990 b 113 847 86 985 113 949 l 113 633 b 28 497 113 535 85 503 z "},"₀":{"ha":378,"x_min":0,"x_max":0,"o":"m 189 -10 b 342 144 288 -10 342 40 l 342 351 b 189 506 342 456 285 506 b 38 351 94 506 38 456 l 38 144 b 189 -10 38 42 90 -10 z m 189 94 b 151 153 161 94 151 110 l 151 349 b 190 406 151 390 163 406 b 228 349 218 406 228 390 l 228 153 b 189 94 228 110 217 94 z "},"₁":{"ha":310,"x_min":0,"x_max":0,"o":"m 283 0 l 283 104 l 211 104 l 211 497 l 124 497 b 42 419 115 447 90 422 l 42 335 l 104 335 l 104 104 l 29 104 l 29 0 z "},"₂":{"ha":361,"x_min":0,"x_max":0,"o":"m 329 0 l 329 106 l 153 106 b 329 338 174 182 329 197 l 329 379 b 185 506 329 461 285 506 b 36 376 89 506 36 456 l 35 303 l 149 303 l 149 369 b 183 410 149 394 157 410 b 217 375 208 410 217 399 l 217 340 b 35 85 217 249 35 243 l 35 0 z "},"₃":{"ha":361,"x_min":0,"x_max":0,"o":"m 181 -10 b 329 110 281 -10 329 39 l 329 175 b 272 258 329 222 308 247 b 324 339 308 271 324 299 l 324 388 b 178 504 324 460 279 504 b 33 378 79 504 33 457 l 33 329 l 143 329 l 143 369 b 179 408 143 397 153 408 b 214 371 206 408 214 397 l 214 332 b 179 297 214 307 206 297 l 138 297 l 138 207 l 178 207 b 215 175 204 207 215 200 l 215 125 b 178 92 215 103 206 92 b 142 129 150 92 142 104 l 142 178 l 29 178 l 29 117 b 181 -10 29 32 72 -10 z "},"₄":{"ha":368,"x_min":0,"x_max":0,"o":"m 193 296 l 201 319 l 199 294 l 199 181 l 129 181 z m 351 89 l 351 181 l 297 181 l 297 497 l 199 497 l 22 169 l 22 89 l 199 89 l 199 0 l 297 0 l 297 89 z "},"₅":{"ha":367,"x_min":0,"x_max":0,"o":"m 186 -10 b 335 124 288 -10 335 42 l 335 229 b 222 344 335 303 296 344 b 146 315 188 344 163 333 l 156 399 l 221 399 b 319 492 301 399 319 417 l 319 497 l 67 497 l 40 243 l 140 217 l 146 229 b 186 256 154 244 168 256 b 224 219 210 256 224 246 l 224 133 b 186 92 224 108 214 92 b 150 128 161 92 150 104 l 150 179 l 35 179 l 35 119 b 186 -10 35 38 79 -10 z "},"₆":{"ha":375,"x_min":0,"x_max":0,"o":"m 342 128 l 342 194 b 233 300 342 265 301 300 b 147 258 192 300 164 285 l 147 350 b 188 411 147 396 161 411 b 225 367 214 411 225 396 l 225 332 l 338 332 l 338 369 b 189 506 336 458 289 506 b 36 351 93 506 36 454 l 36 150 b 190 -10 36 46 79 -10 b 342 128 290 -10 342 42 z m 192 89 b 147 151 160 89 147 106 l 147 203 b 193 225 156 217 171 225 b 232 190 218 225 232 214 l 232 133 b 192 89 232 106 221 89 z "},"₇":{"ha":328,"x_min":0,"x_max":0,"o":"m 176 0 b 306 407 199 156 244 286 l 306 497 l 24 497 l 24 392 l 190 392 b 51 0 139 292 81 158 z "},"₈":{"ha":376,"x_min":0,"x_max":0,"o":"m 188 -10 b 342 114 290 -10 342 35 l 342 169 b 285 260 342 218 319 246 b 336 343 317 272 336 297 l 336 388 b 189 506 336 463 283 506 b 43 386 94 506 43 461 l 43 343 b 94 258 43 297 63 271 b 35 171 58 244 35 215 l 35 114 b 188 -10 35 32 82 -10 z m 190 299 l 186 299 b 150 333 161 299 150 311 l 150 376 b 189 415 150 401 163 415 b 229 376 218 415 229 401 l 229 333 b 190 299 229 310 217 299 z m 188 89 b 146 128 158 89 146 100 l 146 179 b 186 218 146 201 157 218 l 190 218 b 232 181 219 218 232 204 l 232 128 b 188 89 232 100 217 89 z "},"₉":{"ha":374,"x_min":0,"x_max":0,"o":"m 183 275 b 143 311 157 275 143 286 l 143 365 b 185 410 143 394 157 410 b 229 347 217 410 229 394 l 229 301 b 183 275 221 285 206 275 z m 186 -11 b 339 146 286 -10 339 43 l 339 347 b 185 506 339 451 292 506 b 33 369 83 506 33 456 l 33 308 b 146 200 33 235 76 200 b 229 244 189 200 215 217 l 229 149 b 189 89 229 106 215 89 b 151 132 163 89 151 101 l 151 169 l 35 169 l 35 126 b 186 -11 36 36 82 -11 z "},"₊":{"ha":356,"x_min":0,"x_max":0,"o":"m 310 199 l 310 294 l 226 294 l 226 379 l 129 379 l 129 294 l 46 294 l 46 199 l 129 199 l 129 113 l 226 113 l 226 199 z "},"₋":{"ha":356,"x_min":0,"x_max":0,"o":"m 308 196 l 308 299 l 47 299 l 47 196 z "},"₌":{"ha":354,"x_min":0,"x_max":0,"o":"m 301 269 l 301 361 l 51 361 l 51 269 z m 301 131 l 301 222 l 51 222 l 51 131 z "},"₍":{"ha":269,"x_min":0,"x_max":0,"o":"m 44 126 b 243 -121 44 -54 114 -117 l 243 0 b 157 135 185 4 157 36 l 157 349 b 243 492 157 450 183 486 l 243 604 b 44 356 115 597 44 526 z "},"₎":{"ha":269,"x_min":0,"x_max":0,"o":"m 28 -121 b 225 126 156 -117 225 -54 l 225 356 b 28 604 225 526 154 597 l 28 492 b 113 349 86 486 113 450 l 113 135 b 28 -1 113 36 85 4 z "},"⁄":{"ha":833,"x_min":0,"x_max":0,"o":"m 488 554 l 789 939 l 635 1031 l 443 583 z m 368 464 l 64 69 l 222 -31 l 408 436 z "},"⅟":{"ha":833,"x_min":0,"x_max":0,"o":"m 488 554 l 789 939 l 635 1031 l 443 583 z m 368 464 l 64 69 l 222 -31 l 408 436 z m 331 499 l 331 603 l 258 603 l 258 996 l 171 996 b 89 918 163 946 138 921 l 89 833 l 151 833 l 151 603 l 76 603 l 76 499 z "},"½":{"ha":833,"x_min":0,"x_max":0,"o":"m 488 554 l 789 939 l 635 1031 l 443 583 z m 368 464 l 64 69 l 222 -31 l 408 436 z m 331 499 l 331 603 l 258 603 l 258 996 l 171 996 b 89 918 163 946 138 921 l 89 833 l 151 833 l 151 603 l 76 603 l 76 499 z m 772 0 l 772 106 l 596 106 b 772 338 617 182 772 197 l 772 379 b 628 506 772 461 728 506 b 479 376 532 506 479 456 l 478 303 l 592 303 l 592 369 b 626 410 592 394 600 410 b 660 375 651 410 660 399 l 660 340 b 478 85 660 249 478 243 l 478 0 z "},"⅓":{"ha":833,"x_min":0,"x_max":0,"o":"m 488 554 l 789 939 l 635 1031 l 443 583 z m 368 464 l 64 69 l 222 -31 l 408 436 z m 331 499 l 331 603 l 258 603 l 258 996 l 171 996 b 89 918 163 946 138 921 l 89 833 l 151 833 l 151 603 l 76 603 l 76 499 z m 617 -10 b 765 110 717 -10 765 39 l 765 175 b 708 258 765 222 744 247 b 760 339 744 271 760 299 l 760 388 b 614 504 760 460 715 504 b 469 378 515 504 469 457 l 469 329 l 579 329 l 579 369 b 615 408 579 397 589 408 b 650 371 642 408 650 397 l 650 332 b 615 297 650 307 642 297 l 574 297 l 574 207 l 614 207 b 651 175 640 207 651 200 l 651 125 b 614 92 651 103 642 92 b 578 129 586 92 578 104 l 578 178 l 465 178 l 465 117 b 617 -10 465 32 508 -10 z "},"⅔":{"ha":833,"x_min":0,"x_max":0,"o":"m 488 554 l 789 939 l 635 1031 l 443 583 z m 368 464 l 64 69 l 222 -31 l 408 436 z m 353 499 l 353 604 l 176 604 b 353 836 197 681 353 696 l 353 878 b 208 1004 353 960 308 1004 b 60 875 113 1004 60 954 l 58 801 l 172 801 l 172 868 b 207 908 172 893 181 908 b 240 874 232 908 240 897 l 240 839 b 58 583 240 747 58 742 l 58 499 z m 617 -10 b 765 110 717 -10 765 39 l 765 175 b 708 258 765 222 744 247 b 760 339 744 271 760 299 l 760 388 b 614 504 760 460 715 504 b 469 378 515 504 469 457 l 469 329 l 579 329 l 579 369 b 615 408 579 397 589 408 b 650 371 642 408 650 397 l 650 332 b 615 297 650 307 642 297 l 574 297 l 574 207 l 614 207 b 651 175 640 207 651 200 l 651 125 b 614 92 651 103 642 92 b 578 129 586 92 578 104 l 578 178 l 465 178 l 465 117 b 617 -10 465 32 508 -10 z "},"¼":{"ha":833,"x_min":0,"x_max":0,"o":"m 488 554 l 789 939 l 635 1031 l 443 583 z m 368 464 l 64 69 l 222 -31 l 408 436 z m 604 296 l 613 319 l 610 294 l 610 181 l 540 181 z m 763 89 l 763 181 l 708 181 l 708 497 l 610 497 l 433 169 l 433 89 l 610 89 l 610 0 l 708 0 l 708 89 z m 331 499 l 331 603 l 258 603 l 258 996 l 171 996 b 89 918 163 946 138 921 l 89 833 l 151 833 l 151 603 l 76 603 l 76 499 z "},"¾":{"ha":833,"x_min":0,"x_max":0,"o":"m 488 554 l 789 939 l 635 1031 l 443 583 z m 368 464 l 64 69 l 222 -31 l 408 436 z m 604 296 l 613 319 l 610 294 l 610 181 l 540 181 z m 763 89 l 763 181 l 708 181 l 708 497 l 610 497 l 433 169 l 433 89 l 610 89 l 610 0 l 708 0 l 708 89 z m 199 489 b 347 608 299 489 347 538 l 347 674 b 290 757 347 721 326 746 b 342 838 326 769 342 797 l 342 886 b 196 1003 342 958 297 1003 b 51 876 97 1003 51 956 l 51 828 l 161 828 l 161 868 b 197 907 161 896 171 907 b 232 869 224 907 232 896 l 232 831 b 197 796 232 806 224 796 l 156 796 l 156 706 l 196 706 b 233 674 222 706 233 699 l 233 624 b 196 590 233 601 224 590 b 160 628 168 590 160 603 l 160 676 l 47 676 l 47 615 b 199 489 47 531 90 489 z "},"⅕":{"ha":833,"x_min":0,"x_max":0,"o":"m 488 554 l 789 939 l 635 1031 l 443 583 z m 368 464 l 64 69 l 222 -31 l 408 436 z m 621 -10 b 769 124 722 -10 769 42 l 769 229 b 657 344 769 303 731 344 b 581 315 622 344 597 333 l 590 399 l 656 399 b 754 492 736 399 754 417 l 754 497 l 501 497 l 475 243 l 575 217 l 581 229 b 621 256 589 244 603 256 b 658 219 644 256 658 246 l 658 133 b 621 92 658 108 649 92 b 585 128 596 92 585 104 l 585 179 l 469 179 l 469 119 b 621 -10 469 38 514 -10 z m 331 499 l 331 603 l 258 603 l 258 996 l 171 996 b 89 918 163 946 138 921 l 89 833 l 151 833 l 151 603 l 76 603 l 76 499 z "},"⅖":{"ha":833,"x_min":0,"x_max":0,"o":"m 488 554 l 789 939 l 635 1031 l 443 583 z m 368 464 l 64 69 l 222 -31 l 408 436 z m 621 -10 b 769 124 722 -10 769 42 l 769 229 b 657 344 769 303 731 344 b 581 315 622 344 597 333 l 590 399 l 656 399 b 754 492 736 399 754 417 l 754 497 l 501 497 l 475 243 l 575 217 l 581 229 b 621 256 589 244 603 256 b 658 219 644 256 658 246 l 658 133 b 621 92 658 108 649 92 b 585 128 596 92 585 104 l 585 179 l 469 179 l 469 119 b 621 -10 469 38 514 -10 z m 354 499 l 354 604 l 178 604 b 354 836 199 681 354 696 l 354 878 b 210 1004 354 960 310 1004 b 61 875 114 1004 61 954 l 60 801 l 174 801 l 174 868 b 208 908 174 893 182 908 b 242 874 233 908 242 897 l 242 839 b 60 583 242 747 60 742 l 60 499 z "},"⅗":{"ha":833,"x_min":0,"x_max":0,"o":"m 488 554 l 789 939 l 635 1031 l 443 583 z m 368 464 l 64 69 l 222 -31 l 408 436 z m 621 -10 b 769 124 722 -10 769 42 l 769 229 b 657 344 769 303 731 344 b 581 315 622 344 597 333 l 590 399 l 656 399 b 754 492 736 399 754 417 l 754 497 l 501 497 l 475 243 l 575 217 l 581 229 b 621 256 589 244 603 256 b 658 219 644 256 658 246 l 658 133 b 621 92 658 108 649 92 b 585 128 596 92 585 104 l 585 179 l 469 179 l 469 119 b 621 -10 469 38 514 -10 z m 200 489 b 349 608 300 489 349 538 l 349 674 b 292 757 349 721 328 746 b 343 838 328 769 343 797 l 343 886 b 197 1003 343 958 299 1003 b 53 876 99 1003 53 956 l 53 828 l 163 828 l 163 868 b 199 907 163 896 172 907 b 233 869 225 907 233 896 l 233 831 b 199 796 233 806 225 796 l 157 796 l 157 706 l 197 706 b 235 674 224 706 235 699 l 235 624 b 197 590 235 601 225 590 b 161 628 169 590 161 603 l 161 676 l 49 676 l 49 615 b 200 489 49 531 92 489 z "},"⅘":{"ha":833,"x_min":0,"x_max":0,"o":"m 488 554 l 789 939 l 635 1031 l 443 583 z m 368 464 l 64 69 l 222 -31 l 408 436 z m 621 -10 b 769 124 722 -10 769 42 l 769 229 b 657 344 769 303 731 344 b 581 315 622 344 597 333 l 590 399 l 656 399 b 754 492 736 399 754 417 l 754 497 l 501 497 l 475 243 l 575 217 l 581 229 b 621 256 589 244 603 256 b 658 219 644 256 658 246 l 658 133 b 621 92 658 108 649 92 b 585 128 596 92 585 104 l 585 179 l 469 179 l 469 119 b 621 -10 469 38 514 -10 z m 215 794 l 224 818 l 221 793 l 221 679 l 151 679 z m 374 588 l 374 679 l 319 679 l 319 996 l 221 996 l 44 668 l 44 588 l 221 588 l 221 499 l 319 499 l 319 588 z "},"⅙":{"ha":833,"x_min":0,"x_max":0,"o":"m 488 554 l 789 939 l 635 1031 l 443 583 z m 368 464 l 64 69 l 222 -31 l 408 436 z m 331 499 l 331 603 l 258 603 l 258 996 l 171 996 b 89 918 163 946 138 921 l 89 833 l 151 833 l 151 603 l 76 603 l 76 499 z m 769 128 l 769 194 b 661 300 769 265 729 300 b 575 258 619 300 592 285 l 575 350 b 615 411 575 396 589 411 b 653 367 642 411 653 396 l 653 332 l 765 332 l 765 369 b 617 506 764 458 717 506 b 464 351 521 506 464 454 l 464 150 b 618 -10 464 46 507 -10 b 769 128 718 -10 769 42 z m 619 89 b 575 151 588 89 575 106 l 575 203 b 621 225 583 217 599 225 b 660 190 646 225 660 214 l 660 133 b 619 89 660 106 649 89 z "},"⅚":{"ha":833,"x_min":0,"x_max":0,"o":"m 488 554 l 789 939 l 635 1031 l 443 583 z m 368 464 l 64 69 l 222 -31 l 408 436 z m 201 489 b 350 622 303 489 350 540 l 350 728 b 238 843 350 801 311 843 b 161 814 203 843 178 832 l 171 897 l 236 897 b 335 990 317 897 335 915 l 335 996 l 82 996 l 56 742 l 156 715 l 161 728 b 201 754 169 743 183 754 b 239 718 225 754 239 744 l 239 632 b 201 590 239 607 229 590 b 165 626 176 590 165 603 l 165 678 l 50 678 l 50 618 b 201 489 50 536 94 489 z m 769 128 l 769 194 b 661 300 769 265 729 300 b 575 258 619 300 592 285 l 575 350 b 615 411 575 396 589 411 b 653 367 642 411 653 396 l 653 332 l 765 332 l 765 369 b 617 506 764 458 717 506 b 464 351 521 506 464 454 l 464 150 b 618 -10 464 46 507 -10 b 769 128 718 -10 769 42 z m 619 89 b 575 151 588 89 575 106 l 575 203 b 621 225 583 217 599 225 b 660 190 646 225 660 214 l 660 133 b 619 89 660 106 649 89 z "},"⅛":{"ha":833,"x_min":0,"x_max":0,"o":"m 488 554 l 789 939 l 635 1031 l 443 583 z m 368 464 l 64 69 l 222 -31 l 408 436 z m 331 499 l 331 603 l 258 603 l 258 996 l 171 996 b 89 918 163 946 138 921 l 89 833 l 151 833 l 151 603 l 76 603 l 76 499 z m 618 -10 b 772 114 721 -10 772 35 l 772 169 b 715 260 772 218 750 246 b 767 343 747 272 767 297 l 767 388 b 619 506 767 463 714 506 b 474 386 525 506 474 461 l 474 343 b 525 258 474 297 493 271 b 465 171 489 244 465 215 l 465 114 b 618 -10 465 32 513 -10 z m 621 299 l 617 299 b 581 333 592 299 581 311 l 581 376 b 619 415 581 401 593 415 b 660 376 649 415 660 401 l 660 333 b 621 299 660 310 647 299 z m 618 89 b 576 128 589 89 576 100 l 576 179 b 617 218 576 201 588 218 l 621 218 b 663 181 650 218 663 204 l 663 128 b 618 89 663 100 647 89 z "},"⅜":{"ha":833,"x_min":0,"x_max":0,"o":"m 488 554 l 789 939 l 635 1031 l 443 583 z m 368 464 l 64 69 l 222 -31 l 408 436 z m 618 -10 b 772 114 721 -10 772 35 l 772 169 b 715 260 772 218 750 246 b 767 343 747 272 767 297 l 767 388 b 619 506 767 463 714 506 b 474 386 525 506 474 461 l 474 343 b 525 258 474 297 493 271 b 465 171 489 244 465 215 l 465 114 b 618 -10 465 32 513 -10 z m 621 299 l 617 299 b 581 333 592 299 581 311 l 581 376 b 619 415 581 401 593 415 b 660 376 649 415 660 401 l 660 333 b 621 299 660 310 647 299 z m 618 89 b 576 128 589 89 576 100 l 576 179 b 617 218 576 201 588 218 l 621 218 b 663 181 650 218 663 204 l 663 128 b 618 89 663 100 647 89 z m 200 489 b 349 608 300 489 349 538 l 349 674 b 292 757 349 721 328 746 b 343 838 328 769 343 797 l 343 886 b 197 1003 343 958 299 1003 b 53 876 99 1003 53 956 l 53 828 l 163 828 l 163 868 b 199 907 163 896 172 907 b 233 869 225 907 233 896 l 233 831 b 199 796 233 806 225 796 l 157 796 l 157 706 l 197 706 b 235 674 224 706 235 699 l 235 624 b 197 590 235 601 225 590 b 161 628 169 590 161 603 l 161 676 l 49 676 l 49 615 b 200 489 49 531 92 489 z "},"⅝":{"ha":833,"x_min":0,"x_max":0,"o":"m 488 554 l 789 939 l 635 1031 l 443 583 z m 368 464 l 64 69 l 222 -31 l 408 436 z m 618 -10 b 772 114 721 -10 772 35 l 772 169 b 715 260 772 218 750 246 b 767 343 747 272 767 297 l 767 388 b 619 506 767 463 714 506 b 474 386 525 506 474 461 l 474 343 b 525 258 474 297 493 271 b 465 171 489 244 465 215 l 465 114 b 618 -10 465 32 513 -10 z m 621 299 l 617 299 b 581 333 592 299 581 311 l 581 376 b 619 415 581 401 593 415 b 660 376 649 415 660 401 l 660 333 b 621 299 660 310 647 299 z m 618 89 b 576 128 589 89 576 100 l 576 179 b 617 218 576 201 588 218 l 621 218 b 663 181 650 218 663 204 l 663 128 b 618 89 663 100 647 89 z m 201 489 b 350 622 303 489 350 540 l 350 728 b 238 843 350 801 311 843 b 161 814 203 843 178 832 l 171 897 l 236 897 b 335 990 317 897 335 915 l 335 996 l 82 996 l 56 742 l 156 715 l 161 728 b 201 754 169 743 183 754 b 239 718 225 754 239 744 l 239 632 b 201 590 239 607 229 590 b 165 626 176 590 165 603 l 165 678 l 50 678 l 50 618 b 201 489 50 536 94 489 z "},"⅞":{"ha":833,"x_min":0,"x_max":0,"o":"m 488 554 l 789 939 l 635 1031 l 443 583 z m 368 464 l 64 69 l 222 -31 l 408 436 z m 618 -10 b 772 114 721 -10 772 35 l 772 169 b 715 260 772 218 750 246 b 767 343 747 272 767 297 l 767 388 b 619 506 767 463 714 506 b 474 386 525 506 474 461 l 474 343 b 525 258 474 297 493 271 b 465 171 489 244 465 215 l 465 114 b 618 -10 465 32 513 -10 z m 621 299 l 617 299 b 581 333 592 299 581 311 l 581 376 b 619 415 581 401 593 415 b 660 376 649 415 660 401 l 660 333 b 621 299 660 310 647 299 z m 618 89 b 576 128 589 89 576 100 l 576 179 b 617 218 576 201 588 218 l 621 218 b 663 181 650 218 663 204 l 663 128 b 618 89 663 100 647 89 z m 258 499 b 388 906 281 654 326 785 l 388 996 l 106 996 l 106 890 l 272 890 b 133 499 221 790 163 657 z "},"%":{"ha":858,"x_min":0,"x_max":0,"o":"m 204 547 b 371 708 308 547 371 607 l 371 843 b 206 1006 371 947 304 1006 b 40 843 107 1006 40 949 l 40 708 b 204 547 40 606 99 547 z m 61 0 l 247 0 b 796 996 308 82 728 910 l 614 996 b 61 0 553 913 131 85 z m 206 660 b 161 718 174 660 161 679 l 161 838 b 206 896 161 876 175 896 b 250 838 238 896 250 876 l 250 718 b 206 660 250 681 238 660 z m 653 -14 b 819 147 757 -14 819 44 l 819 285 b 654 450 819 389 753 450 b 488 285 554 450 488 390 l 488 147 b 653 -14 488 43 547 -14 z m 654 100 b 610 157 622 100 610 119 l 610 279 b 654 338 610 318 624 338 b 699 279 686 338 699 318 l 699 157 b 654 100 699 119 686 100 z "},"‰":{"ha":1243,"x_min":0,"x_max":0,"o":"m 204 547 b 371 708 308 547 371 606 l 371 844 b 206 1006 371 949 304 1006 b 40 844 107 1006 40 950 l 40 708 b 204 547 40 604 99 547 z m 61 0 l 247 0 b 796 996 308 82 728 910 l 614 996 b 61 0 553 913 131 85 z m 206 660 b 161 717 174 660 161 679 l 161 839 b 206 896 161 876 175 896 b 250 839 238 896 250 876 l 250 717 b 206 660 250 679 238 660 z m 1038 -14 b 1204 147 1142 -14 1204 44 l 1204 285 b 1039 450 1204 390 1138 450 b 872 285 939 450 872 390 l 872 147 b 1038 -14 872 43 932 -14 z m 653 -14 b 819 147 757 -14 819 44 l 819 285 b 654 450 819 390 753 450 b 488 285 554 450 488 390 l 488 147 b 653 -14 488 43 547 -14 z m 1039 100 b 994 157 1007 100 994 119 l 994 281 b 1039 338 994 318 1008 338 b 1083 281 1071 338 1083 318 l 1083 157 b 1039 100 1083 119 1071 100 z m 654 100 b 610 157 622 100 610 119 l 610 281 b 654 338 610 318 624 338 b 699 281 686 338 699 318 l 699 157 b 654 100 699 119 686 100 z "},"№":{"ha":1167,"x_min":0,"x_max":0,"o":"m 922 439 b 1118 631 1042 439 1118 503 l 1118 815 b 922 1008 1118 943 1038 1008 b 726 815 810 1008 726 944 l 726 631 b 922 439 726 501 794 439 z m 922 567 b 868 635 886 567 868 588 l 868 813 b 922 886 868 865 888 886 b 976 813 958 886 976 865 l 976 635 b 922 567 976 586 960 567 z m 229 585 l 228 597 l 488 0 l 642 0 l 642 996 l 478 996 l 478 421 l 479 401 l 222 996 l 65 996 l 65 0 l 229 0 z m 1110 372 l 736 372 l 736 225 l 1110 225 z "},"¤":{"ha":731,"x_min":0,"x_max":0,"o":"m 368 381 b 274 482 308 381 274 425 l 274 535 b 368 635 274 594 310 635 b 463 535 426 635 463 592 l 463 482 b 368 381 463 424 426 381 z m 368 247 b 479 271 410 247 447 256 l 581 160 l 682 260 l 581 369 b 604 479 596 401 604 439 l 604 538 b 576 654 604 582 594 621 l 679 768 l 574 863 l 472 750 b 368 771 442 764 407 771 b 263 750 329 771 293 764 l 158 861 l 57 761 l 160 653 b 132 536 142 619 132 579 l 132 478 b 156 365 132 435 140 397 l 50 250 l 158 153 l 261 267 b 368 247 292 254 328 247 z "},"←":{"ha":1036,"x_min":0,"x_max":0,"o":"m 940 418 l 940 582 l 332 582 b 499 806 399 638 465 721 l 310 806 b 78 539 278 714 178 601 l 78 457 b 314 192 178 396 281 283 l 508 192 b 329 418 472 279 399 364 z "},"→":{"ha":1036,"x_min":0,"x_max":0,"o":"m 722 192 b 958 457 756 283 858 396 l 958 539 b 726 806 858 601 760 714 l 538 806 b 704 582 571 721 638 638 l 96 582 l 96 418 l 708 418 b 528 192 638 364 564 279 z "},"↑":{"ha":1036,"x_min":0,"x_max":0,"o":"m 824 511 l 824 701 b 558 933 732 735 621 833 l 479 933 b 211 701 415 833 303 735 l 211 513 b 438 685 300 547 383 615 l 438 74 l 600 74 l 600 683 b 824 511 654 615 735 547 z "},"↓":{"ha":1036,"x_min":0,"x_max":0,"o":"m 556 64 b 825 296 618 164 732 264 l 825 486 b 597 313 735 450 651 382 l 597 925 l 435 925 l 435 314 b 211 486 382 383 301 450 l 211 296 b 476 64 303 263 414 164 z "},"↖":{"ha":1036,"x_min":0,"x_max":0,"o":"m 879 258 l 449 689 b 726 726 535 678 639 689 l 592 861 b 240 838 504 819 357 810 l 185 781 b 160 426 211 665 201 515 l 293 293 b 332 575 332 382 342 489 l 764 143 z "},"↗":{"ha":1036,"x_min":0,"x_max":0,"o":"m 743 293 l 878 428 b 854 779 836 517 828 664 l 799 835 b 444 861 683 810 532 818 l 310 728 b 592 689 399 689 506 678 l 160 256 l 275 142 l 707 574 b 743 293 696 488 706 382 z "},"↘":{"ha":1036,"x_min":0,"x_max":0,"o":"m 797 167 l 853 222 b 878 576 826 338 836 488 l 744 710 b 706 428 706 621 696 515 l 274 860 l 158 744 l 590 314 b 311 276 504 325 400 315 l 446 142 b 797 167 533 185 682 193 z "},"↙":{"ha":1036,"x_min":0,"x_max":0,"o":"m 593 142 l 728 275 b 446 314 639 314 533 324 l 878 746 l 763 861 l 331 429 b 294 708 342 515 332 619 l 160 574 b 183 222 201 486 210 338 l 240 167 b 593 142 356 193 504 183 z "},"○":{"ha":1221,"x_min":0,"x_max":0,"o":"m 610 -15 b 1118 492 908 -15 1118 200 b 610 1000 1118 788 904 1000 b 104 492 313 1000 104 783 b 610 -15 104 196 313 -15 z m 610 229 b 353 492 461 229 353 343 b 610 758 353 643 461 758 b 868 492 761 758 868 640 b 610 229 868 343 761 229 z "},"●":{"ha":1221,"x_min":0,"x_max":0,"o":"m 610 -15 b 1118 492 908 -15 1118 200 b 610 1000 1118 788 904 1000 b 104 492 313 1000 104 783 b 610 -15 104 196 313 -15 z "},"■":{"ha":1193,"x_min":0,"x_max":0,"o":"m 101 0 l 1092 0 l 1092 996 l 101 996 z "},"□":{"ha":1193,"x_min":0,"x_max":0,"o":"m 101 0 l 1092 0 l 1092 996 l 101 996 z m 356 750 l 838 750 l 838 246 l 356 246 z "},"⊠":{"ha":1193,"x_min":0,"x_max":0,"o":"m 101 0 l 1092 0 l 1092 996 l 101 996 z m 356 750 l 838 750 l 838 246 l 356 246 z m 715 296 l 796 376 l 675 500 l 797 626 l 717 704 l 597 581 l 478 703 l 396 625 l 518 500 l 397 376 l 478 297 l 596 419 z "},"▪":{"ha":997,"x_min":0,"x_max":0,"o":"m 100 0 l 897 0 l 897 797 l 100 797 z "},"▫":{"ha":997,"x_min":0,"x_max":0,"o":"m 100 0 l 897 0 l 897 797 l 100 797 z m 329 578 l 669 578 l 669 221 l 329 221 z "},"▲":{"ha":1239,"x_min":0,"x_max":0,"o":"m 1208 0 l 621 1021 l 31 0 z "},"▼":{"ha":1239,"x_min":0,"x_max":0,"o":"m 31 1004 l 621 -17 l 1208 1004 z "},"◄":{"ha":1239,"x_min":0,"x_max":0,"o":"m 1099 1100 l 78 511 l 1099 -78 z "},"►":{"ha":1239,"x_min":0,"x_max":0,"o":"m 140 -78 l 1161 511 l 140 1100 z "},"◤":{"ha":1239,"x_min":0,"x_max":0,"o":"m 1182 -74 l 876 1064 l 43 231 z "},"◥":{"ha":1239,"x_min":0,"x_max":0,"o":"m 1201 224 l 369 1058 l 64 -79 z "},"◢":{"ha":1239,"x_min":0,"x_max":0,"o":"m 1203 733 l 65 1039 l 369 -100 z "},"◣":{"ha":1239,"x_min":0,"x_max":0,"o":"m 872 -100 l 1178 1039 l 39 733 z "},"◎":{"ha":1261,"x_min":0,"x_max":0,"o":"m 629 -14 b 1135 492 926 -14 1135 200 b 629 999 1135 788 922 999 b 126 492 335 999 126 783 b 629 -14 126 196 335 -14 z m 629 165 b 307 492 447 165 307 306 b 629 822 307 679 447 822 b 954 492 817 822 954 675 b 629 165 954 306 817 165 z m 631 257 b 867 490 767 257 867 358 b 631 725 867 625 765 725 b 396 490 499 725 396 625 b 631 257 396 356 494 257 z m 631 411 b 557 490 588 411 557 446 b 631 571 557 538 588 571 b 706 490 675 571 706 538 b 631 411 706 446 675 411 z "},"★":{"ha":1243,"x_min":0,"x_max":0,"o":"m 775 417 l 1033 601 l 717 603 l 619 903 l 519 603 l 206 604 l 461 418 l 361 117 l 618 303 l 875 117 z "},"☼":{"ha":1282,"x_min":0,"x_max":0,"o":"m 624 781 l 650 781 l 674 976 l 600 976 z m 771 750 l 792 736 l 911 894 l 847 932 z m 482 736 l 501 750 l 426 932 l 361 894 z m 882 647 l 896 625 l 1078 703 l 1038 765 z m 378 625 l 392 646 l 233 765 l 196 701 z m 397 489 b 636 250 397 358 506 250 b 876 489 767 250 876 358 b 636 729 876 621 767 729 b 397 489 506 729 397 621 z m 926 504 l 926 478 l 1122 454 l 1122 528 z m 347 478 l 347 504 l 151 528 l 151 454 z m 392 335 l 378 356 l 196 279 l 236 215 z m 896 356 l 882 336 l 1040 215 l 1078 281 z m 501 232 l 482 246 l 361 88 l 426 50 z m 792 246 l 771 232 l 847 50 l 911 88 z m 650 201 l 624 201 l 600 6 l 674 6 z "},"☾":{"ha":1088,"x_min":0,"x_max":0,"o":"m 738 832 b 835 815 769 832 803 824 b 590 894 765 865 679 894 b 183 486 365 894 183 711 b 590 79 183 263 365 79 b 835 158 679 79 765 108 b 738 142 803 149 769 142 b 408 486 556 142 408 297 b 738 832 408 676 556 832 z "},"♻":{"ha":1146,"x_min":0,"x_max":0,"o":"m 485 935 b 590 869 485 935 554 931 l 674 724 l 628 696 l 826 658 l 900 854 l 849 825 l 815 882 b 710 936 786 933 753 935 l 485 936 z m 246 725 l 421 625 l 556 858 b 364 900 532 903 433 940 b 325 864 346 890 331 874 z m 951 642 l 778 543 l 913 310 b 1044 456 961 310 1044 374 b 1033 506 1044 476 1039 496 z m 231 172 b 235 297 231 172 201 238 b 319 443 238 303 319 443 l 367 414 l 299 608 l 94 572 l 144 543 l 111 486 b 117 367 81 435 96 404 l 228 172 z m 1019 339 b 907 278 1019 339 976 278 l 739 278 l 739 336 l 608 178 l 739 19 l 739 76 l 806 76 b 907 142 867 76 885 106 l 1021 338 z m 533 76 l 533 278 l 264 278 b 325 92 238 235 254 133 b 376 76 343 81 363 76 z "},"♼":{"ha":1146,"x_min":0,"x_max":0,"o":"m 1039 486 b 575 954 1039 746 831 954 b 107 486 317 954 107 746 b 575 24 107 229 317 24 b 1039 486 831 24 1039 229 z m 496 842 l 671 842 b 754 799 706 842 731 839 l 779 756 l 818 776 l 764 625 l 608 654 l 644 676 l 579 789 b 496 840 553 835 496 840 z m 379 783 b 408 813 382 793 394 804 b 557 781 463 844 539 815 l 454 600 l 318 678 z m 925 508 b 936 469 931 499 936 486 b 835 353 936 406 874 353 l 729 535 l 865 614 z m 304 249 l 217 399 b 213 492 203 429 189 451 l 239 536 l 201 560 l 357 586 l 411 436 l 374 460 l 308 347 b 306 249 282 300 306 249 z m 917 375 l 829 225 b 751 176 813 199 799 176 l 700 176 l 700 131 l 597 253 l 700 374 l 700 332 l 829 332 b 915 376 885 332 915 376 z m 414 176 b 374 188 404 176 388 179 b 326 332 319 218 306 297 l 536 332 l 536 176 z "},"♽":{"ha":1146,"x_min":0,"x_max":0,"o":"m 1039 486 b 575 954 1039 746 831 954 b 107 486 317 954 107 746 b 575 24 107 229 317 24 b 1039 486 831 24 1039 229 z m 1015 486 b 575 46 1015 242 818 46 b 131 486 329 46 131 242 b 575 931 131 733 329 931 b 1015 486 818 931 1015 733 z m 496 840 b 579 789 496 840 553 835 l 644 676 l 608 654 l 764 625 l 818 776 l 779 756 l 754 799 b 671 842 731 839 706 842 l 496 842 z m 318 678 l 454 600 l 557 781 b 408 813 539 815 463 844 b 379 783 394 804 382 793 z m 865 614 l 729 535 l 835 353 b 936 469 874 353 936 406 b 925 508 936 486 931 499 z m 306 249 b 308 347 306 249 282 300 l 374 460 l 411 436 l 357 586 l 201 560 l 239 536 l 213 492 b 217 399 189 451 203 429 l 304 249 z m 915 376 b 829 332 915 376 885 332 l 700 332 l 700 374 l 597 253 l 700 131 l 700 176 l 751 176 b 829 225 799 176 813 199 l 917 375 z m 536 176 l 536 332 l 326 332 b 374 188 306 297 319 218 b 414 176 388 179 404 176 z "},"⌂":{"ha":1178,"x_min":0,"x_max":0,"o":"m 1038 0 l 1038 558 l 589 989 l 140 558 l 140 0 z "},"♠":{"ha":1246,"x_min":0,"x_max":0,"o":"m 667 390 b 911 208 703 297 779 208 b 1124 421 1029 208 1124 304 b 817 856 1124 575 1040 678 l 628 1006 l 439 856 b 121 421 215 678 121 575 b 351 208 121 304 226 208 b 581 390 475 208 547 297 b 453 0 581 228 490 69 l 801 0 b 667 390 767 69 667 228 z "},"♣":{"ha":1246,"x_min":0,"x_max":0,"o":"m 893 176 b 1131 417 1025 176 1131 285 b 894 654 1131 549 1026 654 b 831 643 872 654 850 650 b 857 764 847 681 857 722 b 621 999 857 894 751 999 b 382 764 489 999 382 894 b 410 646 382 724 393 682 b 353 654 392 650 374 654 b 114 417 221 654 114 549 b 353 176 114 285 221 176 b 579 338 458 176 542 244 b 454 0 563 196 488 61 l 803 0 b 672 338 772 61 690 194 b 893 176 708 244 789 176 z "},"♥":{"ha":1246,"x_min":0,"x_max":0,"o":"m 619 -24 l 808 189 b 1122 744 1035 438 1122 588 b 867 999 1122 883 1006 999 b 619 782 729 999 635 906 b 369 999 604 906 506 999 b 122 744 231 999 122 883 b 429 189 122 588 206 438 z "},"♦":{"ha":1246,"x_min":0,"x_max":0,"o":"m 182 500 l 624 -14 l 1063 500 l 624 1010 z "},"+":{"ha":615,"x_min":0,"x_max":0,"o":"m 551 415 l 551 568 l 383 568 l 383 736 l 232 736 l 232 568 l 65 568 l 65 415 l 232 415 l 232 247 l 383 247 l 383 415 z "},"−":{"ha":615,"x_min":0,"x_max":0,"o":"m 556 414 l 556 571 l 60 571 l 60 414 z "},"±":{"ha":615,"x_min":0,"x_max":0,"o":"m 526 556 l 526 707 l 383 707 l 383 849 l 233 849 l 233 707 l 90 707 l 90 556 l 233 556 l 233 413 l 383 413 l 383 556 z m 526 192 l 526 346 l 90 346 l 90 192 z "},"×":{"ha":611,"x_min":0,"x_max":0,"o":"m 444 257 l 544 360 l 407 499 l 539 632 l 439 735 l 306 600 l 175 732 l 74 631 l 204 499 l 64 358 l 165 257 l 306 397 z "},"÷":{"ha":615,"x_min":0,"x_max":0,"o":"m 307 619 b 399 697 374 619 399 638 b 307 775 399 758 374 775 b 217 697 242 775 217 758 b 307 619 217 636 238 619 z m 551 411 l 551 568 l 65 568 l 65 411 z m 307 206 b 399 283 374 206 399 222 b 307 360 399 344 374 360 b 217 283 242 360 217 344 b 307 206 217 221 238 206 z "},"=":{"ha":624,"x_min":0,"x_max":0,"o":"m 540 556 l 540 708 l 83 708 l 83 556 z m 540 289 l 540 442 l 83 442 l 83 289 z "},"≠":{"ha":624,"x_min":0,"x_max":0,"o":"m 540 292 l 540 442 l 343 442 l 376 557 l 540 557 l 540 707 l 419 707 l 447 801 l 344 801 l 317 707 l 83 707 l 83 557 l 274 557 l 240 442 l 83 442 l 83 292 l 197 292 l 165 182 l 267 182 l 299 292 z "},"≈":{"ha":614,"x_min":0,"x_max":0,"o":"m 188 735 b 82 686 143 735 97 713 l 82 525 b 186 582 103 561 149 582 b 432 522 256 582 340 522 b 533 569 474 522 518 544 l 533 731 b 432 675 510 693 471 675 b 188 735 364 675 268 735 z m 82 426 l 82 265 b 186 321 103 299 147 321 b 432 261 254 321 340 261 b 533 308 478 261 518 285 l 533 469 b 432 414 508 432 471 414 b 186 474 363 414 267 474 b 82 426 143 474 97 453 z "},"<":{"ha":614,"x_min":0,"x_max":0,"o":"m 532 239 l 532 413 l 269 510 l 532 607 l 532 776 l 76 582 l 76 433 z "},">":{"ha":614,"x_min":0,"x_max":0,"o":"m 83 239 l 538 433 l 538 582 l 83 776 l 83 607 l 344 510 l 83 413 z "},"≤":{"ha":614,"x_min":0,"x_max":0,"o":"m 532 374 l 532 532 l 265 622 l 532 711 l 532 867 l 78 686 l 78 554 z m 533 172 l 533 318 l 79 318 l 79 172 z "},"≥":{"ha":614,"x_min":0,"x_max":0,"o":"m 83 374 l 539 554 l 539 686 l 83 867 l 83 711 l 350 622 l 83 532 z m 536 172 l 536 318 l 83 318 l 83 172 z "},"¬":{"ha":654,"x_min":0,"x_max":0,"o":"m 589 263 l 589 647 l 44 647 l 44 489 l 421 489 l 421 263 z "},"≡":{"ha":624,"x_min":0,"x_max":0,"o":"m 540 660 l 540 801 l 83 801 l 83 660 z m 540 432 l 540 575 l 83 575 l 83 432 z m 540 204 l 540 346 l 83 346 l 83 204 z "},"′":{"ha":278,"x_min":0,"x_max":0,"o":"m 154 699 l 253 996 l 85 996 l 31 699 z "},"″":{"ha":489,"x_min":0,"x_max":0,"o":"m 360 699 l 464 996 l 297 996 l 236 699 z m 154 699 l 250 996 l 85 996 l 31 699 z "},"℅":{"ha":858,"x_min":0,"x_max":0,"o":"m 61 0 l 247 0 b 796 996 310 82 728 910 l 615 996 b 61 0 553 913 131 85 z m 204 547 b 371 706 308 547 369 606 l 371 750 l 247 750 l 247 713 b 206 660 246 679 236 660 b 161 717 174 660 161 679 l 161 842 b 206 899 161 879 175 899 b 247 846 236 899 246 879 l 247 821 l 371 821 l 371 851 b 206 1008 368 953 303 1008 b 40 846 107 1008 40 951 l 40 708 b 204 547 40 604 99 547 z m 653 -14 b 819 147 757 -14 819 44 l 819 285 b 654 450 819 390 753 450 b 488 285 554 450 488 390 l 488 147 b 653 -14 488 43 547 -14 z m 654 100 b 610 157 622 100 610 119 l 610 281 b 654 338 610 318 624 338 b 699 281 686 338 699 318 l 699 157 b 654 100 699 119 686 100 z "},"‗":{"ha":628,"x_min":0,"x_max":0,"o":"m 592 142 l 36 142 l 36 0 l 592 0 z m 592 -61 l 36 -61 l 36 -201 l 592 -201 z "},"‼":{"ha":656,"x_min":0,"x_max":0,"o":"m 386 996 l 386 731 b 417 264 386 531 408 288 b 482 271 429 268 454 271 b 546 264 510 271 531 268 b 576 731 554 288 576 532 l 576 996 z m 81 996 l 81 731 b 111 264 81 531 103 288 b 176 271 124 268 149 271 b 240 264 204 271 226 268 b 271 731 249 288 271 532 l 271 996 z m 479 -12 b 588 106 558 -12 588 14 b 479 221 588 197 558 221 b 372 106 401 221 372 197 b 479 -12 372 13 397 -12 z m 175 -12 b 282 106 253 -12 282 14 b 175 221 282 197 253 221 b 68 106 96 221 68 197 b 175 -12 68 13 92 -12 z "},"∞":{"ha":975,"x_min":0,"x_max":0,"o":"m 707 433 b 588 501 664 433 629 463 b 707 571 629 542 664 571 b 778 501 749 571 778 540 b 707 433 778 464 747 433 z m 271 433 b 201 501 231 433 201 464 b 271 571 201 540 232 571 b 393 503 314 571 351 543 b 271 433 351 464 314 433 z m 264 290 b 488 407 363 290 421 343 b 714 292 556 343 614 292 b 924 503 844 292 924 376 b 713 713 924 625 838 713 b 489 597 613 713 556 661 b 267 713 422 661 367 713 b 51 501 140 713 51 622 b 264 290 51 371 124 290 z "},"∂":{"ha":635,"x_min":0,"x_max":0,"o":"m 315 -14 b 583 268 482 -14 583 79 l 583 543 b 303 1058 583 774 475 943 l 61 1058 b 399 738 253 939 356 847 b 276 793 375 774 336 793 b 47 525 129 793 47 699 l 47 256 b 315 -14 47 75 139 -14 z m 317 143 b 224 260 257 143 224 182 l 224 524 b 319 640 224 603 258 640 b 408 524 381 640 408 604 l 408 261 b 317 143 408 181 375 143 z "},"π":{"ha":778,"x_min":0,"x_max":0,"o":"m 454 207 b 663 0 454 44 500 0 l 739 0 l 739 160 l 696 160 b 629 236 643 160 629 174 l 629 832 l 747 832 l 747 996 l 31 996 l 31 832 l 144 832 l 144 0 l 319 0 l 319 832 l 454 832 z "},"μ":{"ha":635,"x_min":0,"x_max":0,"o":"m 314 -12 b 417 85 375 -12 404 19 l 432 0 l 574 0 l 574 807 l 394 807 l 394 278 b 313 149 394 197 372 149 b 239 263 256 149 239 190 l 239 807 l 60 807 l 60 -258 l 235 -258 l 235 28 b 314 -12 250 1 275 -12 z "},"∫":{"ha":442,"x_min":0,"x_max":0,"o":"m 13 -229 l 93 -229 b 306 -17 254 -229 306 -178 l 306 825 b 372 910 306 894 318 910 l 422 910 l 422 1063 l 346 1063 b 132 843 193 1063 132 1004 l 132 4 b 67 -72 132 -60 119 -72 l 13 -72 z "},"√":{"ha":788,"x_min":0,"x_max":0,"o":"m 442 0 l 775 996 l 588 996 l 358 317 l 254 689 l 42 689 l 42 515 l 125 515 l 267 0 z "},"∆":{"ha":801,"x_min":0,"x_max":0,"o":"m 797 0 l 401 1015 l 4 0 z m 557 154 l 246 154 l 403 582 z "},"Ω":{"ha":863,"x_min":0,"x_max":0,"o":"m 396 151 b 263 572 306 297 263 415 b 428 844 263 782 333 844 b 593 571 524 844 593 781 b 463 151 593 415 553 297 l 540 0 l 829 0 l 829 169 l 653 169 b 781 574 725 278 781 404 b 428 1011 781 879 649 1011 b 76 574 210 1011 76 875 b 204 169 76 400 132 276 l 31 169 l 31 0 l 325 0 z "},"∏":{"ha":778,"x_min":0,"x_max":0,"o":"m 457 0 l 632 0 l 632 832 l 747 832 l 747 996 l 31 996 l 31 832 l 144 832 l 144 0 l 319 0 l 319 832 l 457 832 z "},"∑":{"ha":547,"x_min":0,"x_max":0,"o":"m 508 165 l 231 165 l 454 511 l 239 836 l 494 836 l 494 996 l 44 996 l 44 835 l 249 513 l 35 171 l 35 0 l 508 0 z "},"◊":{"ha":783,"x_min":0,"x_max":0,"o":"m 393 129 l 761 497 l 392 867 l 24 499 z m 244 499 l 390 646 l 540 496 l 393 350 z "},"°":{"ha":425,"x_min":0,"x_max":0,"o":"m 213 658 b 392 825 322 658 392 719 l 392 832 b 213 1006 392 944 319 1006 b 33 832 111 1006 33 946 l 33 825 b 213 658 33 718 100 658 z m 213 778 b 164 831 183 778 164 797 l 164 832 b 213 886 164 871 186 886 b 263 832 243 886 263 869 l 263 831 b 213 778 263 797 243 778 z "}}}
